<svg width="15" height="14" viewBox="0 0 15 14" fill="none" xmlns="http://www.w3.org/2000/svg">
<g clip-path="url(#clip0_38_378)">
<path d="M14.4125 7.41702V6.58064H7.7058V6.03081H14.3219C14.3219 6.03081 13.7935 0.78729 8.26991 0.114594V4.94034H12.8331C12.8331 4.94034 12.0644 2.92184 10.9117 2.45782V4.12834H9.15858V1.22819C9.15858 1.22819 12.3525 1.66908 13.3853 5.31159L7.7058 5.27927V0.0349121H6.84033V5.27425L1.16136 5.24194C1.16136 5.24194 1.92969 1.9938 5.46004 1.08902L5.41205 4.12834H3.68298V2.41157C3.68298 2.41157 2.24201 3.10753 1.66566 4.94048H6.20459V0.137857C6.20459 0.137857 0.824973 0.903469 0.080566 6.03081H6.84033V6.58064H0V7.41702H6.84033V8.04904H0.0925284C0.83708 13.1762 6.2167 13.9419 6.2167 13.9419V9.13937H1.67762C2.25398 10.9723 3.69494 11.6683 3.69494 11.6683V9.95151H5.42415L5.47215 12.9908C1.9418 12.0861 1.17332 8.83778 1.17332 8.83778L6.84033 8.8056V13.9582H7.7058V8.80058L13.3973 8.7684C12.3647 12.4108 9.17055 12.8518 9.17055 12.8518V9.95151H10.9238V11.6219C12.0765 11.158 12.845 9.13965 12.845 9.13965H8.28187V13.9653C13.8056 13.2926 14.334 8.04904 14.334 8.04904H7.7058V7.41702H14.4125Z" fill="#0B1644"/>
</g>
<defs>
<clipPath id="clip0_38_378">
<rect width="14.4125" height="13.9303" fill="white" transform="translate(0 0.0349121)"/>
</clipPath>
</defs>
</svg>
