<svg width="32" height="32" viewBox="0 0 32 32" fill="none" xmlns="http://www.w3.org/2000/svg">
<path d="M3.89402 29C3.38895 29 2.94701 28.8067 2.56821 28.4201C2.1894 28.0335 2 27.5824 2 27.0669V10.539C2 10.045 2.1894 9.59934 2.56821 9.20198C2.94701 8.80463 3.38895 8.60595 3.89402 8.60595H8.53439L10.8388 5.80297H19.4882V7.73606H11.7227L9.41826 10.539H3.89402V27.0669H25.3596V13.7286H27.2537V27.0669C27.2537 27.5824 27.059 28.0335 26.6697 28.4201C26.2803 28.8067 25.8437 29 25.3596 29H3.89402ZM25.3596 10.5068V7.73606H22.6449V5.80297H25.3596V3H27.2537V5.80297H30V7.73606H27.2537V10.5068H25.3596ZM14.611 24.2639C16.1368 24.2639 17.4153 23.7377 18.4464 22.6853C19.4776 21.6328 19.9932 20.328 19.9932 18.7708C19.9932 17.2135 19.4776 15.9141 18.4464 14.8724C17.4153 13.8306 16.1368 13.3098 14.611 13.3098C13.0853 13.3098 11.8121 13.8306 10.7914 14.8724C9.77076 15.9141 9.26043 17.2135 9.26043 18.7708C9.26043 20.328 9.77076 21.6328 10.7914 22.6853C11.8121 23.7377 13.0853 24.2639 14.611 24.2639ZM14.611 22.3309C13.6114 22.3309 12.7854 21.9926 12.133 21.316C11.4806 20.6394 11.1545 19.791 11.1545 18.7708C11.1545 17.7505 11.4806 16.9075 12.133 16.2416C12.7854 15.5758 13.6114 15.2429 14.611 15.2429C15.6107 15.2429 16.4419 15.5758 17.1048 16.2416C17.7678 16.9075 18.0992 17.7505 18.0992 18.7708C18.0992 19.791 17.7678 20.6394 17.1048 21.316C16.4419 21.9926 15.6107 22.3309 14.611 22.3309Z" fill="#0B1644"/>
</svg>
