<svg width="120" height="120" viewBox="0 0 120 120" fill="none" xmlns="http://www.w3.org/2000/svg">
<circle cx="60" cy="60" r="50" fill="#FFD9D7"/>
<path d="M53.0823 68C52.7937 68 52.5411 67.8885 52.3247 67.6654C52.1082 67.4424 52 67.1822 52 66.8848V57.3494C52 57.0644 52.1082 56.8073 52.3247 56.5781C52.5411 56.3488 52.7937 56.2342 53.0823 56.2342H55.7339L57.0507 54.6171H61.9932V55.7323H57.5558L56.239 57.3494H53.0823V66.8848H65.3484V59.1896H66.4307V66.8848C66.4307 67.1822 66.3194 67.4424 66.097 67.6654C65.8745 67.8885 65.625 68 65.3484 68H53.0823ZM65.3484 57.3309V55.7323H63.7971V54.6171H65.3484V53H66.4307V54.6171H68V55.7323H66.4307V57.3309H65.3484ZM59.2063 65.2677C60.0782 65.2677 60.8087 64.9641 61.398 64.3569C61.9872 63.7497 62.2818 62.9969 62.2818 62.0985C62.2818 61.2001 61.9872 60.4504 61.398 59.8494C60.8087 59.2485 60.0782 58.948 59.2063 58.948C58.3345 58.948 57.6069 59.2485 57.0237 59.8494C56.4404 60.4504 56.1488 61.2001 56.1488 62.0985C56.1488 62.9969 56.4404 63.7497 57.0237 64.3569C57.6069 64.9641 58.3345 65.2677 59.2063 65.2677ZM59.2063 64.1524C58.6351 64.1524 58.1631 63.9572 57.7903 63.5669C57.4175 63.1766 57.2311 62.6871 57.2311 62.0985C57.2311 61.5099 57.4175 61.0235 57.7903 60.6394C58.1631 60.2553 58.6351 60.0632 59.2063 60.0632C59.7775 60.0632 60.2525 60.2553 60.6313 60.6394C61.0101 61.0235 61.1995 61.5099 61.1995 62.0985C61.1995 62.6871 61.0101 63.1766 60.6313 63.5669C60.2525 63.9572 59.7775 64.1524 59.2063 64.1524Z" fill="#0B1644"/>
</svg>
