<svg width="370" height="300" viewBox="0 0 370 300" fill="none" xmlns="http://www.w3.org/2000/svg">
<path opacity="0.24" d="M323.838 273.661C323.322 273.919 322.806 274.177 322.289 274.413C312.34 278.946 301.165 279.934 290.222 279.994C242.334 280.34 194.726 264.764 147.141 270.433C117.675 273.941 85.2836 284.939 60.2003 269.105C48.4439 261.668 40.6411 249.445 34.1067 237.157C25.6724 221.306 18.4736 203.754 20.2802 185.878C20.5051 183.662 20.8719 181.462 21.3784 179.292C25.5516 160.692 38.7906 144.791 52.716 131.367C68.2557 116.35 85.6625 102.492 96.0241 83.5676C104.261 68.6115 107.912 50.8015 119.779 38.5348C153.153 3.95742 229.798 24.4678 264.836 45.8619C287.509 59.7202 305.866 81.9321 311.219 107.947C314.514 124.04 312.867 140.988 317.578 156.74C324.996 181.679 347.581 201.251 349.838 227.157C351.469 245.922 340.635 265.153 323.838 273.661Z" fill="#876FD1"/>
<path opacity="0.24" d="M323.838 273.661C323.322 273.919 322.806 274.177 322.289 274.413C312.34 278.946 301.165 279.934 290.222 279.994C242.334 280.34 194.726 264.764 147.141 270.433C117.675 273.941 85.2836 284.939 60.2003 269.105C48.4439 261.668 40.6411 249.446 34.1067 237.157C25.6724 221.306 18.4736 203.754 20.2802 185.878C20.5051 183.662 20.8719 181.462 21.3784 179.292C22.0633 179.02 22.7637 178.789 23.476 178.6C39.2299 174.265 58.7891 179.204 69.2332 191.899C75.9817 200.132 79.1665 210.609 83.5484 220.324C87.9303 230.038 94.4482 239.764 104.502 243.244C120.976 248.935 138.981 235.724 155.915 239.676C165.547 241.954 173.091 249.413 182.355 252.892C209.327 263.051 240.901 237.25 267.121 249.259C270.13 250.637 272.947 252.503 276.109 253.425C280.085 254.61 284.297 254.264 288.442 254.182C295.055 254.032 301.666 254.541 308.177 255.702C311.571 256.328 315.096 257.206 317.545 259.616C319.308 261.334 320.318 263.677 321.202 265.971C322.191 268.48 323.075 271.059 323.838 273.661Z" fill="#876FD1"/>
<path d="M286.696 184.638C286.29 172.64 288.893 160.768 291.611 149.078C303.104 159.303 314.827 169.819 322.191 183.293C324.936 188.315 327.034 193.721 330.317 198.386C334.353 204.138 340.02 208.606 343.897 214.462C351.304 225.648 350.81 241.487 342.716 252.19C341.983 253.31 340.966 254.215 339.768 254.813C338.23 255.455 336.473 255.148 334.859 254.747C320.664 251.224 308.606 240.593 302.807 227.245C296.536 212.816 287.256 201.24 286.696 184.638Z" fill="#876FD1"/>
<path d="M286.696 184.638C286.29 172.64 288.893 160.768 291.611 149.078C303.104 159.303 314.827 169.819 322.191 183.293C324.936 188.315 327.034 193.721 330.317 198.386C334.353 204.138 340.02 208.606 343.897 214.462C351.304 225.648 350.81 241.487 342.716 252.19C341.983 253.31 340.966 254.215 339.768 254.813C338.23 255.455 336.473 255.148 334.859 254.747C320.664 251.224 308.606 240.593 302.807 227.245C296.536 212.816 287.256 201.24 286.696 184.638Z" fill="url(#paint0_linear_386_2860)"/>
<path d="M125.181 229.945C127.85 238.941 133.044 247.332 133.577 256.696C133.819 260.971 131.545 268.902 130.793 273.112C139.112 274.434 149.144 270.818 157.48 269.621C158.737 269.44 160.055 269.204 161.043 268.408C162.032 267.612 162.526 266.432 162.987 265.274C169.659 248.437 172.491 230.325 171.279 212.256C171.087 209.473 170.79 206.652 169.769 204.056C169.573 203.411 169.191 202.838 168.671 202.409C167.998 202.048 167.234 201.895 166.474 201.97L145.701 202.086C139.387 202.118 129.42 201.954 124.703 207.096C120.382 211.756 123.55 224.451 125.181 229.945Z" fill="#D7D2E6"/>
<path d="M125.181 229.945C127.85 238.941 133.044 247.332 133.577 256.696C133.819 260.971 131.545 268.902 130.793 273.112C139.112 274.434 149.144 270.818 157.48 269.621C158.737 269.44 160.055 269.204 161.043 268.408C162.032 267.612 162.526 266.432 162.987 265.274C169.659 248.437 172.491 230.325 171.279 212.256C171.087 209.473 170.79 206.652 169.769 204.056C169.573 203.411 169.191 202.838 168.671 202.409C167.998 202.048 167.234 201.895 166.474 201.97L145.701 202.086C139.387 202.118 129.42 201.954 124.703 207.096C120.382 211.756 123.55 224.451 125.181 229.945Z" fill="#0B1644"/>
<path d="M187.5 225.702C186.81 239.076 186.993 252.479 188.049 265.829C188.169 266.502 188.093 267.195 187.829 267.826C187.247 268.924 185.787 269.089 184.535 269.127C177.14 269.332 169.744 269.246 162.345 268.869C161.602 268.951 160.854 268.755 160.246 268.319C159.638 267.884 159.212 267.239 159.051 266.509C157.156 262.245 155.542 257.794 152.796 254.017C149.425 249.369 144.56 246.037 140.82 241.674C135.406 235.335 132.649 227.113 131.315 218.891C130.964 216.734 130.766 214.286 132.15 212.591C133.374 211.081 135.444 210.648 137.333 210.154C143.923 208.419 149.842 204.852 155.663 201.323C160.33 198.491 165.047 195.648 169.209 192.091C172.603 189.193 175.996 183.919 181.185 185.878C184.397 187.091 184.507 189.813 184.48 192.87C184.48 197.261 184.26 201.059 185.512 205.324C187.599 212.256 187.868 218.507 187.5 225.702Z" fill="#D7D2E6"/>
<path d="M187.5 225.702C186.81 239.076 186.993 252.479 188.049 265.829C188.169 266.502 188.093 267.195 187.829 267.826C187.247 268.924 185.787 269.089 184.535 269.127C177.14 269.332 169.744 269.246 162.345 268.869C161.602 268.951 160.854 268.755 160.246 268.319C159.638 267.884 159.212 267.239 159.051 266.509C157.156 262.245 155.542 257.794 152.796 254.017C149.425 249.369 144.56 246.037 140.82 241.674C135.406 235.335 132.649 227.113 131.315 218.891C130.964 216.734 130.766 214.286 132.15 212.591C133.374 211.081 135.444 210.648 137.333 210.154C143.923 208.419 149.842 204.852 155.663 201.323C160.33 198.491 165.047 195.648 169.209 192.091C172.603 189.193 175.996 183.919 181.185 185.878C184.397 187.091 184.507 189.813 184.48 192.87C184.48 197.261 184.26 201.059 185.512 205.324C187.599 212.256 187.868 218.507 187.5 225.702Z" fill="#0B1644"/>
<path d="M175.962 69.6105C177.271 69.608 178.549 70.017 179.613 70.7795C180.18 71.2525 180.649 71.8325 180.991 72.4864C182.902 75.9606 182.194 80.3953 184.006 83.9244C184.489 84.8574 185.159 85.8124 184.994 86.8497C184.852 87.7773 184.083 88.4634 183.671 89.3031C182.913 90.8508 183.435 92.7169 183.018 94.3854C182.755 95.3013 182.312 96.1558 181.716 96.8991C180.908 98.0754 179.848 99.0577 178.614 99.7751C177.994 100.13 177.31 100.355 176.601 100.437C175.892 100.519 175.174 100.456 174.49 100.253C172.996 99.7476 171.92 98.4688 170.954 97.2229C169.968 96.0497 169.153 94.7434 168.532 93.3426C167.577 90.9496 167.686 88.2822 167.818 85.7081C168.082 80.4008 168.389 69.2537 175.962 69.6105Z" fill="#FFD9D7"/>
<path d="M185.368 68.5621C185.239 68.6983 185.091 68.8148 184.929 68.9079C184.705 68.9952 184.465 69.0327 184.226 69.0176C182.913 69.0248 181.602 69.1312 180.305 69.336C180.084 69.3502 179.871 69.4263 179.69 69.5555C179.515 69.7559 179.411 70.0087 179.394 70.2745C179.007 72.6597 178.896 75.0814 179.064 77.4918C179.119 78.2602 179.251 79.1384 179.882 79.5775C180.393 79.8587 180.978 79.9739 181.557 79.9068L183.572 79.8683C183.741 79.8511 183.911 79.8835 184.061 79.9617C184.27 80.0934 184.314 80.3733 184.374 80.6148C184.72 82.1076 186.098 83.1779 187.553 83.6609C189.009 84.1439 190.574 84.1603 192.1 84.303C196.921 84.7641 201.539 86.5368 206.377 86.9924C206.756 87.0766 207.151 87.066 207.525 86.9617C207.9 86.8574 208.243 86.6624 208.524 86.3941L211.473 84.0725C211.736 83.8325 212.044 83.6461 212.379 83.5237C212.659 83.4552 212.948 83.433 213.235 83.4578C216.332 83.584 219.753 84.1054 222.252 82.2778C223.514 81.2579 224.457 79.898 224.97 78.359C225.632 76.7499 225.934 75.015 225.854 73.2767C225.67 70.8961 224.555 68.6836 222.751 67.1186C222.484 66.8706 222.176 66.6718 221.84 66.5314C221.443 66.4098 221.029 66.356 220.615 66.3722L210.391 66.1746C205.416 66.0813 200.441 65.988 195.466 66.0649C193.656 66.0445 191.853 66.2866 190.112 66.7838C188.405 67.2998 186.752 67.2559 185.368 68.5621Z" fill="#D7D2E6"/>
<path d="M185.368 68.5621C185.239 68.6983 185.091 68.8148 184.929 68.9079C184.705 68.9952 184.465 69.0327 184.226 69.0176C182.913 69.0248 181.602 69.1312 180.305 69.336C180.084 69.3502 179.871 69.4263 179.69 69.5555C179.515 69.7559 179.411 70.0087 179.394 70.2745C179.007 72.6597 178.896 75.0814 179.064 77.4918C179.119 78.2602 179.251 79.1384 179.882 79.5775C180.393 79.8587 180.978 79.9739 181.557 79.9068L183.572 79.8683C183.741 79.8511 183.911 79.8835 184.061 79.9617C184.27 80.0934 184.314 80.3733 184.374 80.6148C184.72 82.1076 186.098 83.1779 187.553 83.6609C189.009 84.1439 190.574 84.1603 192.1 84.303C196.921 84.7641 201.539 86.5368 206.377 86.9924C206.756 87.0766 207.151 87.066 207.525 86.9617C207.9 86.8574 208.243 86.6624 208.524 86.3941L211.473 84.0725C211.736 83.8325 212.044 83.6461 212.379 83.5237C212.659 83.4552 212.948 83.433 213.235 83.4578C216.332 83.584 219.753 84.1054 222.252 82.2778C223.514 81.2579 224.457 79.898 224.97 78.359C225.632 76.7499 225.934 75.015 225.854 73.2767C225.67 70.8961 224.555 68.6836 222.751 67.1186C222.484 66.8706 222.176 66.6718 221.84 66.5314C221.443 66.4098 221.029 66.356 220.615 66.3722L210.391 66.1746C205.416 66.0813 200.441 65.988 195.466 66.0649C193.656 66.0445 191.853 66.2866 190.112 66.7838C188.405 67.2998 186.752 67.2559 185.368 68.5621Z" fill="#0B1644"/>
<path d="M178.323 62.9311C180.783 68.2604 180.047 74.4568 179.674 80.2911C179.085 89.4803 179.521 98.7066 180.975 107.799C177.982 105.231 174.204 103.716 170.35 102.86C166.495 102.003 162.541 101.817 158.599 101.619C157.759 101.532 156.911 101.574 156.084 101.745C153.92 102.294 152.597 104.49 151.872 106.614C151.147 108.738 150.774 111.005 149.462 112.843L150.56 102.871C150.729 102.049 150.653 101.196 150.34 100.417C149.985 99.8292 149.456 99.3667 148.825 99.0946C147.756 98.5823 146.573 98.3565 145.391 98.4393C144.209 98.522 143.068 98.9105 142.082 99.5666C141.318 95.9387 144.064 92.5907 144.948 88.9903C145.58 86.4272 145.25 83.7323 145.074 81.0979C144.778 77.055 144.898 72.9924 145.431 68.9739C145.761 66.5644 146.271 64.1385 147.474 62.031C149.434 58.5952 153.025 56.3778 156.743 55.0222C160.784 53.5513 165.732 53.0902 169.021 55.8564C169.828 56.537 170.602 57.5633 171.679 57.8048C172.618 58.0134 173.326 57.8048 174.259 58.3153C176.093 59.2922 177.439 61.0815 178.323 62.9311Z" fill="#D7D2E6"/>
<path d="M178.323 62.9311C180.783 68.2604 180.047 74.4568 179.674 80.2911C179.085 89.4803 179.521 98.7066 180.975 107.799C177.982 105.231 174.204 103.716 170.35 102.86C166.495 102.003 162.541 101.817 158.599 101.619C157.759 101.532 156.911 101.574 156.084 101.745C153.92 102.294 152.597 104.49 151.872 106.614C151.147 108.738 150.774 111.005 149.462 112.843L150.56 102.871C150.729 102.049 150.653 101.196 150.34 100.417C149.985 99.8292 149.456 99.3667 148.825 99.0946C147.756 98.5823 146.573 98.3565 145.391 98.4393C144.209 98.522 143.068 98.9105 142.082 99.5666C141.318 95.9387 144.064 92.5907 144.948 88.9903C145.58 86.4272 145.25 83.7323 145.074 81.0979C144.778 77.055 144.898 72.9924 145.431 68.9739C145.761 66.5644 146.271 64.1385 147.474 62.031C149.434 58.5952 153.025 56.3778 156.743 55.0222C160.784 53.5513 165.732 53.0902 169.021 55.8564C169.828 56.537 170.602 57.5633 171.679 57.8048C172.618 58.0134 173.326 57.8048 174.259 58.3153C176.093 59.2922 177.439 61.0815 178.323 62.9311Z" fill="#0B1644"/>
<path d="M160.132 49.9068L154.926 45.8289C154.639 45.5264 154.267 45.3179 153.86 45.2307C153.452 45.1435 153.027 45.1818 152.642 45.3404C147.414 46.6631 142.335 48.9518 138.425 52.662C132.934 57.8816 130.238 65.3898 128.454 72.7608C128.168 73.9518 127.904 75.2361 128.349 76.3722C128.742 77.1793 129.304 77.8925 129.997 78.4633L134.252 82.5467C134.575 82.8036 134.815 83.1488 134.944 83.5401C134.991 83.9922 134.878 84.4464 134.626 84.8244C133.824 86.3228 132.72 87.64 131.88 89.1054C131.04 90.5709 130.397 92.2887 130.699 93.9627C130.905 94.9796 131.43 95.9042 132.199 96.6013C132.967 97.2985 133.939 97.7317 134.971 97.8376C136.443 97.9583 137.876 97.3875 139.227 96.7838C149.091 92.334 157.665 85.4589 164.151 76.8003C167.632 72.1351 170.46 67.0089 173.123 61.8278C174.666 58.8201 176.171 55.7575 177.039 52.4974C177.674 50.4169 177.795 48.2132 177.39 46.0759C177.328 45.6911 177.158 45.3316 176.901 45.0386C176.532 44.7457 176.077 44.5819 175.605 44.572C173.498 44.3434 171.365 44.5787 169.358 45.2614C167.351 45.9441 165.517 47.0576 163.986 48.5237C163.38 49.2168 162.568 49.6976 161.669 49.8958C161.224 49.9891 160.489 50.1703 160.132 49.9068Z" fill="#876FD1"/>
<path d="M159.225 49.0012L154.02 44.9233C153.72 44.6512 153.364 44.4488 152.976 44.3305C152.559 44.2667 152.132 44.3025 151.73 44.4348C146.508 45.752 141.423 48.0407 137.519 51.7509C132.028 56.976 129.332 64.4842 127.547 71.8552C127.262 73.0462 126.998 74.325 127.443 75.4666C127.834 76.2733 128.396 76.9851 129.09 77.5522L133.346 81.6356C133.67 81.8904 133.911 82.2364 134.038 82.629C134.09 83.0807 133.979 83.5361 133.725 83.9133C132.923 85.4117 131.819 86.7344 130.979 88.1998C130.139 89.6652 129.497 91.3777 129.799 93.0516C130.004 94.0683 130.528 94.9931 131.295 95.691C132.063 96.389 133.033 96.8238 134.065 96.932C135.542 97.0527 136.975 96.4819 138.326 95.8782C148.189 91.4299 156.763 84.5544 163.245 75.8947C166.732 71.224 169.56 66.1033 172.223 60.9222C173.766 57.9145 175.27 54.8519 176.132 51.5918C176.768 49.5132 176.889 47.3113 176.484 45.1758C176.424 44.7914 176.256 44.4318 176.001 44.1384C175.629 43.845 175.173 43.6794 174.699 43.6664C172.596 43.4502 170.471 43.6936 168.471 44.3797C166.472 45.0658 164.645 46.1783 163.119 47.6401C162.499 48.3408 161.668 48.8206 160.752 49.0067C160.313 49.0726 159.577 49.2811 159.225 49.0012Z" fill="url(#paint1_linear_386_2860)"/>
<path d="M130.129 122.657C129.844 140.939 129.448 159.292 126.593 177.349C125.396 184.94 123.765 192.689 125.22 200.231C125.408 202.163 126.147 204.001 127.35 205.525C128.554 207.049 130.17 208.194 132.007 208.825C135.024 210.11 138.176 211.053 141.402 211.636C145.96 212.558 150.688 213.15 155.24 212.184C164.69 210.198 171.62 201.877 175.491 193.035C176.304 191.18 177.764 188.88 179.708 189.457C182.086 190.159 181.69 194.303 184.002 195.203C186.303 189.577 183.113 183.326 182.805 177.256C182.459 170.461 185.765 164.083 188.637 157.914C191.509 151.745 194.084 144.819 192.228 138.271C191.421 135.412 189.812 132.849 188.851 130.039C187.473 126.032 187.451 121.68 186.292 117.602C184.052 109.687 177.556 103.398 169.983 100.17C162.768 97.0913 151.237 95.0221 143.5 97.5413C131.914 101.334 130.299 111.883 130.129 122.657Z" fill="#876FD1"/>
<path d="M130.129 122.657C129.844 140.939 129.448 159.292 126.593 177.349C125.396 184.94 123.765 192.689 125.22 200.231C125.408 202.163 126.147 204.001 127.35 205.525C128.554 207.049 130.17 208.194 132.007 208.825C135.024 210.11 138.176 211.053 141.402 211.636C145.96 212.558 150.688 213.15 155.24 212.184C164.69 210.198 171.62 201.877 175.491 193.035C176.304 191.18 177.764 188.88 179.708 189.457C182.086 190.159 181.69 194.303 184.002 195.203C186.303 189.577 183.113 183.326 182.805 177.256C182.459 170.461 185.765 164.083 188.637 157.914C191.509 151.745 194.084 144.819 192.228 138.271C191.421 135.412 189.812 132.849 188.851 130.039C187.473 126.032 187.451 121.68 186.292 117.602C184.052 109.687 177.556 103.398 169.983 100.17C162.768 97.0913 151.237 95.0221 143.5 97.5413C131.914 101.334 130.299 111.883 130.129 122.657Z" fill="url(#paint2_linear_386_2860)"/>
<path d="M168.44 101.114C165.47 100.609 162.06 100.357 159.814 102.366C158.842 103.315 158.128 104.495 157.738 105.796C156.053 110.62 156.739 116.114 159.117 120.615C161.494 125.115 165.464 128.721 169.989 131.103C176.263 134.446 183.545 135.377 190.46 133.721C195.522 132.442 200.157 129.715 205.286 128.666C212.007 127.283 219.595 128.765 225.328 124.989C225.95 124.614 226.49 124.118 226.915 123.529C227.342 122.84 227.596 122.059 227.656 121.251C228.117 117.042 225.641 113.019 222.714 109.995C221.958 109.122 221.021 108.423 219.969 107.947C219.012 107.63 218.005 107.489 216.998 107.53C211.123 107.475 205.269 108.26 199.394 108.266C195.182 108.266 190.91 107.865 186.912 106.498C185.265 105.95 183.81 105.093 182.217 104.495C180.216 103.793 178.177 103.199 176.111 102.717C173.56 102.08 171.003 101.546 168.44 101.114Z" fill="#876FD1"/>
<path d="M168.44 101.114C165.47 100.609 162.06 100.357 159.814 102.366C158.842 103.315 158.128 104.495 157.738 105.796C156.053 110.62 156.739 116.114 159.117 120.615C161.494 125.115 165.464 128.721 169.989 131.103C176.263 134.446 183.545 135.377 190.46 133.721C195.522 132.442 200.157 129.715 205.286 128.666C212.007 127.283 219.595 128.765 225.328 124.989C225.95 124.614 226.49 124.118 226.915 123.529C227.342 122.84 227.596 122.059 227.656 121.251C228.117 117.042 225.641 113.019 222.714 109.995C221.958 109.122 221.021 108.423 219.969 107.947C219.012 107.63 218.005 107.489 216.998 107.53C211.123 107.475 205.269 108.26 199.394 108.266C195.182 108.266 190.91 107.865 186.912 106.498C185.265 105.95 183.81 105.093 182.217 104.495C180.216 103.793 178.177 103.199 176.111 102.717C173.56 102.08 171.003 101.546 168.44 101.114Z" fill="url(#paint3_linear_386_2860)"/>
<path d="M193.298 82.6181C193.25 82.8615 193.289 83.114 193.408 83.3316C193.57 83.5225 193.797 83.6474 194.045 83.6829C195.692 84.078 197.378 83.3755 199.036 83.0078C201.535 82.4589 204.132 82.673 206.68 82.887C206.919 82.8742 207.155 82.9396 207.353 83.0733C207.552 83.2071 207.701 83.4018 207.778 83.628C210.677 88.6664 213.648 93.9518 213.945 99.7586C213.937 101.065 214.012 102.37 214.17 103.666C214.906 107.711 218.392 110.554 221.067 113.672C222.368 115.192 223.532 116.855 225.097 118.112C226.662 119.369 228.754 120.165 230.67 119.599C232.817 118.974 234.201 116.773 234.542 114.566C234.882 112.36 234.382 110.115 233.883 107.936C232.867 103.474 231.835 98.9683 229.869 94.8354C227.063 88.9353 222.511 84.0835 218.76 78.7433C216.172 75.0617 213.956 71.1329 212.144 67.0144C211.748 66.1088 211.331 65.1483 210.496 64.5885C208.684 63.3426 206.175 64.7806 204.028 64.2921C202.54 63.9518 201.425 62.7334 200.063 62.0419C198.701 61.3503 196.576 61.5424 196.219 63.0188C194.287 62.8421 192.352 63.3237 190.728 64.3854C190.509 64.5281 190.273 64.7312 190.284 64.9892C190.295 65.2471 190.514 65.4008 190.712 65.538C193.891 67.8102 197.46 71.2186 198.976 74.9068C200.524 78.7103 193.759 78.7487 193.298 82.6181Z" fill="#FFD9D7"/>
<path d="M141.765 89.8849C146.345 87.1407 150.99 84.3086 154.598 80.3624C158.206 76.4162 160.6 71.4985 162.45 66.4766C163.79 62.8542 164.877 59.0781 164.888 55.2197C164.888 54.1605 164.954 54.7423 164.531 53.7708C163.592 51.5754 160.265 49.4349 158.101 48.4744C159.941 52.0474 159.172 55.7357 157.316 59.3032C154.713 64.2757 151.633 69.0397 147.575 72.92C145.927 74.5117 134.945 83.0792 134.945 83.0792C134.945 83.5402 139.536 88.0408 141.765 89.8849Z" fill="#D7D2E6"/>
<path d="M141.765 89.8849C146.345 87.1407 150.99 84.3086 154.598 80.3624C158.206 76.4162 160.6 71.4985 162.45 66.4766C163.79 62.8542 164.877 59.0781 164.888 55.2197C164.888 54.1605 164.954 54.7423 164.531 53.7708C163.592 51.5754 160.265 49.4349 158.101 48.4744C159.941 52.0474 159.172 55.7357 157.316 59.3032C154.713 64.2757 151.633 69.0397 147.575 72.92C145.927 74.5117 134.945 83.0792 134.945 83.0792C134.945 83.5402 139.536 88.0408 141.765 89.8849Z" fill="#0B1644"/>
<path d="M149.375 54.1275C145.663 62.9529 140.073 71.5149 131.579 75.9386C130.755 76.3667 129.789 76.7564 128.932 76.3997C128.528 76.1911 128.194 75.8678 127.974 75.4704C127.753 75.0729 127.654 74.619 127.691 74.1659C127.78 73.2602 128.049 72.3813 128.482 71.5808L131.776 64.3744C133.66 60.2746 135.576 56.1418 138.514 52.695C140.831 49.9892 143.901 47.7554 147.399 46.8608C149.046 46.4491 150.325 46.01 150.732 47.8871C151.182 49.8904 150.133 52.3273 149.375 54.1275Z" fill="#0B1644"/>
<path d="M140.436 116.68C140.069 117.106 139.848 117.639 139.804 118.2C139.804 118.957 140.414 119.555 140.941 120.104C147.086 126.564 147.036 136.498 147.53 145.401C148.03 154.819 149.524 164.155 151.012 173.469C151.446 176.174 151.923 178.996 153.554 181.202C156.624 185.368 162.603 185.955 166.815 188.968C167.985 189.802 169.077 190.933 169.324 192.354C169.572 193.776 168.891 195.302 168.226 196.646L161.192 210.664C160.336 212.584 159.228 214.382 157.898 216.01C156.481 217.492 154.852 218.757 153.065 219.764C143.802 225.455 133.127 229.424 122.266 228.924C111.405 228.425 100.422 222.887 95.2828 213.293C91.5983 206.432 91.1645 198.304 91.5763 190.527C91.9882 182.75 93.1688 174.962 92.389 167.212C91.9607 162.958 90.9394 158.732 91.1261 154.457C91.3732 148.584 93.8716 143.068 96.3096 137.717C97.8417 134.374 99.3956 130.993 101.718 128.145C104.305 124.978 107.813 122.497 109.664 118.853C110.273 117.651 110.762 116.251 111.965 115.626C112.751 115.294 113.608 115.162 114.458 115.242C118.735 115.302 123.573 115.187 126.472 112.042C128.669 109.632 129.102 106.125 130.272 103.063C131.442 100 134.33 96.9265 137.498 97.7772C136.454 102.573 136.055 107.486 136.312 112.388C141.452 108.765 145.504 103.76 150.71 100.231C154.098 97.9309 158.996 95.8069 163.202 96.5423C169.066 97.5687 165.629 100.489 162.186 101.839C153.938 105.055 145.609 109.27 140.436 116.68Z" fill="#876FD1"/>
<path d="M140.436 116.68C140.069 117.106 139.848 117.639 139.804 118.2C139.804 118.957 140.414 119.555 140.941 120.104C147.086 126.564 147.036 136.498 147.53 145.401C148.03 154.819 149.524 164.155 151.012 173.469C151.446 176.174 151.923 178.996 153.554 181.202C156.624 185.368 162.603 185.955 166.815 188.968C167.985 189.802 169.077 190.933 169.324 192.354C169.572 193.776 168.891 195.302 168.226 196.646L161.192 210.664C160.336 212.584 159.228 214.382 157.898 216.01C156.481 217.492 154.852 218.757 153.065 219.764C143.802 225.455 133.127 229.424 122.266 228.924C111.405 228.425 100.422 222.887 95.2828 213.293C91.5983 206.432 91.1645 198.304 91.5763 190.527C91.9882 182.75 93.1688 174.962 92.389 167.212C91.9607 162.958 90.9394 158.732 91.1261 154.457C91.3732 148.584 93.8716 143.068 96.3096 137.717C97.8417 134.374 99.3956 130.993 101.718 128.145C104.305 124.978 107.813 122.497 109.664 118.853C110.273 117.651 110.762 116.251 111.965 115.626C112.751 115.294 113.608 115.162 114.458 115.242C118.735 115.302 123.573 115.187 126.472 112.042C128.669 109.632 129.102 106.125 130.272 103.063C131.442 100 134.33 96.9265 137.498 97.7772C136.454 102.573 136.055 107.486 136.312 112.388C141.452 108.765 145.504 103.76 150.71 100.231C154.098 97.9309 158.996 95.8069 163.202 96.5423C169.066 97.5687 165.629 100.489 162.186 101.839C153.938 105.055 145.609 109.27 140.436 116.68Z" fill="url(#paint4_linear_386_2860)"/>
<path d="M126.818 148.672C127.405 144.698 128.613 140.856 129.821 137.025L133.275 126.048C133.561 125.143 133.918 124.149 134.769 123.727C136.015 123.101 137.46 124.089 138.399 125.121C145.18 132.53 144.988 143.677 145.817 153.661C146.756 165.148 150.1 177.371 159.204 184.446C162.955 187.365 168.056 190.159 168.034 194.912C168.034 197.223 166.705 199.303 165.431 201.229L159.347 210.45C156.107 215.362 152.159 220.741 146.322 221.504C144.567 221.803 142.763 221.409 141.292 220.406C139.535 219.072 138.86 216.784 138.283 214.654C132.616 193.71 124.056 170.724 126.818 148.672Z" fill="url(#paint5_linear_386_2860)"/>
<path d="M128.404 215.033C128.726 215.849 129.223 216.585 129.859 217.19C131.347 218.419 133.56 218.046 135.399 217.464C138.792 216.301 142.095 214.892 145.283 213.249C147.542 212.224 149.713 211.014 151.774 209.632C152.687 209.036 153.468 208.259 154.069 207.349C154.364 206.892 154.549 206.372 154.608 205.83C154.667 205.289 154.599 204.742 154.409 204.232C154.148 203.717 153.813 203.244 153.415 202.827C150.036 198.856 147.577 194.187 146.217 189.155C145.558 186.712 145.162 184.188 144.141 181.877C144.032 181.575 143.842 181.309 143.592 181.109C143.369 180.997 143.125 180.932 142.876 180.918C142.626 180.904 142.377 180.941 142.142 181.026C138.029 181.921 133.818 182.865 130.298 185.165C128.283 186.579 126.405 188.178 124.686 189.94C123.5 191.081 122.292 192.206 122.254 193.946C122.16 198.277 123.934 203.277 125.296 207.322C126.178 209.951 127.215 212.526 128.404 215.033Z" fill="#876FD1"/>
<path d="M129.21 214.325C129.532 215.143 130.029 215.881 130.665 216.487C132.153 217.717 134.366 217.343 136.206 216.756C139.598 215.592 142.901 214.183 146.09 212.541C148.349 211.516 150.52 210.306 152.58 208.924C153.493 208.33 154.274 207.555 154.875 206.646C155.171 206.189 155.355 205.669 155.414 205.128C155.473 204.587 155.406 204.039 155.216 203.529C154.956 203.012 154.621 202.537 154.222 202.118C150.841 198.149 148.383 193.48 147.023 188.447C146.364 186.01 145.963 183.48 144.948 181.169C144.839 180.867 144.649 180.601 144.399 180.401C144.174 180.292 143.931 180.228 143.682 180.214C143.433 180.2 143.184 180.235 142.949 180.318C138.836 181.218 134.624 182.157 131.105 184.462C129.089 185.875 127.21 187.474 125.493 189.237C124.307 190.373 123.099 191.504 123.06 193.238C122.967 197.569 124.74 202.569 126.102 206.614C126.983 209.244 128.021 211.819 129.21 214.325Z" fill="url(#paint6_linear_386_2860)"/>
<path d="M126.96 131.164C125.994 134.314 125.395 137.651 123.605 140.417C122.227 142.541 120.234 144.177 118.345 145.862C114.785 149.036 111.498 152.502 108.516 156.224C107.621 157.322 106.72 158.513 105.49 159.259C104.301 159.9 102.993 160.29 101.647 160.406C98.3411 160.863 94.9876 160.85 91.6857 160.368C90.6918 160.225 89.6266 159.994 88.9402 159.27C88.4302 158.589 88.1219 157.779 88.0506 156.932C86.8543 149.353 87.4901 141.597 89.9051 134.314C92.32 127.031 96.4439 120.431 101.932 115.066C102.991 113.953 104.25 113.05 105.644 112.404C107.003 111.929 108.427 111.667 109.867 111.625C116.363 111.114 123.205 110.659 129.085 113.441C130.283 113.99 133.171 115.198 133.753 116.465C134.461 118.002 132.852 119.325 132.029 120.538C129.82 123.808 128.111 127.389 126.96 131.164Z" fill="#876FD1"/>
<path d="M126.96 131.164C125.994 134.314 125.395 137.651 123.605 140.417C122.227 142.541 120.234 144.177 118.345 145.862C114.785 149.036 111.498 152.502 108.516 156.224C107.621 157.322 106.72 158.513 105.49 159.259C104.301 159.9 102.993 160.29 101.647 160.406C98.3411 160.863 94.9876 160.85 91.6857 160.368C90.6918 160.225 89.6266 159.994 88.9402 159.27C88.4302 158.589 88.1219 157.779 88.0506 156.932C86.8543 149.353 87.4901 141.597 89.9051 134.314C92.32 127.031 96.4439 120.431 101.932 115.066C102.991 113.953 104.25 113.05 105.644 112.404C107.003 111.929 108.427 111.667 109.867 111.625C116.363 111.114 123.205 110.659 129.085 113.441C130.283 113.99 133.171 115.198 133.753 116.465C134.461 118.002 132.852 119.325 132.029 120.538C129.82 123.808 128.111 127.389 126.96 131.164Z" fill="url(#paint7_linear_386_2860)"/>
<path d="M129.119 172.217C124.912 173.738 121.107 176.174 117.346 178.584C116.511 179.133 115.633 179.682 115.221 180.609C114.518 182.162 115.44 183.902 116.22 185.428C118.222 189.347 119.347 193.655 119.515 198.052C122.546 197.124 125.709 199.517 128.85 199.149C130.19 198.901 131.472 198.402 132.627 197.678L142.478 192.322C143.351 191.952 144.138 191.408 144.791 190.721C145.444 190.035 145.948 189.221 146.273 188.331C147.272 186.29 148.293 184.061 147.827 181.839C147.584 180.923 147.214 180.045 146.729 179.232C145.685 177.239 142.544 168.518 140.375 168.211C139.327 168.057 136.186 170.011 135.054 170.373C133.094 171.015 131.101 171.509 129.119 172.217Z" fill="#876FD1"/>
<path d="M128.409 172.519C124.203 174.045 120.403 176.476 116.636 178.891C115.801 179.44 114.923 179.989 114.511 180.911C113.808 182.464 114.736 184.204 115.51 185.73C117.515 189.648 118.639 193.956 118.805 198.353C121.842 197.426 124.999 199.824 128.14 199.451C129.481 199.204 130.763 198.705 131.918 197.98L141.758 192.629C142.629 192.258 143.414 191.713 144.066 191.027C144.718 190.34 145.222 189.528 145.547 188.639C146.546 186.597 147.567 184.369 147.106 182.146C146.861 181.231 146.491 180.354 146.008 179.539C144.964 177.552 141.818 168.826 139.649 168.518C138.6 168.37 135.459 170.318 134.328 170.681C132.384 171.317 130.364 171.811 128.409 172.519Z" fill="url(#paint8_linear_386_2860)"/>
<path d="M119.673 207.601C120.647 210.403 121.347 213.293 121.765 216.229C121.908 217.497 121.913 218.897 121.155 219.923C120.398 220.949 119.036 221.355 117.762 221.355C116.489 221.276 115.223 221.109 113.973 220.856C111.167 220.488 108.251 220.949 105.544 220.126C104.637 219.832 103.756 219.465 102.909 219.028L95.6494 215.521C95.3243 215.383 95.021 215.198 94.7489 214.972C94.4263 214.646 94.1757 214.255 94.0131 213.825C92.4067 210.171 91.9917 206.104 92.827 202.201C93.6232 198.507 95.5176 195.104 96.1711 191.383C96.5445 189.237 96.528 186.948 97.6097 185.066C97.8776 184.551 98.2823 184.12 98.7793 183.82C99.3947 183.553 100.064 183.434 100.734 183.474C102.832 183.441 101.366 180.73 103.48 180.697C104.918 180.697 110.459 180.856 111.65 181.795C112.842 182.733 113.034 187.497 113.528 188.93C114.886 192.859 116.21 196.802 117.498 200.757C118.231 203.044 118.955 205.326 119.673 207.601Z" fill="#876FD1"/>
<path d="M119.673 207.601C120.647 210.403 121.347 213.293 121.765 216.229C121.908 217.497 121.913 218.897 121.155 219.923C120.398 220.949 119.036 221.355 117.762 221.355C116.489 221.276 115.223 221.109 113.973 220.856C111.167 220.488 108.251 220.949 105.544 220.126C104.637 219.832 103.756 219.465 102.909 219.028L95.6494 215.521C95.3243 215.383 95.021 215.198 94.7489 214.972C94.4263 214.646 94.1757 214.255 94.0131 213.825C92.4067 210.171 91.9917 206.104 92.827 202.201C93.6232 198.507 95.5176 195.104 96.1711 191.383C96.5445 189.237 96.528 186.948 97.6097 185.066C97.8776 184.551 98.2823 184.12 98.7793 183.82C99.3947 183.553 100.064 183.434 100.734 183.474C102.832 183.441 101.366 180.73 103.48 180.697C104.918 180.697 110.459 180.856 111.65 181.795C112.842 182.733 113.034 187.497 113.528 188.93C114.886 192.859 116.21 196.802 117.498 200.757C118.231 203.044 118.955 205.326 119.673 207.601Z" fill="url(#paint9_linear_386_2860)"/>
<path d="M215.855 104.676C214.669 105.549 213.621 106.691 212.215 107.146C212.852 109.309 215.592 110.231 216.448 112.311C217.031 113.727 216.613 115.324 216.377 116.833C215.784 120.631 216.405 124.517 217.025 128.288C217.179 129.226 217.431 130.307 218.293 130.714C218.61 130.839 218.947 130.908 219.287 130.917C221.132 131.048 223.082 130.917 224.669 129.995C226.816 128.716 228.018 126.076 230.363 125.22C231.082 124.956 231.944 124.83 232.362 124.188C232.505 123.89 232.586 123.565 232.598 123.235C232.611 122.904 232.554 122.575 232.433 122.267C231.576 118.974 229.907 116.01 228.227 113.079C227.315 111.376 226.237 109.768 225.009 108.277C223.626 106.783 222.076 105.452 220.391 104.309C218.881 103.211 217.349 103.579 215.855 104.676Z" fill="#876FD1"/>
<path d="M215.855 104.676C214.669 105.549 213.621 106.691 212.215 107.146C212.852 109.309 215.592 110.231 216.448 112.311C217.031 113.727 216.613 115.324 216.377 116.833C215.784 120.631 216.405 124.517 217.025 128.288C217.179 129.226 217.431 130.307 218.293 130.714C218.61 130.839 218.947 130.908 219.287 130.917C221.132 131.048 223.082 130.917 224.669 129.995C226.816 128.716 228.018 126.076 230.363 125.22C231.082 124.956 231.944 124.83 232.362 124.188C232.505 123.89 232.586 123.565 232.598 123.235C232.611 122.904 232.554 122.575 232.433 122.267C231.576 118.974 229.907 116.01 228.227 113.079C227.315 111.376 226.237 109.768 225.009 108.277C223.626 106.783 222.076 105.452 220.391 104.309C218.881 103.211 217.349 103.579 215.855 104.676Z" fill="url(#paint10_linear_386_2860)"/>
<path d="M104.583 185.966C104.49 188.677 105.039 191.361 105.434 194.045C106.219 199.33 106.324 205.126 103.337 209.555C103.3 209.65 103.243 209.735 103.169 209.804C103.095 209.874 103.007 209.925 102.91 209.955C102.813 209.986 102.711 209.993 102.611 209.978C102.511 209.963 102.415 209.925 102.332 209.868C97.7522 208.05 93.2476 206.028 88.8182 203.803C88.3189 203.61 87.8849 203.279 87.5662 202.848C87.327 202.35 87.2356 201.794 87.3026 201.246L87.7639 185.779C87.7655 184.793 87.8556 183.808 88.033 182.837C88.3114 181.54 88.874 180.319 89.6803 179.264C90.1207 178.617 90.7356 178.107 91.4539 177.794C92.1226 177.602 92.8234 177.55 93.513 177.64C98.1914 177.914 102.848 178.26 107.537 178.606C108.07 178.616 108.597 178.714 109.097 178.897C110.387 179.446 110.931 180.949 111.337 182.289C110.892 180.834 107.894 181.048 106.845 181.367C105.127 181.893 104.638 184.413 104.583 185.966Z" fill="#876FD1"/>
<path d="M106.896 138.271C104.315 141.883 102.102 145.834 101.004 150.176C99.565 155.801 100.081 161.734 100.191 167.552C100.479 185.547 96.8029 203.386 89.423 219.802C87.8745 223.216 86.0899 226.674 83.1028 228.93C81.9222 227.618 80.7142 226.312 79.5116 225C79.311 224.808 79.144 224.583 79.0174 224.336C78.9241 224.19 78.859 224.028 78.8252 223.858C78.8088 223.318 78.9926 222.79 79.3414 222.376C80.9503 219.972 83.1467 217.986 84.6897 215.549C86.3919 212.837 87.1881 209.66 87.8965 206.548C89.6811 198.749 90.9495 190.84 92.2344 182.947C92.8385 179.21 93.4425 175.472 93.7829 171.69C94.5132 163.721 94.1289 155.664 95.4302 147.777C96.5285 140.928 99.1257 133.902 104.26 129.001C105.94 127.415 108.537 126.169 110.3 127.327C111.045 127.85 111.566 128.634 111.761 129.523C112.744 132.706 108.587 135.95 106.896 138.271Z" fill="#876FD1"/>
<path d="M105.797 136.959C103.2 140.571 100.982 144.522 99.889 148.842C98.4723 154.49 98.9665 160.423 99.0708 166.24C99.3752 184.237 95.6983 202.079 88.3028 218.491C86.7763 221.904 84.9697 225.362 82.0046 227.618C80.9942 226.52 79.9838 225.422 79.0174 224.325C78.9241 224.179 78.859 224.017 78.8252 223.847C78.8088 223.307 78.9926 222.779 79.3414 222.365C80.9503 219.961 83.1467 217.975 84.6897 215.538C86.3919 212.826 87.1881 209.649 87.8965 206.537C89.6811 198.738 90.9495 190.829 92.2344 182.936C92.8385 179.199 93.4425 175.461 93.7829 171.679C94.5132 163.71 94.1289 155.653 95.4302 147.766C96.5285 140.917 99.1257 133.891 104.26 128.99C105.94 127.404 108.537 126.158 110.3 127.316C110.435 127.601 110.551 127.894 110.646 128.194C111.623 131.4 107.456 134.643 105.797 136.959Z" fill="url(#paint11_linear_386_2860)"/>
<path d="M286.618 185.735C284.488 185.735 282.269 185.9 280.325 185.033C278.678 184.308 277.476 182.953 276.18 181.74C271.294 177.212 265.037 174.443 258.4 173.869C253.243 173.436 248.076 174.363 242.898 174.583C232.472 175.024 222.122 172.619 212.961 167.623C213.905 174.78 216.501 181.619 220.545 187.601C224.588 193.582 229.968 198.541 236.26 202.085C239.379 203.809 242.849 205.313 244.82 208.298C248.477 213.891 245.21 222.31 249.46 227.464C251.064 229.407 253.463 230.488 255.396 232.102C260.338 236.257 261.595 243.238 264.489 249.017C270.046 260.104 281.638 266.613 292.571 272.464C296.552 274.599 300.615 276.756 305.063 277.552C309.302 278.309 313.695 277.771 317.846 276.63C334.489 272.069 348.327 254.994 344.675 238.134C341.891 225.291 330.031 216.037 322.376 205.955C313.601 194.374 301.741 185.686 286.618 185.735Z" fill="#876FD1"/>
<path d="M286.618 185.735C284.488 185.735 282.269 185.9 280.325 185.033C278.678 184.308 277.476 182.953 276.18 181.74C271.294 177.212 265.037 174.443 258.4 173.869C253.243 173.436 248.076 174.363 242.898 174.583C232.472 175.024 222.122 172.619 212.961 167.623C213.905 174.78 216.501 181.619 220.545 187.601C224.588 193.582 229.968 198.541 236.26 202.085C239.379 203.809 242.849 205.313 244.82 208.298C248.477 213.891 245.21 222.31 249.46 227.464C251.064 229.407 253.463 230.488 255.396 232.102C260.338 236.257 261.595 243.238 264.489 249.017C270.046 260.104 281.638 266.613 292.571 272.464C296.552 274.599 300.615 276.756 305.063 277.552C309.302 278.309 313.695 277.771 317.846 276.63C334.489 272.069 348.327 254.994 344.675 238.134C341.891 225.291 330.031 216.037 322.376 205.955C313.601 194.374 301.741 185.686 286.618 185.735Z" fill="url(#paint12_linear_386_2860)"/>
<path d="M65.8833 194.879C64.1201 201.647 63.5882 208.676 64.3128 215.631C64.9333 221.586 66.4763 227.585 65.466 233.491C64.6753 238.112 62.3635 242.316 60.0957 246.421L50.1294 264.429C42.2387 252.799 29.6696 237.821 35.4517 223.386C38.1204 216.723 42.8922 210.554 48.1252 205.703C50.5193 203.491 65.5319 196.229 65.8833 194.879Z" fill="#876FD1"/>
<path d="M65.8833 194.879C64.1201 201.647 63.5882 208.676 64.3128 215.631C64.9333 221.586 66.4763 227.585 65.466 233.491C64.6753 238.112 62.3635 242.316 60.0957 246.421L50.1294 264.429C42.2387 252.799 29.6696 237.821 35.4517 223.386C38.1204 216.723 42.8922 210.554 48.1252 205.703C50.5193 203.491 65.5319 196.229 65.8833 194.879Z" fill="url(#paint13_linear_386_2860)"/>
<defs>
<linearGradient id="paint0_linear_386_2860" x1="330.142" y1="159.281" x2="269.678" y2="369.395" gradientUnits="userSpaceOnUse">
<stop stop-color="#0B1644" stop-opacity="0"/>
<stop offset="0.95" stop-color="#0B1644"/>
</linearGradient>
<linearGradient id="paint1_linear_386_2860" x1="127.201" y1="70.2635" x2="176.692" y2="70.2635" gradientUnits="userSpaceOnUse">
<stop stop-color="#FFF7F6" stop-opacity="0"/>
<stop offset="0.95" stop-color="#FFF7F6"/>
</linearGradient>
<linearGradient id="paint2_linear_386_2860" x1="195.544" y1="146.932" x2="10.3683" y2="178.416" gradientUnits="userSpaceOnUse">
<stop stop-color="#0B1644" stop-opacity="0"/>
<stop offset="0.95" stop-color="#0B1644"/>
</linearGradient>
<linearGradient id="paint3_linear_386_2860" x1="191.865" y1="103.101" x2="194.586" y2="198.672" gradientUnits="userSpaceOnUse">
<stop stop-color="#0B1644" stop-opacity="0"/>
<stop offset="0.95" stop-color="#0B1644"/>
</linearGradient>
<linearGradient id="paint4_linear_386_2860" x1="161.143" y1="154.275" x2="29.6325" y2="197.056" gradientUnits="userSpaceOnUse">
<stop stop-color="#0B1644" stop-opacity="0"/>
<stop offset="0.95" stop-color="#0B1644"/>
</linearGradient>
<linearGradient id="paint5_linear_386_2860" x1="71.1054" y1="205.84" x2="334.911" y2="80.7372" gradientUnits="userSpaceOnUse">
<stop stop-color="#0B1644" stop-opacity="0"/>
<stop offset="0.95" stop-color="#0B1644"/>
</linearGradient>
<linearGradient id="paint6_linear_386_2860" x1="123.049" y1="198.76" x2="155.425" y2="198.76" gradientUnits="userSpaceOnUse">
<stop stop-color="#0B1644" stop-opacity="0"/>
<stop offset="0.95" stop-color="#0B1644"/>
</linearGradient>
<linearGradient id="paint7_linear_386_2860" x1="124.863" y1="148.304" x2="67.0902" y2="102.915" gradientUnits="userSpaceOnUse">
<stop stop-color="#0B1644" stop-opacity="0"/>
<stop offset="0.95" stop-color="#0B1644"/>
</linearGradient>
<linearGradient id="paint8_linear_386_2860" x1="123.511" y1="174.424" x2="153.143" y2="218.388" gradientUnits="userSpaceOnUse">
<stop stop-color="#0B1644" stop-opacity="0"/>
<stop offset="0.95" stop-color="#0B1644"/>
</linearGradient>
<linearGradient id="paint9_linear_386_2860" x1="111.486" y1="213.924" x2="87.6007" y2="169.156" gradientUnits="userSpaceOnUse">
<stop stop-color="#0B1644" stop-opacity="0"/>
<stop offset="0.95" stop-color="#0B1644"/>
</linearGradient>
<linearGradient id="paint10_linear_386_2860" x1="212.215" y1="117.305" x2="232.598" y2="117.305" gradientUnits="userSpaceOnUse">
<stop stop-color="#FFF7F6" stop-opacity="0"/>
<stop offset="0.95" stop-color="#FFF7F6"/>
</linearGradient>
<linearGradient id="paint11_linear_386_2860" x1="81.4884" y1="175.236" x2="142.553" y2="184.004" gradientUnits="userSpaceOnUse">
<stop stop-color="#0B1644" stop-opacity="0"/>
<stop offset="0.95" stop-color="#0B1644"/>
</linearGradient>
<linearGradient id="paint12_linear_386_2860" x1="284.916" y1="196.778" x2="178.488" y2="418.206" gradientUnits="userSpaceOnUse">
<stop stop-color="#0B1644" stop-opacity="0"/>
<stop offset="0.95" stop-color="#0B1644"/>
</linearGradient>
<linearGradient id="paint13_linear_386_2860" x1="62.5832" y1="205.302" x2="-33.3607" y2="397.286" gradientUnits="userSpaceOnUse">
<stop stop-color="#0B1644" stop-opacity="0"/>
<stop offset="0.95" stop-color="#0B1644"/>
</linearGradient>
</defs>
</svg>
