<svg width="25" height="24" viewBox="0 0 25 24" fill="none" xmlns="http://www.w3.org/2000/svg">
<path d="M13.0691 18.9035C13.87 18.9035 14.6534 18.7729 15.4192 18.5118C16.185 18.2506 16.8841 17.8729 17.5164 17.3788C16.856 16.9129 16.1499 16.5353 15.3981 16.2459C14.6464 15.9565 13.87 15.8118 13.0691 15.8118C12.2681 15.8118 11.4918 15.9565 10.74 16.2459C9.98829 16.5353 9.2822 16.9129 8.62178 17.3788C9.2541 17.8729 9.95316 18.2506 10.719 18.5118C11.4848 18.7729 12.2681 18.9035 13.0691 18.9035ZM14.8817 11.7247L13.9754 10.8141C14.2143 10.6588 14.3934 10.4612 14.5129 10.2212C14.6323 9.98118 14.692 9.72 14.692 9.43765C14.692 8.98588 14.534 8.60118 14.2178 8.28353C13.9016 7.96588 13.5187 7.80706 13.0691 7.80706C12.7881 7.80706 12.5281 7.86706 12.2892 7.98706C12.0504 8.10706 11.8536 8.28706 11.6991 8.52706L10.7927 7.61647C11.0738 7.26353 11.411 6.99529 11.8044 6.81176C12.1979 6.62824 12.6194 6.53647 13.0691 6.53647C13.87 6.53647 14.5515 6.81882 15.1136 7.38353C15.6756 7.94824 15.9567 8.63294 15.9567 9.43765C15.9567 9.88941 15.8653 10.3129 15.6827 10.7082C15.5 11.1035 15.233 11.4424 14.8817 11.7247ZM19.856 16.7224L18.9918 15.8541C19.3993 15.2329 19.7084 14.5729 19.9192 13.8741C20.13 13.1753 20.2354 12.4518 20.2354 11.7035C20.2354 9.69882 19.5398 7.99765 18.1487 6.6C16.7576 5.20235 15.0644 4.50353 13.0691 4.50353C12.3244 4.50353 11.6042 4.60941 10.9087 4.82118C10.2131 5.03294 9.56323 5.35059 8.95902 5.77412L8.07377 4.88471C8.80445 4.34824 9.59485 3.93882 10.445 3.65647C11.2951 3.37412 12.1698 3.23294 13.0691 3.23294C14.2354 3.23294 15.3314 3.45529 16.3571 3.9C17.3829 4.34471 18.2752 4.94824 19.034 5.71059C19.7927 6.47294 20.3934 7.36941 20.8361 8.4C21.2787 9.43059 21.5 10.5318 21.5 11.7035C21.5 12.6071 21.3595 13.4859 21.0785 14.34C20.7974 15.1941 20.3899 15.9882 19.856 16.7224ZM13.0691 20.1741C11.9028 20.1741 10.8068 19.9518 9.78103 19.5071C8.75527 19.0624 7.863 18.4588 7.10422 17.6965C6.34543 16.9341 5.74473 16.0376 5.30211 15.0071C4.85948 13.9765 4.63817 12.8753 4.63817 11.7035C4.63817 10.8 4.77518 9.92118 5.04918 9.06706C5.32318 8.21294 5.72717 7.42588 6.26112 6.70588L3.5 3.91059L4.40632 3L21.4157 20.0894L20.5094 21L7.14637 7.59529C6.72482 8.20235 6.41218 8.85529 6.20843 9.55412C6.00468 10.2529 5.90281 10.9694 5.90281 11.7035C5.90281 12.5788 6.05386 13.4224 6.35597 14.2341C6.65808 15.0459 7.08314 15.7906 7.63115 16.4682C8.44614 15.9035 9.3103 15.4412 10.2237 15.0812C11.137 14.7212 12.0855 14.5412 13.0691 14.5412C13.7155 14.5412 14.3443 14.6188 14.9555 14.7741C15.5667 14.9294 16.1674 15.1482 16.7576 15.4306L19.0129 17.6965C18.2119 18.5012 17.3021 19.1153 16.2834 19.5388C15.2646 19.9624 14.1932 20.1741 13.0691 20.1741Z" fill="#0B1644"/>
</svg>
