<svg width="370" height="300" viewBox="0 0 370 300" fill="none" xmlns="http://www.w3.org/2000/svg">
<path opacity="0.24" d="M344.843 219.283C344.685 221.007 344.378 222.713 343.924 224.384C342.896 228.244 341.341 231.944 339.302 235.38C327.497 255.937 304.402 267.813 281.136 272.645C257.87 277.477 233.863 276.439 210.113 277.532C178.097 278.999 146.131 284.387 114.078 282.664C98.8846 281.82 83.8217 279.385 69.1378 275.4C-1.65281 275.4 32.9527 167.534 37.0243 126.64C38.7815 109.022 40.8326 90.5542 50.9105 75.9842C62.8314 58.7202 83.9363 50.1187 104.588 46.38C125.24 42.6413 146.48 42.8307 167.04 38.5361C200.586 31.5107 233.018 12.5545 266.84 17.9549C300.043 23.2514 326.983 54.7982 326.964 88.3366C326.964 111.881 316.256 135.29 322.403 158.737C327.748 179.104 346.924 197.138 344.843 219.283Z" fill="#876FD1"/>
<path d="M127.517 81.2685C119.869 82.5942 112.179 84.1581 105.12 87.3775C99.8358 89.7784 95.0173 93.065 90.2599 96.3883C75.9206 106.413 61.2567 117.916 55.2381 134.325C52.7124 141.227 51.8826 148.633 52.8185 155.922C53.7544 163.21 56.4286 170.168 60.6167 176.212C64.8048 182.256 70.3847 187.21 76.8881 190.658C83.3916 194.105 90.6289 195.946 97.9929 196.026C93.6087 192.475 90.0081 188.057 87.4175 183.051C84.8269 178.045 83.3023 172.558 82.9394 166.935C82.5766 161.312 83.3834 155.676 85.3091 150.379C87.2349 145.082 90.2379 140.241 94.1295 136.158C98.7337 131.326 104.465 127.685 110.471 124.759C129.672 115.412 151.646 113.225 172.996 114.062C194.346 114.899 202.507 109.859 223.814 111.618C219.057 99.8032 226.22 97.1214 219.455 86.3207C209.512 70.4373 198.785 73.113 181.819 74.5914C163.647 76.2347 145.487 78.1529 127.517 81.2685Z" fill="#876FD1"/>
<path d="M124.057 78.5867C116.41 79.9123 108.72 81.4762 101.66 84.6957C96.3826 87.0965 91.5579 90.3832 86.8067 93.7065C72.4674 103.737 57.8035 115.241 51.791 131.649C49.2655 138.551 48.4356 145.957 49.3712 153.245C50.3067 160.532 52.9804 167.49 57.1678 173.534C61.3552 179.578 66.9343 184.532 73.437 187.98C79.9396 191.428 87.1762 193.269 94.5397 193.35C90.1599 189.799 86.5633 185.383 83.9756 180.38C81.388 175.376 79.8653 169.892 79.503 164.273C79.1408 158.654 79.9469 153.02 81.8708 147.727C83.7946 142.434 86.7946 137.594 90.6824 133.513C95.2805 128.68 101.011 125.04 107.018 122.113C126.225 112.767 148.199 110.58 169.549 111.416C190.899 112.253 203.297 114.556 224.586 116.304C219.828 104.489 222.749 94.464 216.014 83.6633C206.071 67.7799 195.35 70.4556 178.384 71.934C160.187 73.5529 142.033 75.4711 124.057 78.5867Z" fill="url(#paint0_linear_386_2518)"/>
<path opacity="0.24" d="M343.947 224.384C342.919 228.244 341.363 231.944 339.324 235.38C327.52 255.937 304.425 267.813 281.159 272.645C257.892 277.477 233.885 276.439 210.135 277.532C178.095 278.998 146.129 284.387 114.076 282.664C98.8827 281.82 83.8198 279.385 69.1359 275.4C59.2967 272.725 38.9633 269.236 33.012 260.128C29.2894 254.453 28.6771 243.817 28.5547 234.861C30.7833 235.209 32.9875 235.735 34.9345 235.918C41.5226 236.529 48.1902 236.596 54.7966 236.798C68.7849 237.25 82.7834 237.549 96.7921 237.696C152.554 238.286 208.27 236.453 263.942 232.197C290.661 230.145 317.329 227.54 343.947 224.384Z" fill="#876FD1"/>
<path d="M114.671 193.974H106.338V245.265H114.671V193.974Z" fill="#876FD1"/>
<path d="M114.671 193.974H106.338V245.265H114.671V193.974Z" fill="url(#paint1_linear_386_2518)"/>
<path d="M134.268 178.231V198.555H77.1621V178.231C77.1629 176.839 77.4385 175.461 77.9732 174.176C78.5079 172.891 79.2911 171.723 80.2782 170.74C81.2653 169.757 82.4368 168.977 83.7259 168.446C85.015 167.915 86.3964 167.642 87.7911 167.644H123.646C126.461 167.644 129.161 168.759 131.153 170.744C133.145 172.729 134.265 175.422 134.268 178.231Z" fill="#876FD1"/>
<path d="M87.8364 169.409C89.0425 169.409 90.2367 169.646 91.351 170.107C92.4652 170.567 93.4777 171.242 94.3305 172.093C95.1833 172.944 95.8598 173.954 96.3213 175.066C96.7829 176.178 97.0204 177.369 97.0204 178.573V198.439H78.6524V178.585C78.6507 177.381 78.8871 176.188 79.3479 175.074C79.8087 173.961 80.485 172.95 81.338 172.097C82.1909 171.245 83.2039 170.569 84.319 170.108C85.434 169.647 86.6293 169.409 87.8364 169.409Z" fill="url(#paint2_linear_386_2518)"/>
<path d="M134.278 178.231V198.549H99.0904V177.039C98.0373 171.419 94.0698 168.835 90.8125 167.644H123.649C126.465 167.642 129.167 168.756 131.16 170.742C133.153 172.727 134.274 175.421 134.278 178.231Z" fill="url(#paint3_linear_386_2518)"/>
<path d="M97.6257 195.641H60.2895C59.4813 195.641 58.8262 196.294 58.8262 197.098C58.8262 197.903 59.4813 198.555 60.2895 198.555H97.6257C98.4339 198.555 99.089 197.903 99.089 197.098C99.089 196.294 98.4339 195.641 97.6257 195.641Z" fill="#876FD1"/>
<path d="M97.6257 195.641H60.2895C59.4813 195.641 58.8262 196.294 58.8262 197.098C58.8262 197.903 59.4813 198.555 60.2895 198.555H97.6257C98.4339 198.555 99.089 197.903 99.089 197.098C99.089 196.294 98.4339 195.641 97.6257 195.641Z" fill="url(#paint4_linear_386_2518)"/>
<path opacity="0.24" d="M88.4308 240.768C83.5755 241.636 78.7631 242.754 73.8588 243.212C70.675 243.517 67.1606 243.676 64.8523 245.888C64.3031 246.358 63.9386 247.007 63.8237 247.72C63.6951 249.248 65.2931 250.317 66.7258 250.879C70.9076 252.528 75.4446 252.999 79.9325 253.286C87.2308 253.744 94.5535 253.756 101.876 253.762H123.673C130.114 253.762 137.253 253.499 141.864 249.022C142.837 248.182 143.497 247.039 143.737 245.778C143.994 243.737 142.439 241.813 140.559 240.958C137.308 239.479 132.441 239.785 128.926 239.394C124.293 238.917 119.659 238.644 115.022 238.575C106.109 238.471 97.2056 239.205 88.4308 240.768Z" fill="#876FD1"/>
<path d="M118.988 181.316C118.908 181.578 118.675 182.366 118.608 182.654L117.83 185.531C117.792 185.658 117.774 185.79 117.775 185.922C117.771 185.967 117.777 186.013 117.793 186.055C117.809 186.097 117.835 186.136 117.868 186.167C117.901 186.198 117.941 186.221 117.984 186.235C118.027 186.249 118.073 186.252 118.118 186.246C118.418 186.221 118.703 186.103 118.932 185.91C119.275 185.603 119.546 185.225 119.728 184.803C119.91 184.381 119.998 183.925 119.986 183.466C120 182.909 119.87 182.358 119.608 181.865C119.347 181.373 118.962 180.956 118.492 180.656C117.778 180.274 116.975 180.086 116.165 180.112C113.422 180.112 111.5 181.945 111.5 184.492C111.5 187.04 113.232 188.585 115.853 188.585C116.526 188.585 117.197 188.488 117.843 188.298C118.358 188.14 118.849 187.909 119.3 187.614L120.09 188.756C119.586 189.08 119.04 189.333 118.467 189.508C117.574 189.779 116.646 189.916 115.712 189.917C114.93 189.962 114.148 189.849 113.411 189.584C112.675 189.32 111.999 188.909 111.426 188.378C110.933 187.87 110.545 187.269 110.287 186.61C110.028 185.952 109.903 185.248 109.92 184.541C109.9 183.796 110.031 183.054 110.303 182.359C110.575 181.665 110.984 181.032 111.506 180.497C112.138 179.89 112.889 179.418 113.711 179.112C114.534 178.807 115.411 178.673 116.287 178.719C119.318 178.719 121.473 180.662 121.473 183.374C121.486 183.95 121.384 184.522 121.174 185.057C120.964 185.593 120.649 186.082 120.249 186.496C119.931 186.826 119.551 187.09 119.131 187.272C118.711 187.455 118.258 187.552 117.8 187.559C117.586 187.574 117.373 187.535 117.178 187.446C116.984 187.358 116.814 187.222 116.685 187.052C116.613 186.932 116.573 186.795 116.569 186.655C116.363 186.918 116.097 187.129 115.794 187.27C115.491 187.411 115.159 187.479 114.824 187.467C113.538 187.467 112.724 186.508 112.724 185.024C112.724 182.837 114.163 181.022 115.889 181.022C116.176 180.985 116.466 181.034 116.724 181.164C116.982 181.294 117.194 181.498 117.334 181.749L117.463 181.291L118.988 181.316ZM116.312 185.17C116.624 184.549 116.799 183.868 116.826 183.173C116.826 182.641 116.532 182.275 116.073 182.275C115.795 182.298 115.529 182.397 115.304 182.562C115.079 182.727 114.904 182.951 114.8 183.209C114.482 183.81 114.304 184.474 114.279 185.152C114.279 185.842 114.542 186.203 115.038 186.203C115.534 186.203 115.969 185.83 116.312 185.17Z" fill="#876FD1"/>
<path d="M304.267 88.8375L224.587 116.334L212.402 90.1082L304.267 88.8375Z" fill="#876FD1"/>
<path d="M196.311 61.0722L309.384 89.6745L211.023 77.9636L196.311 61.0722Z" fill="#876FD1"/>
<path d="M145.084 94.6289L211.025 77.9636L309.386 89.6745L145.084 94.6289Z" fill="#876FD1"/>
<path d="M164.491 104.847L140.801 104.125L140.355 118.694L164.045 119.416L164.491 104.847Z" fill="#876FD1"/>
<path d="M164.052 119.413L140.363 118.692L140.804 104.122L164.958 104.666L164.052 119.413Z" fill="url(#paint5_linear_386_2518)"/>
<path d="M140.804 104.122L152.321 116.517L164.579 105.063L140.804 104.122Z" fill="url(#paint6_linear_386_2518)"/>
<path d="M121.946 94.1084L100.564 83.9054L94.2614 97.055L115.643 107.258L121.946 94.1084Z" fill="#876FD1"/>
<path d="M115.638 107.262L94.2578 97.0542L100.564 83.9076L122.434 94.1402L115.638 107.262Z" fill="url(#paint7_linear_386_2518)"/>
<path d="M100.564 83.9076L106.081 99.8887L121.926 94.3418L100.564 83.9076Z" fill="url(#paint8_linear_386_2518)"/>
<path d="M88.7714 127.464L74.0625 132.54L77.1988 141.587L91.9076 136.511L88.7714 127.464Z" fill="#876FD1"/>
<path d="M91.9082 136.518L77.1954 141.595L74.0605 132.548L89.0122 127.257L91.9082 136.518Z" fill="url(#paint9_linear_386_2518)"/>
<path d="M74.0605 132.548L84.0283 137.471L88.8713 127.587L74.0605 132.548Z" fill="url(#paint10_linear_386_2518)"/>
<path d="M65.012 117.836L50.6445 122.794L53.7067 131.628L68.0742 126.669L65.012 117.836Z" fill="#876FD1"/>
<path d="M68.0639 126.677L53.7 131.631L50.6387 122.798L65.2352 117.629L68.0639 126.677Z" fill="url(#paint11_linear_386_2518)"/>
<path d="M50.6387 122.798L60.3738 127.611L65.1005 117.953L50.6387 122.798Z" fill="url(#paint12_linear_386_2518)"/>
<path d="M68.9852 159.728L57.8457 156.116L55.615 162.966L66.7545 166.578L68.9852 159.728Z" fill="#876FD1"/>
<path d="M66.7446 166.575L55.6074 162.97L57.8422 156.116L69.2182 159.708L66.7446 166.575Z" fill="url(#paint13_linear_386_2518)"/>
<path d="M57.8422 156.116L61.5832 163.587L68.9855 159.843L57.8422 156.116Z" fill="url(#paint14_linear_386_2518)"/>
<path d="M168.719 63.2698L149.01 71.0041L153.788 83.1247L173.496 75.3905L168.719 63.2698Z" fill="#876FD1"/>
<path d="M173.499 75.3977L153.79 83.1317L149.008 71.0115L169.035 62.972L173.499 75.3977Z" fill="url(#paint15_linear_386_2518)"/>
<path d="M149.008 71.0115L162.845 77.1449L168.864 63.4302L149.008 71.0115Z" fill="url(#paint16_linear_386_2518)"/>
<path d="M250.203 63.5992L224.623 61.0877L223.071 76.8218L248.651 79.3333L250.203 63.5992Z" fill="#876FD1"/>
<path d="M248.659 79.3258L223.072 76.815L224.627 61.0782L250.716 63.4363L248.659 79.3258Z" fill="url(#paint17_linear_386_2518)"/>
<path d="M224.627 61.0782L236.181 75.3305L250.282 63.8334L224.627 61.0782Z" fill="url(#paint18_linear_386_2518)"/>
<path d="M304.268 88.8376L224.587 116.334L212.403 90.1083L304.268 88.8376Z" fill="url(#paint19_linear_386_2518)"/>
<path d="M216.462 99.1802L285.863 94.5801L304.268 88.8376L212.403 90.1083L216.462 99.1802Z" fill="url(#paint20_linear_386_2518)"/>
<path d="M196.313 61.0722L309.386 89.6745L211.025 77.9636L196.313 61.0722Z" fill="url(#paint21_linear_386_2518)"/>
<path d="M145.084 94.6289L211.025 77.9636L309.386 89.6745L145.084 94.6289Z" fill="url(#paint22_linear_386_2518)"/>
<defs>
<linearGradient id="paint0_linear_386_2518" x1="144.121" y1="171.022" x2="115.066" y2="23.1228" gradientUnits="userSpaceOnUse">
<stop stop-color="#FFF7F6" stop-opacity="0"/>
<stop offset="0.95" stop-color="#FFF7F6"/>
</linearGradient>
<linearGradient id="paint1_linear_386_2518" x1="110.722" y1="238.557" x2="110.1" y2="183.869" gradientUnits="userSpaceOnUse">
<stop stop-color="#0B1644" stop-opacity="0"/>
<stop offset="0.95" stop-color="#0B1644"/>
</linearGradient>
<linearGradient id="paint2_linear_386_2518" x1="78.6401" y1="183.93" x2="97.0327" y2="183.93" gradientUnits="userSpaceOnUse">
<stop stop-color="#0B1644" stop-opacity="0"/>
<stop offset="0.95" stop-color="#0B1644"/>
</linearGradient>
<linearGradient id="paint3_linear_386_2518" x1="113.485" y1="167.185" x2="110.163" y2="223.731" gradientUnits="userSpaceOnUse">
<stop stop-color="#0B1644" stop-opacity="0"/>
<stop offset="0.95" stop-color="#0B1644"/>
</linearGradient>
<linearGradient id="paint4_linear_386_2518" x1="78.7494" y1="193.601" x2="79.1639" y2="200.675" gradientUnits="userSpaceOnUse">
<stop stop-color="#0B1644" stop-opacity="0"/>
<stop offset="0.95" stop-color="#0B1644"/>
</linearGradient>
<linearGradient id="paint5_linear_386_2518" x1="158.692" y1="69.9849" x2="151.001" y2="121.526" gradientUnits="userSpaceOnUse">
<stop stop-color="#FFF7F6" stop-opacity="0"/>
<stop offset="0.95" stop-color="#FFF7F6"/>
</linearGradient>
<linearGradient id="paint6_linear_386_2518" x1="-488.074" y1="-670.271" x2="-454.93" y2="-630.008" gradientUnits="userSpaceOnUse">
<stop stop-color="#FFF7F6" stop-opacity="0"/>
<stop offset="0.95" stop-color="#FFF7F6"/>
</linearGradient>
<linearGradient id="paint7_linear_386_2518" x1="130.744" y1="59.898" x2="102.917" y2="103.987" gradientUnits="userSpaceOnUse">
<stop stop-color="#FFF7F6" stop-opacity="0"/>
<stop offset="0.95" stop-color="#FFF7F6"/>
</linearGradient>
<linearGradient id="paint8_linear_386_2518" x1="-161.329" y1="-877.893" x2="-147.246" y2="-827.714" gradientUnits="userSpaceOnUse">
<stop stop-color="#FFF7F6" stop-opacity="0"/>
<stop offset="0.95" stop-color="#FFF7F6"/>
</linearGradient>
<linearGradient id="paint9_linear_386_2518" x1="77.0464" y1="107.41" x2="84.3397" y2="140.848" gradientUnits="userSpaceOnUse">
<stop stop-color="#FFF7F6" stop-opacity="0"/>
<stop offset="0.95" stop-color="#FFF7F6"/>
</linearGradient>
<linearGradient id="paint10_linear_386_2518" x1="-493.117" y1="-196.308" x2="-463.346" y2="-179.318" gradientUnits="userSpaceOnUse">
<stop stop-color="#FFF7F6" stop-opacity="0"/>
<stop offset="0.95" stop-color="#FFF7F6"/>
</linearGradient>
<linearGradient id="paint11_linear_386_2518" x1="53.5555" y1="98.2568" x2="60.6713" y2="130.908" gradientUnits="userSpaceOnUse">
<stop stop-color="#FFF7F6" stop-opacity="0"/>
<stop offset="0.95" stop-color="#FFF7F6"/>
</linearGradient>
<linearGradient id="paint12_linear_386_2518" x1="-503.247" y1="-198.345" x2="-474.174" y2="-181.76" gradientUnits="userSpaceOnUse">
<stop stop-color="#FFF7F6" stop-opacity="0"/>
<stop offset="0.95" stop-color="#FFF7F6"/>
</linearGradient>
<linearGradient id="paint13_linear_386_2518" x1="71.0652" y1="142.403" x2="60.3008" y2="165.802" gradientUnits="userSpaceOnUse">
<stop stop-color="#FFF7F6" stop-opacity="0"/>
<stop offset="0.95" stop-color="#FFF7F6"/>
</linearGradient>
<linearGradient id="paint14_linear_386_2518" x1="-133.09" y1="-297.954" x2="-122.936" y2="-274.285" gradientUnits="userSpaceOnUse">
<stop stop-color="#FFF7F6" stop-opacity="0"/>
<stop offset="0.95" stop-color="#FFF7F6"/>
</linearGradient>
<linearGradient id="paint15_linear_386_2518" x1="151.642" y1="36.6718" x2="163.447" y2="81.7128" gradientUnits="userSpaceOnUse">
<stop stop-color="#FFF7F6" stop-opacity="0"/>
<stop offset="0.95" stop-color="#FFF7F6"/>
</linearGradient>
<linearGradient id="paint16_linear_386_2518" x1="-640.726" y1="-343.922" x2="-599.288" y2="-322.521" gradientUnits="userSpaceOnUse">
<stop stop-color="#FFF7F6" stop-opacity="0"/>
<stop offset="0.95" stop-color="#FFF7F6"/>
</linearGradient>
<linearGradient id="paint17_linear_386_2518" x1="246.487" y1="25.4722" x2="234.397" y2="80.6895" gradientUnits="userSpaceOnUse">
<stop stop-color="#FFF7F6" stop-opacity="0"/>
<stop offset="0.95" stop-color="#FFF7F6"/>
</linearGradient>
<linearGradient id="paint18_linear_386_2518" x1="-399.073" y1="-822.802" x2="-366.155" y2="-776.818" gradientUnits="userSpaceOnUse">
<stop stop-color="#FFF7F6" stop-opacity="0"/>
<stop offset="0.95" stop-color="#FFF7F6"/>
</linearGradient>
<linearGradient id="paint19_linear_386_2518" x1="220.698" y1="112.012" x2="240.659" y2="-8.58104" gradientUnits="userSpaceOnUse">
<stop stop-color="#FFF7F6" stop-opacity="0"/>
<stop offset="0.95" stop-color="#FFF7F6"/>
</linearGradient>
<linearGradient id="paint20_linear_386_2518" x1="226.151" y1="110.132" x2="287.862" y2="-183.414" gradientUnits="userSpaceOnUse">
<stop stop-color="#0B1644" stop-opacity="0"/>
<stop offset="0.95" stop-color="#0B1644"/>
</linearGradient>
<linearGradient id="paint21_linear_386_2518" x1="231.007" y1="50.9688" x2="215.01" y2="141.921" gradientUnits="userSpaceOnUse">
<stop stop-color="#FFF7F6" stop-opacity="0"/>
<stop offset="0.95" stop-color="#FFF7F6"/>
</linearGradient>
<linearGradient id="paint22_linear_386_2518" x1="227.673" y1="72.3067" x2="226.527" y2="124.6" gradientUnits="userSpaceOnUse">
<stop stop-color="#FFF7F6" stop-opacity="0"/>
<stop offset="0.39" stop-color="#FFF7F6"/>
</linearGradient>
</defs>
</svg>
