<svg width="21" height="20" viewBox="0 0 21 20" fill="none" xmlns="http://www.w3.org/2000/svg">
<path d="M4.25 16.25H5.16667L14.3958 7.02085L13.4792 6.10419L4.25 15.3334V16.25ZM17.0417 6.12502L14.375 3.45835L15.25 2.58335C15.4861 2.34724 15.7778 2.22919 16.125 2.22919C16.4722 2.22919 16.7639 2.34724 17 2.58335L17.9167 3.50002C18.1528 3.73613 18.2708 4.0278 18.2708 4.37502C18.2708 4.72224 18.1528 5.01391 17.9167 5.25002L17.0417 6.12502ZM16.1667 7.00002L5.66667 17.5H3V14.8334L13.5 4.33335L16.1667 7.00002ZM13.9375 6.56252L13.4792 6.10419L14.3958 7.02085L13.9375 6.56252Z" fill="#0B1644"/>
</svg>
