<svg width="370" height="300" viewBox="0 0 370 300" fill="none" xmlns="http://www.w3.org/2000/svg">
<path opacity="0.18" d="M326.834 233.157C313.777 252.091 291.689 263.365 269.098 268.046C246.507 272.727 223.194 271.501 200.125 270.032C177.232 268.555 153.769 266.694 130.968 270.166C111.295 273.161 91.8651 276.633 74.3557 264.141C67.798 259.46 62.6156 253.126 57.9867 246.542C45.1314 228.184 35.1607 205.72 32.9133 183.365C30.7246 161.502 32.3347 138.821 39.211 118.085C42.4477 108.145 47.0172 98.6863 52.7959 89.9632C55.3015 86.2174 58.0318 82.6255 60.972 79.2069C61.2152 78.9065 61.4752 78.6061 61.7435 78.3141C67.0704 72.2478 72.9455 66.6809 79.2949 61.6832C86.373 56.1239 93.9043 51.1611 101.811 46.8464C113.911 40.1846 126.799 35.0492 140.175 31.559C156.892 27.126 174.305 25.9109 191.479 27.9792C222.28 31.9262 251.941 48.5237 268.528 74.6591C282.163 96.1299 287.287 123.6 306.742 140.048C311.597 144.153 317.165 147.383 321.836 151.688C329.459 158.69 334.414 168.286 336.863 178.308C339.113 187.642 339.384 197.34 337.657 206.784C335.93 216.228 332.244 225.21 326.834 233.157Z" fill="#876FD1"/>
<path d="M206.733 59.6138C205.341 58.312 203.999 56.8434 202.205 56.1841C200.345 55.642 198.363 55.6828 196.528 56.301C194.707 56.9268 192.854 57.4533 190.976 57.8781C189.123 58.1785 187.211 58.045 185.349 58.3371C185.159 58.345 184.974 58.4026 184.813 58.504C184.697 58.5985 184.606 58.7188 184.546 58.8551C184.487 58.9914 184.46 59.1399 184.469 59.2884C184.469 60.4065 185.626 61.1742 186.683 61.5581C188.051 62.057 189.503 62.2865 190.96 62.234C190.817 63.1853 191.957 63.8111 192.913 63.9947C194.138 64.2285 195.396 64.2285 196.62 63.9947C196.817 64.3936 197.118 64.7329 197.491 64.9778C197.864 65.2227 198.295 65.3644 198.742 65.3883C199.195 65.4028 199.643 65.2909 200.036 65.0653C200.428 64.8397 200.75 64.5094 200.964 64.1116C201.269 64.5619 201.69 64.923 202.182 65.1577C202.674 65.3924 203.221 65.4921 203.765 65.4467C204.855 65.4467 205.92 65.1129 207.001 65.0211C208.555 64.9616 210.108 65.1734 211.588 65.647C212.368 65.8639 218.129 66.2561 218.674 65.3799C219.22 64.5038 214.004 64.0865 213.316 63.8028C210.879 62.8261 208.646 61.4055 206.733 59.6138Z" fill="#876FD1"/>
<path d="M206.423 60.2647C205.09 58.9129 203.807 57.4025 202.054 56.6849C200.227 56.0737 198.253 56.0474 196.41 56.6098C194.585 57.1752 192.729 57.6377 190.851 57.995C188.997 58.237 187.102 57.995 185.249 58.2704C185.059 58.2754 184.874 58.3301 184.712 58.4289C184.594 58.5182 184.498 58.6345 184.434 58.7681C184.37 58.9017 184.339 59.0486 184.343 59.1966C184.343 60.3148 185.408 61.1159 186.448 61.5331C187.779 62.076 189.202 62.3592 190.641 62.3676C190.465 63.3189 191.572 63.9781 192.519 64.1867C193.726 64.4534 194.973 64.4874 196.192 64.2868C196.353 64.7083 196.63 65.0755 196.993 65.3455C197.355 65.6155 197.788 65.7771 198.239 65.8113C198.691 65.8454 199.143 65.7508 199.542 65.5384C199.941 65.326 200.272 65.0048 200.494 64.6123C200.781 65.0704 201.186 65.4442 201.666 65.695C202.147 65.9458 202.686 66.0646 203.228 66.0392C204.31 66.0392 205.375 65.7805 206.456 65.7221C208 65.7117 209.533 65.9745 210.985 66.4982C211.748 66.7318 213.199 67.3326 213.769 66.4398C214.339 65.5469 213.442 65.0128 212.771 64.7124C210.393 63.6395 208.24 62.1307 206.423 60.2647Z" fill="#371E84"/>
<path d="M188.41 98.5916C188.066 102.697 182.624 103.824 178.481 103.899C160.876 104.198 143.303 105.519 125.852 107.854C121.66 108.413 117.408 109.073 113.861 111.309C111.345 112.894 109.358 115.181 106.985 116.975C97.8105 123.909 84.6281 122.257 74.0537 117.709C72.7482 121.028 70.5237 123.911 67.6383 126.023C64.7529 128.135 61.3248 129.39 57.7518 129.642C54.1748 129.778 50.6324 128.902 47.5359 127.115C44.4395 125.327 41.9162 122.702 40.2592 119.545C40.0317 118.987 39.6721 118.492 39.2109 118.101C42.4476 108.162 47.0171 98.7031 52.7958 89.98C55.3014 86.2342 58.0317 82.6423 60.972 79.2237C61.3695 80.0026 61.725 80.8021 62.0369 81.6186C61.6432 80.5691 61.5418 79.4331 61.7434 78.3309C67.0651 72.2419 72.9405 66.6551 79.2948 61.6416C86.3556 58.504 94.7162 57.1522 101.869 59.9142C107.739 62.1756 112.544 68.0252 111.991 74.2837C115.546 68.7846 122.993 67.5496 129.551 67.2408C131.176 67.0489 132.824 67.2493 134.356 67.825C136.955 69.0433 138.087 72.1308 138.414 74.9763C138.741 77.8218 138.565 80.8176 139.647 83.4378C142.121 80.0248 147.572 79.8079 151.001 82.2695C154.431 84.7312 155.982 89.1455 156.075 93.3512C164.051 90.6195 172.625 90.1087 180.871 91.8742C184.477 92.692 188.72 94.9283 188.41 98.5916Z" fill="#FFF7F7"/>
<path d="M191.412 113.22L179.588 220.39L178.314 232.281C156.217 210.977 87.2781 162.328 87.2781 162.328L117.383 89.6711L120.502 90.6642L191.412 113.22Z" fill="#876FD1"/>
<path d="M87.2698 162.336C87.2698 162.336 126.851 109.131 191.412 113.211C191.412 113.211 128.821 116.766 87.2698 162.336Z" fill="#371E84"/>
<path d="M117.383 89.6796L178.314 232.289L116.452 91.9243L117.383 89.6796Z" fill="#371E84"/>
<path opacity="0.39" d="M214.44 113.996C227.731 118.811 238.532 130.894 252.67 131.353C259.203 131.57 265.5 129.191 271.597 126.855C261.794 131.762 256.62 144.304 260.142 154.643C255.949 146.982 244.972 147.132 237.349 142.843C230.339 138.888 226.331 131.102 219.739 126.546C215.739 123.801 211.069 122.449 206.322 121.448C203.06 120.763 193.031 120.855 190.926 117.993C184.897 109.765 211.396 112.953 214.44 113.996Z" fill="#876FD1"/>
<path opacity="0.39" d="M207.647 243.029C219.681 243.638 231.438 239.891 243.06 236.737C254.683 233.583 266.985 230.971 278.683 233.85C290.381 236.729 300.352 245.023 308.033 254.436C298.309 253.274 288.486 255.581 280.31 260.945C273.19 251.599 260.318 248.678 248.536 248.678C236.754 248.678 224.897 250.94 213.249 249.154C200.444 247.185 185.928 239.474 179.53 228C182.775 232.452 186.99 236.117 191.859 238.719C196.728 241.322 202.125 242.795 207.647 243.029Z" fill="#876FD1"/>
<path opacity="0.39" d="M92.9302 203.909C98.5487 210.585 105.869 215.659 112.125 221.775C118.381 227.892 123.798 235.711 123.865 244.439C125.65 242.028 127.908 240.003 130.503 238.487C133.097 236.971 135.974 235.995 138.96 235.619C134.49 233.533 132.586 228.367 129.735 224.379C127.22 220.949 123.865 218.27 120.511 215.725C111.723 209.133 102.389 202.983 95.4124 194.513C88.6032 186.252 84.6451 175.679 86.7918 164.998C77.6849 174.987 85.5675 195.106 92.9302 203.909Z" fill="#876FD1"/>
<path d="M116.452 91.9242L87.2699 214.207L57.9868 246.534" stroke="#FFF7F7" stroke-miterlimit="10"/>
<path d="M87.2698 214.198L178.314 232.289" stroke="#FFF7F7" stroke-miterlimit="10"/>
<path d="M179.588 220.39L178.314 232.281C156.217 210.977 87.2781 162.328 87.2781 162.328L117.383 89.6711L120.502 90.6642C120.484 92.1658 120.295 93.6605 119.941 95.1202C118.59 101.646 116.159 107.904 114.792 114.455C113.811 119.186 112.846 123.926 111.865 128.641C111.395 130.944 110.825 140.49 109.148 141.859C124.152 129.655 142.096 121.559 161.207 118.368C151.848 120.53 143.555 126.196 137.031 133.222C130.507 140.248 125.626 148.634 121.282 157.154C129.584 163.338 133.383 173.894 140.855 181.037C145.559 185.534 151.597 188.547 155.949 193.387C159.488 197.342 161.71 202.29 164.863 206.555C167.638 210.321 171.114 213.522 175.102 215.984C176.645 216.935 178.347 217.853 179.219 219.439C179.371 219.744 179.495 220.062 179.588 220.39Z" fill="#371E84"/>
<path d="M215.647 188.305C204.914 186.786 193.844 195.615 193.006 206.371C192.754 209.592 193.4 213.047 195.614 215.408C197.995 217.912 201.71 218.746 205.19 218.93C212.563 219.346 219.909 217.753 226.44 214.323C227.681 213.673 228.955 212.93 230.389 213.055C231.562 213.277 232.667 213.765 233.618 214.482C237.466 216.793 241.82 218.141 246.306 218.413C250.792 218.685 255.277 217.871 259.379 216.042C263.396 214.198 267.362 211.303 271.756 211.87C273.853 212.137 275.756 213.18 277.677 214.056C293.501 221.291 313.811 217.127 325.475 204.268C327.849 201.656 329.987 198.235 329.14 194.814C328.611 193.079 327.617 191.521 326.264 190.308C320.394 184.466 311.698 181.963 303.371 182.213C302.192 182.375 300.992 182.226 299.891 181.779C298.758 181.17 298.13 179.952 297.484 178.842C290.18 166.325 274.062 163.588 261.643 169.246C257.4 158.598 245.442 165.866 238.423 168.319C228.327 171.841 219.555 177.916 215.647 188.305Z" fill="#FFF7F7"/>
<path d="M230.003 72.9986C229.96 73.0654 229.91 73.127 229.853 73.1822C229.294 73.7419 228.54 74.0674 227.748 74.0918C227.209 74.1418 226.668 74.1418 226.129 74.0918C221.329 73.6902 216.619 72.5647 212.159 70.7539C211.026 70.2219 209.854 69.7756 208.653 69.4188C207.429 69.1267 206.138 69.0766 204.922 68.8096C203.159 68.4218 201.518 67.6111 200.142 66.4481C199.777 66.1463 199.463 65.7886 199.211 65.3883C198.949 65.0712 198.792 64.6811 198.762 64.2716C198.732 63.8622 198.83 63.4535 199.043 63.1019C199.739 62.1339 201.24 62.3342 202.339 62.7931C203.272 63.1767 204.156 63.6697 204.972 64.2618C206.096 64.5038 207.169 65.2214 208.326 65.5302C210.842 66.1977 213.416 64.8459 215.999 64.5121C218.892 64.1366 221.785 65.0712 224.494 66.1811C226.322 66.9154 228.192 67.7665 229.433 69.2853C229.708 69.6157 229.934 69.9838 230.104 70.3784C230.305 70.7897 230.401 71.244 230.384 71.7011C230.366 72.1582 230.236 72.6039 230.003 72.9986Z" fill="#876FD1"/>
<path d="M245.651 71.2713C245.591 71.6995 245.422 72.1054 245.161 72.4512C244.9 72.797 244.555 73.0715 244.159 73.2489C243.367 73.6003 242.51 73.7823 241.643 73.783C239.908 73.8819 238.168 73.7924 236.452 73.516C237.408 74.1585 238.364 74.801 239.329 75.4352C238.549 75.8173 237.679 75.9789 236.813 75.9025C235.421 75.7598 234.06 75.4022 232.779 74.8428C232.622 75.1096 232.39 75.3246 232.111 75.4611C231.832 75.5976 231.519 75.6496 231.211 75.6105C230.596 75.5206 230.005 75.3077 229.475 74.9846L227.748 74.0917L226.7 73.5493C226.292 73.3649 225.92 73.1107 225.601 72.7983C225.5 72.6883 225.416 72.5647 225.349 72.4312C225.185 72.117 225.053 71.7871 224.955 71.4465C224.444 69.8527 224.326 68.5926 226.431 69.135C227.656 69.4521 228.855 69.9695 230.096 70.3283C230.481 70.4295 230.874 70.502 231.27 70.5453C232.815 70.6733 234.369 70.6426 235.907 70.4535C239.178 70.2438 242.462 70.5195 245.651 71.2713Z" fill="#876FD1"/>
<path d="M216.57 64.0949C218.716 62.7013 220.343 60.6986 222.758 59.714C223.902 59.3022 225.1 59.0576 226.314 58.988C227.985 58.8072 229.667 58.7598 231.345 58.8461C235.538 59.1215 239.555 60.6569 243.74 60.7237C245.073 60.7237 246.406 60.6152 247.731 60.7237C247.683 61.2212 247.502 61.697 247.207 62.1018C246.912 62.5066 246.514 62.8259 246.054 63.0268C245.144 63.4341 244.149 63.62 243.153 63.5692C243.332 63.6397 243.482 63.7699 243.577 63.9378C243.671 64.1057 243.704 64.3008 243.671 64.4903C243.637 64.6798 243.539 64.8519 243.393 64.9775C243.246 65.1031 243.061 65.1746 242.867 65.1797C243.478 65.8219 244.319 66.1971 245.207 66.2228C245.911 66.3479 246.775 66.7986 245.71 67.1741C244.79 67.4124 243.843 67.5275 242.893 67.5162C241.838 67.5924 240.785 67.3479 239.874 66.8152L241.14 67.8917C240.384 68.2641 239.549 68.4481 238.706 68.4277C237.863 68.4074 237.038 68.1833 236.301 67.7749C236.595 68.2589 236.142 68.9098 235.589 69.0349C235.008 69.1106 234.418 68.9932 233.911 68.7011C232.46 67.9585 230.923 67.3979 229.333 67.0322C226.138 66.4731 222.926 67.6247 219.731 68.1671C217.601 68.5259 211.706 68.7512 211.085 65.8389C213.026 65.6956 214.905 65.098 216.57 64.0949Z" fill="#876FD1"/>
<path d="M197.4 63.5357C197.19 63.6111 197.001 63.734 196.846 63.8946C196.562 64.1611 196.365 64.5063 196.279 64.8855C196.194 65.2648 196.225 65.6608 196.368 66.0224C196.706 65.5987 197.18 65.3039 197.71 65.188C198.355 65.1409 199.001 65.2769 199.572 65.5802L200.511 65.9724C200.368 65.914 200.117 64.9877 200.025 64.8041C199.842 64.4468 199.604 64.1201 199.32 63.8361C199.047 63.6374 198.731 63.5065 198.397 63.4542C198.063 63.4019 197.721 63.4299 197.4 63.5357Z" fill="#FFF7F7"/>
<path d="M219.001 66.2812C220.351 65.7633 221.653 65.1295 222.892 64.387C224.026 63.5088 225.252 62.7561 226.549 62.1422C227.279 61.9053 228.037 61.7623 228.804 61.7167C231.242 61.5005 233.697 61.6241 236.1 62.0838C239.236 62.6847 242.364 62.6095 245.551 62.7514C245.329 63.0835 245.023 63.3512 244.664 63.5271C244.304 63.703 243.904 63.7809 243.505 63.7528C243.653 63.9625 243.712 64.2219 243.67 64.4749C243.627 64.7278 243.487 64.954 243.278 65.1046C243.164 65.1812 243.036 65.2351 242.901 65.2631C243.734 65.852 244.678 66.2665 245.677 66.4815C244.944 67.1393 243.988 67.4944 243.001 67.4745C242.025 67.4474 241.065 67.2172 240.184 66.7986C240.184 67.3994 241.106 67.8917 240.779 68.4007C240.701 68.5103 240.589 68.5921 240.461 68.6344C239.27 69.1684 237.895 68.6344 236.704 68.0586C236.674 68.3292 236.56 68.5839 236.379 68.7873C236.197 68.9907 235.956 69.1327 235.689 69.1935C235.218 69.2462 234.741 69.1652 234.314 68.9598C232.83 68.384 231.396 67.6747 229.878 67.2158C228.369 66.6849 226.737 66.6037 225.182 66.9821C224.67 67.124 224.184 67.341 223.672 67.4828C222.854 67.6667 222.003 67.6535 221.191 67.4445C220.378 67.2356 219.628 66.8367 219.001 66.2812Z" fill="#371E84"/>
<path d="M236.813 75.9025C235.421 75.7597 234.06 75.4022 232.779 74.8427C232.622 75.1096 232.39 75.3246 232.111 75.4611C231.832 75.5976 231.519 75.6495 231.211 75.6104C230.596 75.5206 230.005 75.3077 229.475 74.9846L227.748 74.0917C227.209 74.1418 226.668 74.1418 226.129 74.0917C221.329 73.6901 216.619 72.5646 212.159 70.7539C211.026 70.2219 209.854 69.7756 208.653 69.4187C207.429 69.1266 206.138 69.0766 204.922 68.8096C203.159 68.4217 201.518 67.611 200.142 66.448C199.777 66.1463 199.463 65.7885 199.211 65.3882V65.2798C199.132 64.9734 199.147 64.6505 199.255 64.3528C199.362 64.0552 199.558 63.7967 199.815 63.6108C202.071 66.0475 205.366 67.2074 208.544 68.2004C212.955 69.5773 217.417 70.8123 221.962 71.7886C223.11 72.0389 224.259 72.2642 225.408 72.4729C226.912 72.7566 228.413 73.0069 229.911 73.2239L230.75 73.349C231.029 73.4232 231.325 73.3996 231.588 73.2823C231.765 73.1821 231.899 73.0069 232.1 72.9568C232.224 72.9477 232.348 72.9645 232.465 73.0062C232.582 73.0479 232.689 73.1135 232.779 73.1988C233.676 73.8414 236.385 74.5006 236.846 75.4018C236.88 75.4821 236.895 75.5692 236.889 75.6561C236.883 75.743 236.857 75.8274 236.813 75.9025Z" fill="#371E84"/>
<path d="M197.24 79.9497C197.74 79.8505 198.22 79.667 198.658 79.4073C200.117 78.7149 201.792 78.622 203.32 79.1486C202.944 79.1115 202.564 79.1492 202.203 79.2595C201.842 79.3698 201.506 79.5505 201.215 79.7911C203.379 79.7911 205.54 79.7271 207.698 79.5992L205.509 78.8315C206.37 78.3749 207.327 78.1284 208.303 78.1125C209.278 78.0965 210.243 78.3115 211.119 78.7397C210.607 77.5965 209.165 77.4129 207.966 77.3962C207.015 77.3145 206.06 77.4874 205.199 77.8969C204.821 78.1222 204.612 78.4643 204.167 78.4977C203.723 78.5311 203.178 78.1806 202.758 78.1055C201.757 77.9427 200.731 78.0256 199.77 78.347C198.808 78.6684 197.94 79.2185 197.24 79.9497Z" fill="#876FD1"/>
<path d="M215.647 85.5573C216.048 85.4601 216.423 85.278 216.746 85.0232C217.276 84.6796 217.884 84.4756 218.515 84.4303C219.146 84.3851 219.778 84.5001 220.352 84.7645C220.054 84.7409 219.756 84.785 219.478 84.8934C219.201 85.0019 218.952 85.1718 218.75 85.3904C220.427 85.3904 222.104 85.3264 223.781 85.1985L222.104 84.4391C222.735 83.9914 223.487 83.7453 224.262 83.7333C225.036 83.7214 225.796 83.9443 226.44 84.3723C226.046 83.2291 224.93 83.0455 224.008 83.0289C223.258 82.9454 222.503 83.1223 221.869 83.5295C221.576 83.7548 221.408 84.0886 221.031 84.1303C220.654 84.1721 220.259 83.8049 219.941 83.7381C219.124 83.5839 218.281 83.6745 217.516 83.9984C216.752 84.3223 216.101 84.8649 215.647 85.5573Z" fill="#876FD1"/>
<path d="M176.343 81.8689C176.746 81.774 177.122 81.5885 177.442 81.3265C177.973 80.9864 178.582 80.7852 179.212 80.7414C179.843 80.6976 180.474 80.8128 181.048 81.0761C180.737 81.038 180.422 81.0758 180.13 81.1863C179.838 81.2969 179.577 81.4767 179.371 81.7103C181.048 81.7103 182.725 81.6464 184.402 81.5184L182.725 80.759C183.357 80.3116 184.11 80.065 184.885 80.0516C185.66 80.0382 186.422 80.2586 187.069 80.6839C186.666 79.5491 185.551 79.3655 184.628 79.3488C183.879 79.2654 183.123 79.4422 182.49 79.8495C182.197 80.0748 182.037 80.4086 181.651 80.4419C181.266 80.4753 180.88 80.1249 180.561 80.0581C179.757 79.9188 178.93 80.0159 178.181 80.3375C177.432 80.6591 176.793 81.1914 176.343 81.8689Z" fill="#876FD1"/>
</svg>
