<svg width="50" height="50" viewBox="0 0 50 44" fill="none" xmlns="http://www.w3.org/2000/svg">
<g clip-path="url(#clip0_362_603)">
<path d="M25 34C31.6274 34 37 28.6274 37 22C37 15.3726 31.6274 10 25 10C18.3726 10 13 15.3726 13 22C13 28.6274 18.3726 34 25 34Z" fill="#3B5998"/>
<path d="M29.5 34V25H32.5L33.25 21.25H29.5V19.75C29.5 18.25 30.2515 17.5 31.75 17.5H33.25V13.75C32.5 13.75 31.57 13.75 30.25 13.75C27.4938 13.75 25.75 15.9107 25.75 19V21.25H22.75V25H25.75V34H29.5Z" fill="white"/>
</g>
<defs>
<clipPath id="clip0_362_603">
<rect width="24" height="24" fill="white" transform="translate(13 10)"/>
</clipPath>
</defs>
</svg>
