<svg width="21" height="20" viewBox="0 0 21 20" fill="none" xmlns="http://www.w3.org/2000/svg">
<path d="M1.29102 16.6667V14.7084C1.29102 14.2222 1.41602 13.7813 1.66602 13.3854C1.91602 12.9896 2.26324 12.6945 2.70768 12.5C3.72157 12.0556 4.63477 11.7361 5.44727 11.5417C6.25977 11.3472 7.09657 11.25 7.95768 11.25C8.81879 11.25 9.65213 11.3472 10.4577 11.5417C11.2632 11.7361 12.173 12.0556 13.1868 12.5C13.6313 12.6945 13.982 12.9896 14.2389 13.3854C14.4959 13.7813 14.6243 14.2222 14.6243 14.7084V16.6667H1.29102ZM15.8743 16.6667V14.7084C15.8743 13.8334 15.6521 13.1146 15.2077 12.5521C14.7632 11.9896 14.1799 11.5347 13.4577 11.1875C14.416 11.2986 15.3188 11.4618 16.166 11.6771C17.0132 11.8924 17.7007 12.1389 18.2285 12.4167C18.6868 12.6806 19.048 13.007 19.3118 13.3959C19.5757 13.7847 19.7077 14.2222 19.7077 14.7084V16.6667H15.8743ZM7.95768 9.97919C7.04102 9.97919 6.29102 9.68752 5.70768 9.10419C5.12435 8.52085 4.83268 7.77085 4.83268 6.85419C4.83268 5.93752 5.12435 5.18752 5.70768 4.60419C6.29102 4.02085 7.04102 3.72919 7.95768 3.72919C8.87435 3.72919 9.62435 4.02085 10.2077 4.60419C10.791 5.18752 11.0827 5.93752 11.0827 6.85419C11.0827 7.77085 10.791 8.52085 10.2077 9.10419C9.62435 9.68752 8.87435 9.97919 7.95768 9.97919ZM15.4577 6.85419C15.4577 7.77085 15.166 8.52085 14.5827 9.10419C13.9993 9.68752 13.2493 9.97919 12.3327 9.97919C12.1799 9.97919 12.0098 9.96877 11.8223 9.94794C11.6348 9.9271 11.4646 9.88891 11.3118 9.83335C11.6452 9.48613 11.8987 9.05905 12.0723 8.5521C12.2459 8.04516 12.3327 7.47919 12.3327 6.85419C12.3327 6.22919 12.2459 5.6771 12.0723 5.19794C11.8987 4.71877 11.6452 4.2778 11.3118 3.87502C11.4646 3.83335 11.6348 3.79863 11.8223 3.77085C12.0098 3.74308 12.1799 3.72919 12.3327 3.72919C13.2493 3.72919 13.9993 4.02085 14.5827 4.60419C15.166 5.18752 15.4577 5.93752 15.4577 6.85419ZM2.54102 15.4167H13.3743V14.7084C13.3743 14.4861 13.3084 14.2709 13.1764 14.0625C13.0445 13.8542 12.8813 13.7084 12.6868 13.625C11.6868 13.1806 10.8466 12.882 10.166 12.7292C9.48546 12.5764 8.74935 12.5 7.95768 12.5C7.16602 12.5 6.42643 12.5764 5.73893 12.7292C5.05143 12.882 4.20768 13.1806 3.20768 13.625C3.01324 13.7084 2.85352 13.8542 2.72852 14.0625C2.60352 14.2709 2.54102 14.4861 2.54102 14.7084V15.4167ZM7.95768 8.72919C8.49935 8.72919 8.94727 8.5521 9.30143 8.19794C9.6556 7.84377 9.83268 7.39585 9.83268 6.85419C9.83268 6.31252 9.6556 5.8646 9.30143 5.51044C8.94727 5.15627 8.49935 4.97919 7.95768 4.97919C7.41602 4.97919 6.9681 5.15627 6.61393 5.51044C6.25977 5.8646 6.08268 6.31252 6.08268 6.85419C6.08268 7.39585 6.25977 7.84377 6.61393 8.19794C6.9681 8.5521 7.41602 8.72919 7.95768 8.72919Z" fill="#D7D2E6"/>
</svg>
