<svg width="640" height="533" viewBox="0 0 640 533" fill="none" xmlns="http://www.w3.org/2000/svg">
<mask id="mask0_355_493" style="mask-type:alpha" maskUnits="userSpaceOnUse" x="57" y="70" width="526" height="411">
<path d="M252.941 458.826C393.065 509.827 536.518 469.132 573.352 367.931C610.186 266.73 526.453 143.346 386.329 92.3454C246.205 41.3445 102.752 82.0394 65.9182 183.24C29.0842 284.441 112.817 407.825 252.941 458.826Z" fill="#D9D9D9"/>
</mask>
<g mask="url(#mask0_355_493)">
<path d="M250.535 253.035L291.455 256.575C296.365 257.01 299.966 261.258 299.584 266.159L291.291 365.866C290.909 370.712 286.654 374.306 281.798 373.979L240.932 371.257C235.967 370.93 232.257 366.628 232.639 361.673L240.878 261.204C241.314 256.248 245.624 252.6 250.535 253.035Z" fill="#0B1644"/>
<path d="M250.261 256.085L291.126 259.788C294.455 260.06 296.91 263.001 296.637 266.322L288.78 365.267C288.507 368.589 285.616 371.094 282.288 370.876L241.477 368.044C238.094 367.826 235.584 364.886 235.857 361.509L243.659 261.748C243.877 258.263 246.878 255.758 250.261 256.085Z" fill="#FFF7F7"/>
<path d="M247.533 326.93L283.216 330.197C284.852 330.361 285.998 331.777 285.834 333.41L285.234 339.455C285.071 341.034 283.652 342.177 282.07 342.069L246.388 339.074C244.751 338.91 243.55 337.494 243.714 335.861L244.369 329.49C244.532 327.965 245.951 326.767 247.533 326.93Z" fill="#FFF7F7"/>
<path d="M246.443 325.296L282.126 328.563C283.762 328.727 284.908 330.143 284.745 331.776L284.144 337.821C283.981 339.4 282.562 340.544 280.98 340.435L245.298 337.44C243.661 337.276 242.461 335.86 242.624 334.227L243.279 327.856C243.443 326.331 244.861 325.133 246.443 325.296Z" fill="#371E84"/>
<path d="M250.296 333.936C249.936 333.902 249.605 333.826 249.305 333.706C249.005 333.582 248.757 333.43 248.559 333.25L248.874 332.616C249.073 332.788 249.294 332.926 249.539 333.032C249.788 333.138 250.062 333.205 250.362 333.233C250.705 333.265 250.96 333.232 251.127 333.134C251.295 333.031 251.387 332.889 251.404 332.706C251.418 332.555 251.372 332.43 251.268 332.333C251.167 332.236 250.985 332.147 250.72 332.066L250.017 331.849C249.216 331.6 248.847 331.143 248.909 330.48C248.935 330.194 249.035 329.951 249.207 329.753C249.378 329.554 249.605 329.409 249.885 329.317C250.165 329.225 250.482 329.195 250.834 329.228C251.147 329.257 251.435 329.332 251.7 329.453C251.966 329.569 252.182 329.72 252.348 329.907L252.036 330.508C251.704 330.17 251.279 329.978 250.762 329.93C250.462 329.902 250.221 329.943 250.04 330.053C249.859 330.163 249.759 330.32 249.74 330.524C249.725 330.68 249.766 330.811 249.861 330.916C249.957 331.017 250.128 331.105 250.375 331.18L251.072 331.396C251.494 331.527 251.8 331.7 251.99 331.914C252.185 332.129 252.267 332.399 252.237 332.725C252.212 332.998 252.115 333.232 251.948 333.426C251.781 333.621 251.555 333.764 251.27 333.856C250.99 333.943 250.666 333.97 250.296 333.936Z" fill="#FFF7F7"/>
<path d="M254.175 334.296C253.332 334.218 252.949 333.762 253.027 332.929L253.156 331.543L252.543 331.487L252.6 330.875L253.213 330.932L253.301 329.982L254.116 330.058L254.028 331.007L254.992 331.097L254.936 331.709L253.971 331.619L253.846 332.959C253.826 333.168 253.857 333.328 253.939 333.441C254.021 333.553 254.164 333.619 254.368 333.638C254.429 333.644 254.492 333.643 254.559 333.636C254.625 333.625 254.694 333.614 254.766 333.603L254.834 334.213C254.751 334.249 254.648 334.274 254.524 334.289C254.404 334.304 254.288 334.306 254.175 334.296Z" fill="#FFF7F7"/>
<path d="M256.266 334.49C256.036 334.469 255.833 334.406 255.659 334.302C255.489 334.195 255.359 334.06 255.269 333.899C255.183 333.738 255.149 333.562 255.167 333.371C255.189 333.137 255.267 332.958 255.401 332.835C255.536 332.707 255.743 332.626 256.022 332.59C256.302 332.555 256.672 332.559 257.133 332.602L257.361 332.623L257.373 332.486C257.394 332.269 257.36 332.109 257.274 332.004C257.187 331.9 257.031 331.837 256.805 331.817C256.626 331.8 256.441 331.811 256.249 331.85C256.057 331.885 255.861 331.95 255.659 332.045L255.476 331.47C255.596 331.402 255.735 331.348 255.892 331.305C256.054 331.259 256.222 331.229 256.394 331.214C256.571 331.195 256.736 331.193 256.888 331.207C257.353 331.25 257.688 331.391 257.894 331.629C258.1 331.862 258.182 332.205 258.14 332.656L257.961 334.582L257.198 334.511L257.245 334.003C257.155 334.174 257.024 334.305 256.854 334.394C256.684 334.479 256.488 334.511 256.266 334.49ZM256.488 333.946C256.701 333.966 256.884 333.909 257.036 333.774C257.194 333.64 257.283 333.46 257.304 333.234L257.317 333.091L257.095 333.071C256.687 333.033 256.399 333.039 256.232 333.089C256.07 333.135 255.982 333.241 255.966 333.406C255.953 333.549 255.992 333.671 256.083 333.771C256.175 333.871 256.31 333.93 256.488 333.946Z" fill="#FFF7F7"/>
<path d="M258.788 334.659L259.084 331.477L259.88 331.551L259.827 332.11C260.019 331.747 260.373 331.57 260.89 331.579L261.139 331.582L261.127 332.277L260.653 332.279C260.114 332.281 259.821 332.53 259.775 333.024L259.616 334.735L258.788 334.659Z" fill="#FFF7F7"/>
<path d="M262.98 335.113C262.136 335.035 261.754 334.579 261.831 333.747L261.96 332.361L261.348 332.304L261.405 331.692L262.017 331.749L262.106 330.799L262.921 330.875L262.832 331.825L263.797 331.914L263.74 332.526L262.775 332.436L262.65 333.777C262.631 333.985 262.662 334.145 262.744 334.258C262.825 334.37 262.968 334.436 263.172 334.455C263.233 334.461 263.297 334.46 263.363 334.453C263.43 334.442 263.499 334.431 263.57 334.42L263.638 335.03C263.556 335.066 263.453 335.092 263.329 335.106C263.209 335.121 263.093 335.124 262.98 335.113Z" fill="#FFF7F7"/>
<path d="M267.252 335.51C266.917 335.479 266.632 335.384 266.397 335.227C266.162 335.065 265.989 334.852 265.878 334.588C265.766 334.324 265.727 334.023 265.758 333.685C265.79 333.346 265.884 333.062 266.041 332.831C266.199 332.597 266.408 332.426 266.668 332.319C266.928 332.207 267.226 332.167 267.56 332.198C267.764 332.217 267.964 332.268 268.157 332.352C268.351 332.435 268.508 332.542 268.627 332.671L268.333 333.215C268.23 333.105 268.109 333.017 267.97 332.951C267.836 332.886 267.703 332.848 267.573 332.836C267.291 332.81 267.063 332.878 266.89 333.041C266.722 333.201 266.622 333.443 266.592 333.768C266.562 334.089 266.614 334.35 266.749 334.551C266.889 334.748 267.1 334.859 267.382 334.885C267.508 334.897 267.645 334.883 267.794 334.845C267.942 334.806 268.077 334.74 268.2 334.646L268.388 335.241C268.247 335.342 268.071 335.417 267.86 335.468C267.654 335.514 267.452 335.528 267.252 335.51Z" fill="#FFF7F7"/>
<path d="M268.859 335.593L269.287 331.006L270.102 331.082L269.928 332.949C270.052 332.786 270.21 332.669 270.401 332.599C270.592 332.525 270.798 332.499 271.02 332.519C271.772 332.589 272.107 333.06 272.026 333.932L271.845 335.871L271.03 335.795L271.207 333.895C271.23 333.648 271.199 333.463 271.114 333.342C271.033 333.22 270.895 333.151 270.7 333.133C270.461 333.11 270.262 333.168 270.105 333.307C269.952 333.442 269.864 333.632 269.841 333.88L269.674 335.669L268.859 335.593Z" fill="#FFF7F7"/>
<path d="M273.716 336.11C273.486 336.088 273.283 336.026 273.109 335.922C272.939 335.815 272.809 335.68 272.719 335.519C272.633 335.357 272.599 335.181 272.617 334.991C272.639 334.756 272.717 334.578 272.851 334.454C272.986 334.327 273.193 334.246 273.472 334.21C273.752 334.175 274.122 334.179 274.583 334.221L274.811 334.243L274.823 334.106C274.844 333.889 274.81 333.728 274.724 333.624C274.637 333.52 274.481 333.457 274.255 333.436C274.076 333.42 273.891 333.431 273.699 333.47C273.507 333.505 273.311 333.57 273.109 333.665L272.926 333.09C273.046 333.022 273.185 332.967 273.342 332.925C273.504 332.879 273.672 332.848 273.844 332.834C274.021 332.815 274.186 332.813 274.338 332.827C274.803 332.87 275.138 333.011 275.344 333.249C275.55 333.482 275.632 333.824 275.59 334.276L275.411 336.201L274.648 336.131L274.695 335.623C274.605 335.794 274.474 335.924 274.304 336.013C274.134 336.098 273.938 336.13 273.716 336.11ZM273.938 335.566C274.151 335.586 274.334 335.528 274.486 335.394C274.644 335.26 274.733 335.08 274.754 334.854L274.767 334.711L274.545 334.69C274.137 334.653 273.849 334.659 273.682 334.709C273.52 334.755 273.431 334.861 273.416 335.025C273.403 335.169 273.442 335.29 273.533 335.391C273.625 335.491 273.76 335.549 273.938 335.566Z" fill="#FFF7F7"/>
<path d="M277.692 336.479C276.849 336.401 276.466 335.945 276.544 335.112L276.673 333.726L276.06 333.669L276.117 333.058L276.73 333.115L276.818 332.165L277.633 332.24L277.545 333.19L278.51 333.28L278.453 333.892L277.488 333.802L277.363 335.142C277.343 335.351 277.375 335.511 277.456 335.624C277.538 335.736 277.681 335.802 277.885 335.821C277.946 335.826 278.009 335.826 278.076 335.819C278.143 335.808 278.212 335.796 278.283 335.786L278.351 336.396C278.268 336.432 278.165 336.457 278.041 336.472C277.921 336.487 277.805 336.489 277.692 336.479Z" fill="#FFF7F7"/>
<path d="M295.19 295.087C295.19 295.087 297.255 293.346 299.755 294.271C302.255 295.196 303.233 301.89 294.864 307.386C286.496 312.828 295.19 295.087 295.19 295.087Z" fill="#FFF7F7" stroke="#371E84" stroke-width="2"/>
<path d="M294.538 310.488C294.538 310.488 303.558 309.944 305.841 312.393C308.123 314.842 305.623 320.882 294.538 324.093C283.453 327.304 294.538 310.488 294.538 310.488Z" fill="#FFF7F7" stroke="#371E84" stroke-width="2"/>
<path d="M294.482 373.779C294.482 373.779 301.329 366.813 299.319 362.514C297.308 358.215 293.667 354.841 287.962 355.657C286.984 366.323 286.984 366.323 286.984 366.323L294.482 373.779Z" fill="#FFF7F7" stroke="#371E84" stroke-width="2"/>
<path d="M293.18 340.692C293.18 340.692 284.703 347.386 285.572 352.284C286.442 357.181 293.451 359.304 299.157 352.501C304.863 345.699 303.939 336.447 293.506 334.488C293.18 340.202 293.18 340.692 293.18 340.692Z" fill="#FFF7F7" stroke="#371E84" stroke-width="2"/>
<path d="M286.169 381.398C285.245 383.412 283.507 385.969 281.442 388.745C275.301 396.908 266.009 406.703 264.379 408.281C262.151 410.458 259.163 416.281 259.163 416.281L233.243 483L164.612 482.946L199.878 423.9C199.878 423.9 214.604 399.03 218.625 391.248C222.647 383.52 220.908 376.936 219.223 365.181C217.484 353.426 220.853 341.399 224.277 329.318C227.7 317.237 233.025 312.176 236.557 312.393C239.655 312.611 239.383 318.38 238.894 321.754C238.459 325.128 239.437 336.719 239.383 339.059C239.329 341.454 242.752 355.766 243.241 358.052C243.622 359.739 247.208 366.052 249.164 369.48C249.925 370.786 250.414 371.602 250.414 371.602L287.691 374.813C287.799 374.868 289.81 373.562 286.169 381.398Z" stroke="#371E84" stroke-width="2" stroke-miterlimit="10"/>
<path d="M286.169 381.398C285.245 383.412 283.507 385.969 281.442 388.745C275.301 396.908 266.009 406.703 264.379 408.281C262.151 410.458 259.163 416.281 259.163 416.281L233.243 483L164.612 482.946L199.878 423.9C199.878 423.9 214.604 399.03 218.625 391.248C222.647 383.52 220.908 376.936 219.223 365.181C217.484 353.426 220.853 341.399 224.277 329.318C227.7 317.237 233.025 312.176 236.557 312.393C239.655 312.611 239.383 318.38 238.894 321.754C238.459 325.128 239.437 336.719 239.383 339.059C239.329 341.454 242.752 355.766 243.241 358.052C243.622 359.739 247.208 366.052 249.164 369.48C249.925 370.786 250.414 371.602 250.414 371.602L287.691 374.813C287.799 374.868 289.81 373.562 286.169 381.398Z" fill="#FFF7F7" stroke="#371E84" stroke-width="2"/>
<path d="M286.169 381.398C285.245 383.411 283.507 385.969 281.442 388.744C279.649 382.649 273.399 372.582 252.044 375.412C250.686 372.418 249.762 370.514 249.218 369.48C249.979 370.786 250.468 371.602 250.468 371.602L287.745 374.813C287.799 374.867 289.81 373.561 286.169 381.398Z" fill="#FFF7F7"/>
<path d="M252.207 390.921C252.207 390.921 257.641 384.826 250.468 371.657" stroke="#371E84" stroke-width="2" stroke-miterlimit="10" stroke-linecap="round"/>
<path d="M304.607 415.576C304.606 415.579 304.605 415.587 304.604 415.599C304.601 415.623 304.595 415.664 304.585 415.722C304.565 415.836 304.529 416.012 304.465 416.232C304.337 416.674 304.101 417.291 303.672 417.96C303.672 417.96 303.672 417.96 303.672 417.96C303.668 417.965 303.631 418.015 303.533 418.107C303.436 418.198 303.302 418.31 303.131 418.433C302.791 418.679 302.337 418.953 301.806 419.198C300.731 419.694 299.438 420.03 298.205 419.885C297.02 419.746 295.816 419.157 294.83 417.641C293.818 416.082 293.011 413.499 292.825 409.35C292.455 401.134 295.452 393.639 298.588 388.158C300.153 385.423 301.741 383.209 302.936 381.681C303.176 381.374 303.4 381.095 303.604 380.845L311.498 420.615C310.597 420.681 309.901 420.514 309.355 420.243C308.613 419.876 308.052 419.269 307.629 418.569C307.205 417.867 306.943 417.11 306.788 416.515C306.711 416.22 306.663 415.973 306.633 415.803C306.619 415.718 306.609 415.652 306.604 415.611C306.601 415.59 306.599 415.575 306.598 415.566L306.597 415.56L306.597 415.559C306.597 415.559 306.597 415.559 306.591 415.56L304.611 415.582C304.606 415.581 304.606 415.581 304.606 415.581L304.606 415.581L304.606 415.58L304.606 415.578L304.607 415.576ZM304.607 415.576C304.607 415.575 304.607 415.575 304.607 415.576L304.607 415.576Z" fill="#FFF7F7" stroke="#371E84" stroke-width="2"/>
<path d="M269.468 351.451L269.386 351.545C268.282 352.829 268.336 354.736 269.706 357.573C271.053 360.362 273.49 363.649 276.381 367.281C277.751 369.002 279.519 371.201 281.465 373.619C287.672 381.337 295.682 391.296 298.315 395.145C300.071 397.713 303.404 403.707 306.36 409.572C307.842 412.513 309.24 415.442 310.308 417.917C311.355 420.345 312.14 422.459 312.311 423.707C312.312 423.707 312.312 423.707 312.312 423.707L311.321 423.843C311.92 428.151 312.029 433.766 304.732 433.003L269.468 351.451ZM269.468 351.451L269.473 351.441M269.468 351.451L269.473 351.441M269.473 351.441C269.516 351.408 269.614 351.344 269.795 351.275C270.262 351.097 271.265 350.888 273.218 351.071C273.276 351.076 273.484 351.13 273.89 351.333C274.271 351.524 274.745 351.805 275.308 352.173C276.431 352.91 277.839 353.954 279.438 355.213C282.633 357.729 286.528 361.056 290.308 364.381C294.086 367.705 297.739 371.017 300.449 373.5C301.803 374.74 302.922 375.774 303.701 376.496C304.091 376.858 304.396 377.141 304.603 377.334L304.839 377.555L304.9 377.611L304.915 377.625L304.919 377.629L304.92 377.63C304.92 377.63 304.92 377.63 305.603 376.9L304.92 377.63L305.657 378.32L306.339 377.577L306.339 377.577L306.339 377.577L306.34 377.576L306.34 377.576L306.34 377.576L306.351 377.564C306.355 377.56 306.361 377.554 306.367 377.547C306.377 377.537 306.389 377.525 306.403 377.51C306.452 377.461 306.527 377.385 306.627 377.29C306.829 377.099 307.13 376.827 307.519 376.517C308.269 375.92 309.33 375.194 310.62 374.621C311.776 374.604 313.164 375 314.76 375.81C316.424 376.655 318.236 377.91 320.13 379.464C323.917 382.573 327.933 386.795 331.617 391.068C335.296 395.334 338.622 399.623 341.029 402.848C342.231 404.46 343.204 405.804 343.875 406.745C344.21 407.215 344.471 407.584 344.646 407.835C344.734 407.961 344.801 408.057 344.846 408.121L344.896 408.194L344.909 408.212L344.912 408.216L344.913 408.217C344.913 408.218 344.913 408.218 345.736 407.65L344.913 408.218L345.164 408.583L345.603 408.642C348.158 408.984 349.583 410.781 350.399 412.685C350.804 413.632 351.039 414.564 351.171 415.265C351.236 415.614 351.276 415.9 351.299 416.097C351.311 416.195 351.318 416.27 351.322 416.319C351.324 416.343 351.326 416.361 351.326 416.371L351.327 416.382L351.327 416.382L351.327 416.382L351.327 416.383L351.327 416.383L351.373 417.119L352.091 417.292C353.184 417.555 354.262 418.378 355.307 419.826C356.348 421.268 357.288 423.237 358.126 425.607C359.803 430.342 361.01 436.483 361.872 442.696C363.593 455.111 363.904 467.604 363.904 469.206C363.904 470.877 364.083 474.331 364.26 477.334C364.349 478.842 364.437 480.248 364.504 481.277C364.518 481.501 364.532 481.708 364.544 481.893L318.009 481.999L269.473 351.441Z" fill="#FFF7F7" stroke="#371E84" stroke-width="2"/>
<path d="M305.549 376.955C305.549 376.955 323.846 399.309 327.603 400.89" stroke="#371E84" stroke-width="2" stroke-miterlimit="10" stroke-linecap="round"/>
<path d="M334.301 410.649C334.301 410.649 337.024 415.556 339.964 433.603C342.905 451.704 342.905 452.958 342.905 452.958" stroke="#371E84" stroke-width="2" stroke-miterlimit="10" stroke-linecap="round"/>
<path d="M345.682 407.705C345.682 407.705 348.513 415.338 349.602 422.971C350.691 430.604 350.637 429.841 350.637 429.841" stroke="#371E84" stroke-width="2" stroke-miterlimit="10" stroke-linecap="round"/>
<path d="M352.271 416.374C352.271 416.374 354.885 427.987 354.776 428.259" stroke="#371E84" stroke-width="2" stroke-miterlimit="10" stroke-linecap="round"/>
<path d="M521.63 290H357.594C349.341 290 342.612 283.273 342.612 275.024V231.976C342.612 223.727 349.341 217 357.594 217H521.63C529.883 217 536.612 223.727 536.612 231.976V275.019C536.541 283.351 529.877 290 521.63 290Z" fill="#FFF7F7" stroke="#371E84" stroke-width="2"/>
<path d="M509.568 242H417.656C415.948 242 414.612 240.683 414.612 239C414.612 237.317 415.948 236 417.656 236H509.568C511.276 236 512.612 237.317 512.612 239C512.612 240.683 511.276 242 509.568 242Z" fill="#FFF7F7"/>
<path d="M463.626 254H417.598C415.923 254 414.612 252.683 414.612 251C414.612 249.317 415.923 248 417.598 248H463.626C465.301 248 466.612 249.317 466.612 251C466.612 252.683 465.301 254 463.626 254Z" fill="#FFF7F7"/>
<path d="M452.619 266H418.605C416.926 266 415.612 264.683 415.612 263C415.612 261.317 416.926 260 418.605 260H452.619C454.298 260 455.612 261.317 455.612 263C455.612 264.61 454.298 266 452.619 266Z" fill="#FFF7F7"/>
<path d="M366.505 234.194C366.505 234.194 364.88 239.941 364.733 242.705C364.585 245.469 362.517 256.016 373.966 255.652C373.966 255.652 373.892 257.543 373.67 257.979C373.522 258.489 373.079 259.725 371.676 260.671C370.346 261.689 368.721 278.855 368.721 278.855H389.403L386.227 257.47L384.38 248.378C384.38 248.378 387.483 240.013 387.335 238.486C387.187 236.958 384.528 232.667 381.056 232.594C377.733 232.594 366.505 234.194 366.505 234.194Z" fill="#FFF7F7" stroke="#371E84" stroke-width="0.4684" stroke-miterlimit="10"/>
<path d="M373.447 257.761L375.368 264.452L376.18 275.29L378.692 265.034L386.226 257.251C386.226 257.251 387.851 260.379 388.959 260.525C390.067 260.67 392.504 261.688 393.908 261.834C395.385 261.907 401.737 263.507 402.919 264.816C404.101 266.125 406.612 279 406.612 279H354.612C354.612 279 356.311 265.034 363.697 262.125C363.697 262.125 364.436 261.688 365.396 261.397C366.356 261.106 369.237 260.743 370.641 260.816V260.234C370.641 260.234 371.453 260.234 372.044 259.652C372.635 259.143 373.004 257.688 373.447 257.761Z" fill="#876FD1" stroke="#371E84" stroke-width="0.4684" stroke-miterlimit="10"/>
<path d="M370.715 260.379L371.971 270.999L375.147 264.671" fill="#876FD1"/>
<path d="M370.715 260.379L371.971 270.999L375.147 264.671" stroke="#371E84" stroke-width="0.4684" stroke-miterlimit="10" stroke-linecap="round"/>
<path d="M378.84 264.962L382.164 270.853L388.812 260.379" fill="#876FD1"/>
<path d="M378.84 264.962L382.164 270.853L388.812 260.379" stroke="#371E84" stroke-width="0.4684" stroke-miterlimit="10" stroke-linecap="round"/>
<path d="M362.884 275L362.515 278.928" stroke="#371E84" stroke-width="0.4684" stroke-miterlimit="10" stroke-linecap="round"/>
<path d="M365.913 244.886C367.708 244.886 369.163 243.453 369.163 241.685C369.163 239.918 367.708 238.485 365.913 238.485C364.118 238.485 362.663 239.918 362.663 241.685C362.663 243.453 364.118 244.886 365.913 244.886Z" stroke="#371E84" stroke-width="0.4684" stroke-miterlimit="10"/>
<path d="M373.889 245.032C375.684 245.032 377.139 243.599 377.139 241.831C377.139 240.064 375.684 238.631 373.889 238.631C372.094 238.631 370.639 240.064 370.639 241.831C370.639 243.599 372.094 245.032 373.889 245.032Z" stroke="#371E84" stroke-width="0.4684" stroke-miterlimit="10"/>
<path d="M368.943 240.522H370.863" stroke="#371E84" stroke-width="0.3122" stroke-miterlimit="10"/>
<path d="M376.994 240.522H378.249" stroke="#371E84" stroke-width="0.3122" stroke-miterlimit="10"/>
<path d="M370.344 243.286H368.572C367.685 243.286 367.021 243.94 367.021 244.813C367.021 245.686 367.685 246.341 368.572 246.341H370.344" fill="#FFF7F7"/>
<path d="M370.344 243.286H368.572C367.685 243.286 367.021 243.94 367.021 244.813C367.021 245.686 367.685 246.341 368.572 246.341H370.344" stroke="#371E84" stroke-width="0.4684" stroke-miterlimit="10"/>
<path d="M373.077 242.485V242.122C373.077 241.613 373.446 241.249 373.963 241.249C374.48 241.249 374.849 241.613 374.849 242.122V242.485" stroke="#371E84" stroke-width="0.6245" stroke-miterlimit="10" stroke-linecap="round"/>
<path d="M365.839 242.485V242.122C365.839 241.613 366.208 241.249 366.725 241.249C367.242 241.249 367.611 241.613 367.611 242.122V242.485" stroke="#371E84" stroke-width="0.6245" stroke-miterlimit="10" stroke-linecap="round"/>
<path d="M369.828 249.541C369.828 249.541 373.374 250.341 374.26 247.432" stroke="#371E84" stroke-width="0.6245" stroke-miterlimit="10" stroke-linecap="round"/>
<path d="M373.964 255.651C373.964 255.651 377.214 255.724 379.873 251.651" stroke="#371E84" stroke-width="0.4684" stroke-miterlimit="10" stroke-linecap="round"/>
<path d="M364.731 227.138C362.81 228.229 358.378 234.557 366.208 235.576C366.208 235.576 376.623 236.012 377.952 235.721C379.282 235.43 379.799 236.303 379.503 237.249C379.208 238.267 377.435 242.268 378.396 244.304H379.651C379.651 244.304 379.725 241.249 382.606 240.886C385.486 240.522 385.486 243.504 385.043 244.304C384.6 245.104 382.753 247.068 382.753 247.65C382.753 248.232 382.384 249.323 384.378 249.323C386.373 249.323 389.401 241.395 389.18 238.558C388.958 235.721 386.668 225.102 374.333 229.248C374.333 229.248 371.378 227.575 370.123 227.647C368.867 227.72 367.538 227.647 366.947 227.502C366.06 227.211 365.322 226.775 364.731 227.138Z" fill="#371E84"/>
<path d="M177.854 301H166.37C154.383 301 144.612 291.372 144.612 279.561V189.439C144.612 177.628 154.383 168 166.37 168H177.854C189.841 168 199.612 177.628 199.612 189.439V279.561C199.511 291.372 189.841 301 177.854 301Z" fill="#FFD9D7"/>
<path d="M182.315 257C182.659 257 182.989 257.137 183.232 257.38C183.475 257.623 183.612 257.953 183.612 258.297V279.703C183.612 280.047 183.475 280.377 183.232 280.62C182.989 280.863 182.659 281 182.315 281H160.909C160.565 281 160.235 280.863 159.992 280.62C159.749 280.377 159.612 280.047 159.612 279.703V258.297C159.612 257.953 159.749 257.623 159.992 257.38C160.235 257.137 160.565 257 160.909 257H182.315Z" stroke="#371E84" stroke-width="1.5" stroke-linecap="round" stroke-linejoin="round"/>
<path d="M166.877 261.281C166.3 261.281 165.735 261.452 165.255 261.773C164.775 262.094 164.401 262.55 164.18 263.083C163.959 263.616 163.902 264.203 164.014 264.769C164.127 265.336 164.405 265.856 164.813 266.264C165.221 266.672 165.741 266.95 166.308 267.063C166.874 267.175 167.461 267.118 167.994 266.897C168.527 266.676 168.983 266.302 169.304 265.822C169.625 265.342 169.796 264.777 169.796 264.2C169.788 263.428 169.477 262.691 168.932 262.145C168.386 261.6 167.649 261.29 166.877 261.281ZM174.207 267.054L169.536 271.724C169.496 271.77 169.446 271.807 169.39 271.832C169.334 271.857 169.273 271.87 169.212 271.87C169.151 271.87 169.09 271.857 169.034 271.832C168.979 271.807 168.929 271.77 168.888 271.724L167.98 270.816C167.939 270.771 167.889 270.734 167.833 270.709C167.777 270.684 167.717 270.671 167.655 270.671C167.594 270.671 167.534 270.684 167.478 270.709C167.422 270.734 167.372 270.771 167.331 270.816L162.272 275.876C162.226 275.916 162.189 275.966 162.164 276.022C162.139 276.078 162.126 276.139 162.126 276.2C162.126 276.261 162.139 276.322 162.164 276.378C162.189 276.434 162.226 276.484 162.272 276.524C162.36 276.606 162.476 276.652 162.596 276.654H180.628C180.688 276.656 180.748 276.645 180.804 276.623C180.86 276.601 180.911 276.568 180.953 276.525C180.996 276.483 181.029 276.432 181.052 276.376C181.074 276.32 181.084 276.26 181.082 276.2C181.092 276.109 181.069 276.017 181.018 275.941L174.855 267.119C174.774 267.031 174.663 266.976 174.543 266.964C174.424 266.952 174.304 266.984 174.207 267.054Z" stroke="#371E84" stroke-width="1.5" stroke-linecap="round" stroke-linejoin="round"/>
<path d="M171.671 212C169.534 212 167.484 212.849 165.972 214.36C164.461 215.872 163.612 217.921 163.612 220.059C163.612 226.364 169.781 233.966 171.378 235.829C171.424 235.883 171.481 235.926 171.545 235.956C171.61 235.985 171.68 236 171.751 236C171.822 236 171.892 235.984 171.956 235.954C172.02 235.923 172.076 235.879 172.122 235.825C173.692 233.956 179.728 226.36 179.728 220.059C179.728 217.921 178.879 215.872 177.368 214.36C175.857 212.849 173.807 212 171.67 212H171.671ZM171.671 223.07C171.075 223.07 170.493 222.893 169.998 222.563C169.503 222.232 169.117 221.762 168.889 221.211C168.661 220.661 168.601 220.056 168.717 219.472C168.833 218.888 169.12 218.351 169.541 217.93C169.962 217.509 170.499 217.222 171.083 217.105C171.667 216.989 172.272 217.049 172.822 217.276C173.373 217.504 173.843 217.89 174.174 218.385C174.505 218.88 174.682 219.462 174.682 220.057C174.682 220.453 174.605 220.845 174.453 221.21C174.302 221.576 174.08 221.908 173.801 222.188C173.521 222.467 173.189 222.689 172.824 222.841C172.458 222.992 172.066 223.07 171.671 223.07Z" stroke="#371E84" stroke-width="1.5" stroke-linecap="round" stroke-linejoin="round"/>
<path d="M166.581 200H147.643C137.671 200 129.612 191.941 129.612 181.969V163.031C129.612 153.059 137.671 145 147.643 145H166.581C176.554 145 184.612 153.059 184.612 163.031V181.969C184.612 191.941 176.554 200 166.581 200Z" fill="#FD6D5D"/>
<path d="M155.93 177.637V183.125C155.93 183.602 155.545 184 155.084 184C154.973 183.999 154.862 183.976 154.76 183.931C154.657 183.887 154.565 183.822 154.488 183.741L146.149 175.152C144.515 173.481 143.612 171.194 143.612 168.829C143.612 163.957 147.436 160 152.163 160H161.061C165.788 160 169.612 163.958 169.612 168.829C169.612 173.7 165.788 177.657 161.061 177.657H155.93V177.637Z" stroke="#FFF7F7" stroke-width="2" stroke-linecap="round" stroke-linejoin="round"/>
</g>
<path d="M573.331 367.418C555.12 417.452 510.509 452.657 452.859 469.011C395.211 485.364 324.641 482.821 254.842 457.416C185.044 432.011 129.348 388.598 95.6995 339.015C62.0494 289.431 50.5048 233.787 68.7156 183.753C86.9265 133.719 131.537 98.5144 189.187 82.1602C246.835 65.8066 317.405 68.3503 387.204 93.755C457.003 119.16 512.698 162.573 546.347 212.156C579.997 261.74 591.541 317.384 573.331 367.418Z" stroke="url(#paint0_linear_355_493)" stroke-width="3"/>
<defs>
<linearGradient id="paint0_linear_355_493" x1="359.5" y1="202.5" x2="254.329" y2="458.826" gradientUnits="userSpaceOnUse">
<stop stop-color="#FD6D5D" stop-opacity="0"/>
<stop offset="1" stop-color="#FD6D5D"/>
</linearGradient>
</defs>
</svg>
