<svg width="570" height="556" viewBox="0 0 570 556" fill="none" xmlns="http://www.w3.org/2000/svg">
<path d="M275.381 386.363C275.381 386.363 264.266 353.165 284.859 338.975C305.452 324.784 300.541 312.658 272.365 307.928C244.189 303.198 149.753 292.103 139.758 226.311C129.763 160.432 165.09 120.441 231.092 110.379C297.094 100.316 426.772 85.6098 449.52 138.846C472.267 192.082 464.254 224.161 436.853 250.994C409.453 277.827 357.237 300.531 343.451 316.786C329.665 333.041 319.152 348.349 300.455 351.531C281.757 354.713 278.569 376.3 282.274 386.277C285.893 396.339 275.381 386.363 275.381 386.363Z" fill="#FFD9D7" stroke="#FD6D5D" stroke-width="1.5" stroke-miterlimit="10"/>
<path d="M443.403 105.047C443.403 105.047 471.579 127.838 475.198 135.75C478.903 143.662 485.796 150.371 475.198 169.119C464.599 187.868 450.124 201.887 442.369 203.521C434.614 205.155 424.447 204.983 402.647 188.04C380.847 171.097 349.828 154.671 350.259 142.028C350.69 129.386 369.215 68.3237 396.529 77.5261C423.844 86.7284 443.403 105.047 443.403 105.047Z" fill="#FFF7F7"/>
<path d="M411.801 147.148C409.388 144.653 413.352 138.719 416.799 135.623C420.245 132.613 425.157 125.045 426.363 119.971C427.569 114.896 430.843 108.962 437.133 121.777C443.423 134.591 451.351 142.073 443.854 151.706C436.358 161.338 411.801 147.148 411.801 147.148Z" fill="#FD6D5D" stroke="#FD6D5D" stroke-width="1.5" stroke-miterlimit="10"/>
<path d="M405.08 149.814C402.668 147.319 406.631 141.385 410.078 138.289C413.524 135.279 418.436 127.711 419.642 122.637C420.848 117.562 424.123 111.628 430.413 124.443C436.703 137.257 444.63 144.739 437.134 154.372C429.637 164.004 405.08 149.814 405.08 149.814Z" stroke="#FD6D5D" stroke-width="1.4671" stroke-miterlimit="10" stroke-linecap="round" stroke-linejoin="round"/>
<path d="M335.697 249.016C335.697 249.016 345.778 258.219 341.987 270.431C338.196 282.643 330.614 295.2 311.743 288.922C292.787 282.643 260.217 267.507 255.392 267.335C250.567 267.163 239.796 271.721 239.365 272.581C238.934 273.441 238.073 219.689 260.648 222.871C283.137 225.881 335.697 249.016 335.697 249.016Z" fill="#FFF7F7"/>
<path d="M447.022 100.66C459.602 109.347 501.478 140.222 477.955 167.915C437.458 233.019 413.245 181.159 377.487 160.605C368.354 155.186 347.416 144.866 355.343 124.225C363.27 103.67 381.709 51.5526 426.945 84.8358" stroke="#FD6D5D" stroke-width="1.4671" stroke-miterlimit="10" stroke-linecap="round" stroke-linejoin="round"/>
<path d="M341.039 243.855C341.039 243.855 351.12 253.058 347.329 265.27C343.538 277.482 335.955 290.039 317.085 283.761C298.129 277.482 265.559 262.346 260.734 262.174C255.908 262.002 245.138 266.56 244.707 267.42C244.276 268.28 243.414 214.528 265.99 217.71C288.565 220.892 341.039 243.855 341.039 243.855Z" stroke="#FD6D5D" stroke-width="1.4671" stroke-miterlimit="10" stroke-linecap="round" stroke-linejoin="round"/>
<path d="M318.549 270.602C315.409 270.602 312.863 268.061 312.863 264.926C312.863 261.791 315.409 259.25 318.549 259.25C321.69 259.25 324.236 261.791 324.236 264.926C324.236 268.061 321.69 270.602 318.549 270.602Z" stroke="#FD6D5D" stroke-width="1.4671" stroke-miterlimit="10" stroke-linecap="round" stroke-linejoin="round"/>
<path d="M294.682 260.798C291.541 260.798 288.995 258.256 288.995 255.122C288.995 251.987 291.541 249.445 294.682 249.445C297.823 249.445 300.369 251.987 300.369 255.122C300.369 258.256 297.823 260.798 294.682 260.798Z" stroke="#FD6D5D" stroke-width="1.4671" stroke-miterlimit="10" stroke-linecap="round" stroke-linejoin="round"/>
<path d="M267.885 251.338C264.745 251.338 262.199 248.797 262.199 245.662C262.199 242.527 264.745 239.986 267.885 239.986C271.026 239.986 273.572 242.527 273.572 245.662C273.572 248.797 271.026 251.338 267.885 251.338Z" stroke="#FD6D5D" stroke-width="1.4671" stroke-miterlimit="10" stroke-linecap="round" stroke-linejoin="round"/>
<path d="M340.866 160.777C340.866 160.777 348.19 183.224 342.848 188.814C337.506 194.404 317.343 214.787 292.528 211.089C267.713 207.304 266.075 182.02 266.075 182.02C266.075 182.02 274.433 175.139 284.428 175.569C294.424 175.999 303.816 174.967 310.278 166.625C316.74 158.283 332.336 155.015 340.866 160.777Z" fill="#FFF7F7"/>
<path d="M336.902 151.058C336.902 151.058 322.685 146.758 314.672 150.198C306.659 153.552 303.987 167.313 291.063 166.711C278.138 166.109 273.571 165.249 268.574 169.377C263.576 173.505 262.542 173.591 262.542 173.591C262.542 173.591 252.116 148.822 260.905 135.922C269.694 123.021 314.844 117.603 320.273 122.849C325.701 127.923 333.37 136.868 336.902 151.058Z" fill="#FFF7F7"/>
<path d="M272.883 152.262C269.743 152.262 267.197 149.721 267.197 146.586C267.197 143.451 269.743 140.91 272.883 140.91C276.024 140.91 278.57 143.451 278.57 146.586C278.57 149.721 276.024 152.262 272.883 152.262Z" fill="#FD6D5D" stroke="#FD6D5D" stroke-width="1.5" stroke-miterlimit="10"/>
<path d="M192.147 101.778C253.324 116.743 249.188 196.467 188.614 201.8C166.987 202.23 141.913 199.133 134.244 173.505C126.575 147.876 129.074 117.775 156.13 108.4C183.186 99.0259 192.147 101.778 192.147 101.778Z" fill="#FFF7F7"/>
<path d="M184.047 95.8438C245.224 110.808 241.088 190.533 180.514 195.865C94.4358 200.854 108.05 86.2974 184.047 95.8438Z" stroke="#FD6D5D" stroke-width="1.4671" stroke-miterlimit="10" stroke-linecap="round" stroke-linejoin="round"/>
<path d="M445.385 228.204C493.982 269.657 426.946 339.75 382.227 300.274C364.046 284.192 352.672 264.411 364.477 244.544C376.281 224.678 400.924 193.975 445.385 228.204Z" fill="#FFF7F7"/>
<path d="M445.385 222.441C493.982 263.895 426.946 333.901 382.227 294.512C364.046 278.429 352.672 258.648 364.477 238.782C376.281 218.915 400.924 188.212 445.385 222.441Z" stroke="#FD6D5D" stroke-width="1.4671" stroke-miterlimit="10" stroke-linecap="round" stroke-linejoin="round"/>
<path d="M401.597 247.547C401.597 247.547 382.727 243.763 387.897 261.221C393.067 278.68 420.036 277.476 420.036 277.476C420.036 277.476 432.358 239.893 415.297 233.27C398.323 226.734 401.597 247.547 401.597 247.547Z" fill="#FD6D5D" stroke="#FD6D5D" stroke-width="1.5" stroke-miterlimit="10"/>
<path d="M171.573 169.531C171.573 169.531 182.861 178.045 191.822 163.683C200.783 149.32 202.678 141.15 196.647 138.14C190.615 135.13 186.479 134.614 186.824 128.937C187.083 123.261 194.407 108.727 190.185 108.125C186.049 107.523 184.412 108.985 180.017 115.091C175.537 121.197 160.889 128.507 156.063 129.109C151.238 129.711 138.4 140.118 142.966 147.6C147.447 155.168 171.573 169.531 171.573 169.531Z" fill="#FD6D5D"/>
<path d="M145.38 145.966C145.38 145.966 146.414 133.925 151.843 133.753C157.271 133.581 170.971 133.753 175.624 126.099C180.191 118.445 187.687 111.736 187.687 111.736C191.478 111.908 194.236 112.166 191.651 121.541C189.066 130.915 186.05 137.795 189.152 140.031C192.254 142.353 203.283 144.417 202.938 149.148C202.508 153.964 191.306 177.443 182.517 179.077C173.729 180.711 145.467 157.834 145.467 157.834C145.467 157.834 139.693 151.298 145.38 145.966Z" stroke="#FD6D5D" stroke-width="1.4671" stroke-miterlimit="10" stroke-linecap="round" stroke-linejoin="round"/>
<path d="M342.849 155.788C342.849 155.788 325.875 146.672 313.122 158.712C300.37 170.753 296.837 172.645 285.377 172.645C273.917 172.645 265.129 172.215 267.455 178.923C269.781 185.545 276.847 200.51 276.847 200.51C276.847 200.51 285.808 208.078 294.511 206.186C303.213 204.294 332.251 196.038 336.99 190.361C341.815 184.771 347.071 179.955 344.917 167.915C342.849 155.788 342.849 155.788 342.849 155.788Z" stroke="#FD6D5D" stroke-width="1.4671" stroke-miterlimit="10" stroke-linecap="round" stroke-linejoin="round"/>
<path d="M340.867 149.768C340.867 149.768 333.543 119.237 317.344 119.581C301.059 120.011 269.006 123.709 260.906 135.836C252.807 147.876 255.909 153.466 258.235 161.035C260.562 168.517 263.664 173.505 263.664 173.505C263.664 173.505 269.092 169.549 270.729 166.883C272.366 164.217 287.962 167.915 291.15 166.711C294.338 165.421 307.004 158.197 311.571 152.606C316.138 147.016 333.974 146.242 340.867 149.768Z" stroke="#FD6D5D" stroke-width="1.4671" stroke-miterlimit="10" stroke-linecap="round" stroke-linejoin="round"/>
<path d="M271.506 416.635C271.506 416.635 264.096 424.032 259.27 431.342C254.531 438.652 227.648 483.374 208.347 464.367C189.046 445.36 208.347 375.096 208.347 375.096L223.426 367.442C223.426 367.442 217.394 432.718 219.462 438.824C221.617 444.93 225.408 441.232 231.095 436.158C236.782 431.17 260.908 411.647 260.908 411.647L271.506 416.635Z" fill="#FFF7F7" stroke="#371E84" stroke-width="1.1003" stroke-miterlimit="10"/>
<path d="M194.903 317.044C194.903 317.044 209.121 319.28 217.306 342.587C225.492 365.894 224.63 366.496 224.63 366.496L208.517 378.02L194.903 317.044Z" fill="#876FD1" stroke="#371E84" stroke-width="1.1003" stroke-miterlimit="10"/>
<path d="M192.321 312.314C192.321 312.314 213.862 336.051 217.739 357.466C221.53 378.795 220.583 385.331 216.102 394.275C211.621 403.22 207.486 425.064 207.658 439.685C207.83 454.391 208.778 474 208.778 474H111.067L146.653 370.452C146.653 370.452 120.115 354.198 106.156 351.36C106.156 351.36 116.237 314.464 128.214 312.4C140.191 310.422 154.839 308.702 161.646 307.154C168.367 305.434 192.321 312.314 192.321 312.314Z" fill="#876FD1" stroke="#371E84" stroke-width="1.1003" stroke-miterlimit="10"/>
<path d="M159.203 333.041C159.203 333.041 160.237 343.189 150.5 363.056" stroke="#371E84" stroke-miterlimit="10"/>
<path d="M264.181 385.417C264.181 385.417 237.47 388.427 234.109 390.405C230.835 392.383 209.811 407.777 209.811 407.777C209.811 407.777 135.451 423.172 129.592 419.904L149.927 363.056C149.927 363.056 110.032 345.339 107.878 345.425C105.724 345.597 88.2327 397.801 85.9062 414.314C83.4936 430.826 84.8722 461.959 102.967 464.195C121.061 466.431 199.299 430.998 215.929 423.172C215.929 423.172 231.611 417.152 233.334 415.002C233.334 415.002 231.266 419.302 233.334 419.646C235.402 419.99 247.379 413.884 251.601 402.961C251.601 402.961 251.687 399.263 244.277 396.167C244.277 396.167 263.405 392.727 264.181 392.039C264.956 391.265 272.108 387.137 264.181 385.417Z" fill="#FFF7F7" stroke="#371E84" stroke-width="1.1003" stroke-miterlimit="10"/>
<path d="M292.444 384.127C292.444 384.127 293.047 381.289 289.6 381.031C286.154 380.773 267.801 381.031 267.801 381.031C267.801 381.031 264.613 380.773 263.234 384.127C261.855 387.481 239.711 421.538 239.711 421.538C239.711 421.538 239.711 424.892 242.296 424.72C244.881 424.634 266.077 425.15 266.077 425.15L292.444 384.127Z" fill="#371E84" stroke="#0B1644" stroke-width="0.7335" stroke-miterlimit="10"/>
<path d="M288.909 391.179C288.909 391.179 289.598 404.079 287.013 409.067C284.428 414.056 280.206 423.172 267.885 418.614C255.563 414.056 256.166 409.583 257.631 409.583C259.182 409.583 262.37 409.411 262.37 409.411C262.37 409.411 257.89 406.315 258.837 404.853C259.785 403.391 262.37 402.273 263.921 402.789C265.472 403.305 261.853 401.155 262.801 399.263C263.749 397.371 264.955 396.769 267.798 397.113C270.642 397.457 283.567 399.349 283.567 399.349L288.909 391.179Z" fill="#FFF7F7" stroke="#371E84" stroke-width="1.1003" stroke-miterlimit="10"/>
<path d="M178.447 295.888C179.222 282.213 184.737 255.122 184.737 255.122L223.425 269.743C223.425 269.743 223.08 282.213 219.978 287.029C219.978 287.029 225.407 291.243 224.631 292.705C223.856 294.167 219.203 293.651 218.083 294.425C216.963 295.199 206.278 315.238 195.249 306.552C194.646 307.756 194.043 309.39 194.387 310.938C194.991 314.292 196.628 316.184 196.8 326.247C196.972 336.309 196.8 364.346 196.8 364.346C196.8 364.346 167.418 308.1 157.509 303.456C150.099 300.016 168.538 297.178 178.447 295.888Z" fill="#FFF7F7" stroke="#371E84" stroke-width="1.1003" stroke-miterlimit="10"/>
<path d="M212.912 297.092C212.912 297.092 209.896 295.974 211.016 291.244L212.912 297.092Z" fill="#FD6D5D"/>
<path d="M212.912 297.092C212.912 297.092 209.896 295.974 211.016 291.244" stroke="#FD6D5D" stroke-width="1.8407" stroke-miterlimit="10" stroke-linecap="round" stroke-linejoin="round"/>
<path d="M199.212 282.987C199.212 282.987 201.625 279.805 198.006 276.107L199.212 282.987Z" fill="#FD6D5D"/>
<path d="M199.212 282.987C199.212 282.987 201.625 279.805 198.006 276.107" stroke="#FD6D5D" stroke-width="1.8407" stroke-miterlimit="10" stroke-linecap="round" stroke-linejoin="round"/>
<path d="M213.232 285.256C212.467 284.87 212.247 283.767 212.74 282.792C213.233 281.817 214.253 281.338 215.018 281.724C215.782 282.109 216.003 283.212 215.51 284.187C215.016 285.162 213.997 285.641 213.232 285.256Z" fill="#FD6D5D"/>
<path d="M217.134 273.097C217.134 273.097 227.301 273.527 228.163 264.324C228.163 264.324 240.571 263.292 238.761 250.134C236.952 237.061 222.907 240.243 222.907 240.243C222.907 240.243 214.721 223.817 200.332 232.073C200.332 232.073 196.282 227.429 191.457 231.987C191.457 231.987 184.908 225.623 178.446 232.417C178.446 232.417 176.378 223.645 167.675 225.193C158.886 226.741 158.025 235.255 158.025 235.255C158.025 235.255 153.458 228.289 145.359 233.363C137.259 238.437 140.964 247.726 140.964 247.726C140.964 247.726 125.885 252.628 135.622 264.926C135.622 264.926 127.178 269.915 133.813 280.493C133.813 280.493 130.194 293.393 141.137 302.424C152.166 311.454 164.143 306.036 164.143 306.036C164.143 306.036 169.226 313.948 179.049 309.476C188.958 305.004 183.874 298.038 183.874 298.038C183.874 298.038 193.266 296.662 195.765 288.147C195.765 288.147 181.806 283.761 190.94 273.011C193.611 270.517 203.864 269.829 204.209 281.353C204.209 281.353 205.674 282.729 206.88 277.053C206.88 277.225 212.912 279.977 217.134 273.097Z" fill="#371E84"/>
</svg>
