<svg width="150" height="70" viewBox="0 0 150 70" fill="none" xmlns="http://www.w3.org/2000/svg">
<g clip-path="url(#clip0_355_303)">
<g clip-path="url(#clip1_355_303)">
<g clip-path="url(#clip2_355_303)">
<path d="M50.3954 35.9552V33.8076H33.4593V32.3958H50.1665C50.1665 32.3958 48.8323 18.9319 34.8838 17.2046V29.5958H46.4069C46.4069 29.5958 44.4659 24.4128 41.555 23.2213V27.5108H37.1279V20.064C37.1279 20.064 45.1935 21.1961 47.8015 30.549L33.4593 30.466V17H31.2738V30.4532L16.933 30.3702C16.933 30.3702 18.8732 22.0299 27.7882 19.7067L27.667 27.5108H23.3007V23.1026C23.3007 23.1026 19.6619 24.8896 18.2064 29.5961H29.6684V17.2643C29.6684 17.2643 16.0835 19.2302 14.2037 32.3958H31.2738V33.8076H14.0002V35.9552H31.2738V37.578H14.2339C16.1141 50.7432 29.6989 52.7091 29.6989 52.7091V40.3777H18.2366C19.6921 45.0842 23.3309 46.8712 23.3309 46.8712V42.463H27.6976L27.8188 50.2672C18.9038 47.944 16.9632 39.6033 16.9632 39.6033L31.2738 39.5207V52.751H33.4593V39.5078L47.8318 39.4252C45.224 48.7777 37.1581 49.9102 37.1581 49.9102V42.463H41.5856V46.7521C44.4965 45.561 46.4371 40.3784 46.4371 40.3784H34.914V52.7692C48.8628 51.0419 50.1971 37.578 50.1971 37.578H33.4593V35.9552H50.3954Z" fill="#FFF7F7"/>
</g>
</g>
<path d="M54.4043 18.0787C54.4043 17.4829 54.1784 17 53.8998 17C53.6213 17 53.3954 17.4829 53.3954 18.0787V51.8694C53.3954 52.4651 53.6213 52.9481 53.8998 52.9481C54.1784 52.9481 54.4043 52.4651 54.4043 51.8694V18.0787Z" fill="#FFF7F7"/>
<g clip-path="url(#clip3_355_303)">
<g clip-path="url(#clip4_355_303)">
<g clip-path="url(#clip5_355_303)">
<g clip-path="url(#clip6_355_303)">
<path d="M60.4497 28.273V19.0198H57.5444V17.7982H64.7223V19.0198H61.8169V28.273H60.4497ZM66.1206 28.273V17.7982H70.4086C71.434 17.7982 72.2211 18.0599 72.7702 18.5831C73.3192 19.1083 73.5936 19.8138 73.5936 20.6994C73.5936 21.3508 73.428 21.9157 73.0964 22.3943C72.7649 22.8728 72.2988 23.2087 71.6982 23.402L73.8422 28.273H72.3196L70.3465 23.6464H67.4878V28.273H66.1206ZM67.4878 22.4248H70.362C70.9005 22.4248 71.3355 22.2669 71.6671 21.9515C71.9986 21.636 72.1643 21.2185 72.1643 20.6994C72.1643 20.1702 72.0089 19.7579 71.6982 19.4626C71.3874 19.1673 70.9422 19.0198 70.362 19.0198H67.4878V22.4248ZM74.2151 28.273L77.602 17.7982H79.3577L82.7446 28.273H81.2687L80.5384 25.9368H76.3125L75.5823 28.273H74.2151ZM76.6854 24.7152H80.15L78.7051 20.0581C78.6327 19.8342 78.5498 19.4473 78.4565 18.8976H78.3944C78.3012 19.4574 78.2182 19.8443 78.1458 20.0581L76.6854 24.7152ZM85.1683 28.273L81.9212 17.7982H83.4282L86.0694 26.7918H86.1316L88.8505 17.7982H90.1711L86.9239 28.273H85.1683ZM91.3829 28.273V17.7982H97.9549V19.0198H92.7501V22.3027H97.2713V23.5242H92.7501V27.0514H98.0481V28.273H91.3829ZM99.8814 28.273V17.7982H101.249V27.0514H105.599V28.273H99.8814Z" fill="#FFF7F7"/>
<path d="M59.8745 40.0303L57.4042 29.5555H58.8491L60.4805 36.7932C60.5737 37.1801 60.6824 37.801 60.8067 38.656H60.8689C60.9518 37.9943 61.0398 37.3734 61.133 36.7932L62.3604 29.5555H64.2558L65.5764 36.7932C65.6697 37.2818 65.7629 37.9027 65.8561 38.656H65.9182C66.0323 37.852 66.141 37.2308 66.2445 36.7932L67.8758 29.5555H69.1188L66.6485 40.0303H64.8773L63.5722 32.9301C63.4893 32.4821 63.3911 31.7797 63.277 30.8229H63.2149C63.1009 31.7797 63.0027 32.4821 62.9197 32.9301L61.6457 40.0303H59.8745ZM70.3617 40.0303V29.5555H71.7289V40.0303H70.3617ZM76.017 40.0303V30.7771H73.1117V29.5555H80.2895V30.7771H77.3842V40.0303H76.017ZM81.6878 40.0303V29.5555H83.055V34.06H87.3431V29.5555H88.7103V40.0303H87.3431V35.2815H83.055V40.0303H81.6878Z" fill="#FFF7F7"/>
<path d="M58.3364 51.7877V41.313H62.1429C63.1683 41.313 63.9554 41.5878 64.5044 42.1375C65.0535 42.6872 65.3279 43.4302 65.3279 44.3669C65.3279 45.3035 65.0411 46.0535 64.4671 46.6175C63.8914 47.1834 63.1164 47.4665 62.1429 47.4665H59.7036V51.7877H58.3364ZM59.7036 46.245H62.0963C62.6348 46.245 63.0698 46.074 63.4013 45.7319C63.7329 45.392 63.8985 44.937 63.8985 44.3669C63.8985 43.7967 63.7431 43.349 63.4324 43.0232C63.1217 42.6973 62.6764 42.5345 62.0963 42.5345H59.7036V46.245ZM66.8349 51.7877V41.313H68.2021V50.5662H72.5523V51.7877H66.8349ZM73.9196 51.7877V41.313H80.4915V42.5345H75.2868V45.8174H79.8079V47.039H75.2868V50.5662H80.5847V51.7877H73.9196ZM81.3149 51.7877L84.7019 41.313H86.4575L89.8445 51.7877H88.3685L87.6383 49.4515H83.4124L82.6821 51.7877H81.3149ZM83.7852 48.23H87.2499L85.805 43.5728C85.7326 43.349 85.6496 42.9621 85.5564 42.4124H85.4943C85.401 42.9722 85.3181 43.3591 85.2457 43.5728L83.7852 48.23ZM94.0549 51.971C92.9984 51.971 92.1367 51.7166 91.4696 51.2075C90.8006 50.6984 90.4659 49.9044 90.4659 48.8255L90.4815 48.5201H91.8953L91.8798 48.8408C91.8798 49.4616 92.0733 49.9319 92.4608 50.2516C92.8502 50.5732 93.361 50.7342 93.9927 50.7342C94.7074 50.7342 95.2583 50.5836 95.6458 50.2822C96.0352 49.9829 96.23 49.5532 96.23 48.9935C96.23 48.6169 96.1234 48.3085 95.9099 48.0681C95.6986 47.8299 95.4354 47.6397 95.1207 47.4971C94.8037 47.3544 94.3709 47.1969 93.8218 47.0237C93.1485 46.7999 92.6047 46.5861 92.1905 46.3824C91.7763 46.1787 91.4208 45.8807 91.1247 45.4876C90.8304 45.0967 90.6834 44.5806 90.6834 43.9393C90.6834 43.0232 90.9995 42.326 91.6312 41.8474C92.2629 41.3689 93.0761 41.1298 94.0704 41.1298C95.0647 41.1298 95.8695 41.3719 96.4848 41.8566C97.1022 42.3391 97.4108 43.079 97.4108 44.0767V44.26H95.9969V44.0309C95.9969 43.5118 95.8176 43.1047 95.4594 42.8094C95.103 42.5141 94.6505 42.3666 94.1015 42.3666C93.5111 42.3666 93.0347 42.4909 92.6721 42.7391C92.3095 42.9896 92.1283 43.3539 92.1283 43.8324C92.1283 44.1888 92.2318 44.4808 92.4391 44.7089C92.6463 44.9388 92.9052 45.1221 93.2159 45.2586C93.5266 45.3969 93.9514 45.5527 94.4899 45.7258C95.1735 45.9497 95.7244 46.1604 96.143 46.358C96.5634 46.5574 96.922 46.8527 97.2181 47.2436C97.5124 47.6366 97.6593 48.1436 97.6593 48.7644C97.6593 49.8843 97.3353 50.6984 96.6868 51.2075C96.0404 51.7166 95.1632 51.971 94.0549 51.971ZM102.926 51.971C101.818 51.971 100.955 51.6625 100.338 51.0456C99.7226 50.4309 99.415 49.5431 99.415 48.3827V41.313H100.782V48.459C100.782 49.192 100.971 49.7539 101.348 50.1448C101.727 50.5378 102.253 50.7342 102.926 50.7342C103.6 50.7342 104.125 50.5378 104.502 50.1448C104.881 49.7539 105.07 49.192 105.07 48.459V41.313H106.437V48.3827C106.437 49.5431 106.129 50.4309 105.512 51.0456C104.896 51.6625 104.035 51.971 102.926 51.971ZM108.613 51.7877V41.313H112.901C113.926 41.313 114.713 41.5747 115.262 42.0978C115.811 42.6231 116.086 43.3285 116.086 44.2142C116.086 44.8655 115.92 45.4305 115.588 45.9091C115.257 46.3876 114.791 46.7235 114.19 46.9168L116.334 51.7877H114.812L112.839 47.1611H109.98V51.7877H108.613ZM109.98 45.9396H112.854C113.393 45.9396 113.828 45.7817 114.159 45.4662C114.491 45.1508 114.656 44.7333 114.656 44.2142C114.656 43.6849 114.501 43.2727 114.19 42.9773C113.879 42.682 113.434 42.5345 112.854 42.5345H109.98V45.9396ZM117.81 51.7877V41.313H124.382V42.5345H119.177V45.8174H123.699V47.039H119.177V50.5662H124.475V51.7877H117.81Z" fill="#FFF7F7"/>
</g>
</g>
</g>
</g>
</g>
<defs>
<clipPath id="clip0_355_303">
<rect width="110" height="36" fill="white" transform="translate(14.0002 17)"/>
</clipPath>
<clipPath id="clip1_355_303">
<rect width="36.3952" height="35.7692" fill="white" transform="translate(14.0002 17)"/>
</clipPath>
<clipPath id="clip2_355_303">
<rect width="36.3952" height="35.7692" fill="white" transform="translate(14.0002 17)"/>
</clipPath>
<clipPath id="clip3_355_303">
<rect width="67.0711" height="35.7692" fill="white" transform="translate(57.4042 17)"/>
</clipPath>
<clipPath id="clip4_355_303">
<rect width="67.0711" height="35.7692" fill="white" transform="translate(57.4042 17)"/>
</clipPath>
<clipPath id="clip5_355_303">
<rect width="67.0711" height="35.7692" fill="white" transform="translate(57.4042 17)"/>
</clipPath>
<clipPath id="clip6_355_303">
<rect width="67.0711" height="35.7692" fill="white" transform="translate(57.4042 17)"/>
</clipPath>
</defs>
</svg>
