<svg width="110" height="36" viewBox="0 0 110 36" fill="none" xmlns="http://www.w3.org/2000/svg">
<g clip-path="url(#clip0_441_450)">
<g clip-path="url(#clip1_441_450)">
<g clip-path="url(#clip2_441_450)">
<path d="M36.3954 18.9552V16.8076H19.4593V15.3958H36.1665C36.1665 15.3958 34.8323 1.9319 20.8838 0.2046V12.5958H32.4069C32.4069 12.5958 30.4659 7.41281 27.555 6.22134V10.5108H23.1279V3.06399C23.1279 3.06399 31.1935 4.19609 33.8015 13.549L19.4593 13.466V0H17.2738V13.4532L2.93297 13.3702C2.93297 13.3702 4.87319 5.02987 13.7882 2.70666L13.667 10.5108H9.30067V6.10259C9.30067 6.10259 5.66188 7.88962 4.20644 12.5961H15.6684V0.264335C15.6684 0.264335 2.0835 2.23021 0.203693 15.3958H17.2738V16.8076H0.000244141V18.9552H17.2738V20.578H0.233901C2.11408 33.7432 15.6989 35.7091 15.6989 35.7091V23.3777H4.23664C5.69209 28.0842 9.33088 29.8712 9.33088 29.8712V25.463H13.6976L13.8188 33.2672C4.90377 30.944 2.96318 22.6033 2.96318 22.6033L17.2738 22.5207V35.751H19.4593V22.5078L33.8318 22.4252C31.224 31.7777 23.1581 32.9102 23.1581 32.9102V25.463H27.5856V29.7521C30.4965 28.561 32.4371 23.3784 32.4371 23.3784H20.914V35.7692C34.8628 34.0419 36.1971 20.578 36.1971 20.578H19.4593V18.9552H36.3954Z" fill="#0B1644"/>
</g>
</g>
<path d="M40.4043 1.07869C40.4043 0.482946 40.1784 0 39.8998 0C39.6213 0 39.3954 0.482946 39.3954 1.07869V34.8694C39.3954 35.4651 39.6213 35.9481 39.8998 35.9481C40.1784 35.9481 40.4043 35.4651 40.4043 34.8694V1.07869Z" fill="#0B1644"/>
<g clip-path="url(#clip3_441_450)">
<g clip-path="url(#clip4_441_450)">
<g clip-path="url(#clip5_441_450)">
<g clip-path="url(#clip6_441_450)">
<path d="M46.4497 11.273V2.01976H43.5444V0.798218H50.7223V2.01976H47.8169V11.273H46.4497ZM52.1206 11.273V0.798218H56.4086C57.434 0.798218 58.2211 1.05993 58.7702 1.58306C59.3192 2.10832 59.5936 2.81377 59.5936 3.69938C59.5936 4.35077 59.428 4.91574 59.0964 5.39428C58.7649 5.87282 58.2988 6.20874 57.6982 6.40205L59.8422 11.273H58.3196L56.3465 6.64636H53.4878V11.273H52.1206ZM53.4878 5.42481H56.362C56.9005 5.42481 57.3355 5.26693 57.6671 4.95147C57.9986 4.636 58.1643 4.21854 58.1643 3.69938C58.1643 3.17015 58.0089 2.75788 57.6982 2.46257C57.3874 2.16726 56.9422 2.01976 56.362 2.01976H53.4878V5.42481ZM60.2151 11.273L63.602 0.798218H65.3577L68.7446 11.273H67.2687L66.5384 8.93675H62.3125L61.5823 11.273H60.2151ZM62.6854 7.71521H66.15L64.7051 3.05807C64.6327 2.83423 64.5498 2.4473 64.4565 1.89761H64.3944C64.3012 2.45738 64.2182 2.8443 64.1458 3.05807L62.6854 7.71521ZM71.1683 11.273L67.9212 0.798218H69.4282L72.0694 9.79183H72.1316L74.8505 0.798218H76.1711L72.9239 11.273H71.1683ZM77.3829 11.273V0.798218H83.9549V2.01976H78.7501V5.30266H83.2713V6.5242H78.7501V10.0514H84.0481V11.273H77.3829ZM85.8814 11.273V0.798218H87.2486V10.0514H91.5988V11.273H85.8814Z" fill="#0B1644"/>
<path d="M45.8745 23.0303L43.4042 12.5555H44.8491L46.4805 19.7932C46.5737 20.1801 46.6824 20.801 46.8067 21.656H46.8689C46.9518 20.9943 47.0398 20.3734 47.133 19.7932L48.3604 12.5555H50.2558L51.5764 19.7932C51.6697 20.2818 51.7629 20.9027 51.8561 21.656H51.9182C52.0323 20.852 52.141 20.2308 52.2445 19.7932L53.8758 12.5555H55.1188L52.6485 23.0303H50.8773L49.5722 15.9301C49.4893 15.4821 49.3911 14.7797 49.277 13.8229H49.2149C49.1009 14.7797 49.0027 15.4821 48.9197 15.9301L47.6457 23.0303H45.8745ZM56.3617 23.0303V12.5555H57.7289V23.0303H56.3617ZM62.017 23.0303V13.7771H59.1117V12.5555H66.2895V13.7771H63.3842V23.0303H62.017ZM67.6878 23.0303V12.5555H69.055V17.06H73.3431V12.5555H74.7103V23.0303H73.3431V18.2815H69.055V23.0303H67.6878Z" fill="#0B1644"/>
<path d="M44.3364 34.7877V24.313H48.1429C49.1683 24.313 49.9554 24.5878 50.5044 25.1375C51.0535 25.6872 51.3279 26.4302 51.3279 27.3669C51.3279 28.3035 51.0411 29.0535 50.4671 29.6175C49.8914 30.1834 49.1164 30.4665 48.1429 30.4665H45.7036V34.7877H44.3364ZM45.7036 29.245H48.0963C48.6348 29.245 49.0698 29.074 49.4013 28.7319C49.7329 28.392 49.8985 27.937 49.8985 27.3669C49.8985 26.7967 49.7431 26.349 49.4324 26.0232C49.1217 25.6973 48.6764 25.5345 48.0963 25.5345H45.7036V29.245ZM52.8349 34.7877V24.313H54.2021V33.5662H58.5523V34.7877H52.8349ZM59.9196 34.7877V24.313H66.4915V25.5345H61.2868V28.8174H65.8079V30.039H61.2868V33.5662H66.5847V34.7877H59.9196ZM67.3149 34.7877L70.7019 24.313H72.4575L75.8445 34.7877H74.3685L73.6383 32.4515H69.4124L68.6821 34.7877H67.3149ZM69.7852 31.23H73.2499L71.805 26.5728C71.7326 26.349 71.6496 25.9621 71.5564 25.4124H71.4943C71.401 25.9722 71.3181 26.3591 71.2457 26.5728L69.7852 31.23ZM80.0549 34.971C78.9984 34.971 78.1367 34.7166 77.4696 34.2075C76.8006 33.6984 76.4659 32.9044 76.4659 31.8255L76.4815 31.5201H77.8953L77.8798 31.8408C77.8798 32.4616 78.0733 32.9319 78.4608 33.2516C78.8502 33.5732 79.361 33.7342 79.9927 33.7342C80.7074 33.7342 81.2583 33.5836 81.6458 33.2822C82.0352 32.9829 82.23 32.5532 82.23 31.9935C82.23 31.6169 82.1234 31.3085 81.9099 31.0681C81.6986 30.8299 81.4354 30.6397 81.1207 30.4971C80.8037 30.3544 80.3709 30.1969 79.8218 30.0237C79.1485 29.7999 78.6047 29.5861 78.1905 29.3824C77.7763 29.1787 77.4208 28.8807 77.1247 28.4876C76.8304 28.0967 76.6834 27.5806 76.6834 26.9393C76.6834 26.0232 76.9995 25.326 77.6312 24.8474C78.2629 24.3689 79.0761 24.1298 80.0704 24.1298C81.0647 24.1298 81.8695 24.3719 82.4848 24.8566C83.1022 25.3391 83.4108 26.079 83.4108 27.0767V27.26H81.9969V27.0309C81.9969 26.5118 81.8176 26.1047 81.4594 25.8094C81.103 25.5141 80.6505 25.3666 80.1015 25.3666C79.5111 25.3666 79.0347 25.4909 78.6721 25.7391C78.3095 25.9896 78.1283 26.3539 78.1283 26.8324C78.1283 27.1888 78.2318 27.4808 78.4391 27.7089C78.6463 27.9388 78.9052 28.1221 79.2159 28.2586C79.5266 28.3969 79.9514 28.5527 80.4899 28.7258C81.1735 28.9497 81.7244 29.1604 82.143 29.358C82.5634 29.5574 82.922 29.8527 83.2181 30.2436C83.5124 30.6366 83.6593 31.1436 83.6593 31.7644C83.6593 32.8843 83.3353 33.6984 82.6868 34.2075C82.0404 34.7166 81.1632 34.971 80.0549 34.971ZM88.9262 34.971C87.8178 34.971 86.9553 34.6625 86.3378 34.0456C85.7226 33.4309 85.415 32.5431 85.415 31.3827V24.313H86.7822V31.459C86.7822 32.192 86.9708 32.7539 87.3477 33.1448C87.7268 33.5378 88.2529 33.7342 88.9262 33.7342C89.5996 33.7342 90.1247 33.5378 90.5016 33.1448C90.8807 32.7539 91.0703 32.192 91.0703 31.459V24.313H92.4375V31.3827C92.4375 32.5431 92.1289 33.4309 91.5115 34.0456C90.8963 34.6625 90.0346 34.971 88.9262 34.971ZM94.6126 34.7877V24.313H98.9007C99.9261 24.313 100.713 24.5747 101.262 25.0978C101.811 25.6231 102.086 26.3285 102.086 27.2142C102.086 27.8655 101.92 28.4305 101.588 28.9091C101.257 29.3876 100.791 29.7235 100.19 29.9168L102.334 34.7877H100.812L98.8385 30.1611H95.9798V34.7877H94.6126ZM95.9798 28.9396H98.8541C99.3926 28.9396 99.8276 28.7817 100.159 28.4662C100.491 28.1508 100.656 27.7333 100.656 27.2142C100.656 26.6849 100.501 26.2727 100.19 25.9773C99.8795 25.682 99.4342 25.5345 98.8541 25.5345H95.9798V28.9396ZM103.81 34.7877V24.313H110.382V25.5345H105.177V28.8174H109.699V30.039H105.177V33.5662H110.475V34.7877H103.81Z" fill="#0B1644"/>
</g>
</g>
</g>
</g>
</g>
<defs>
<clipPath id="clip0_441_450">
<rect width="110" height="36" fill="white" transform="translate(0.000244141)"/>
</clipPath>
<clipPath id="clip1_441_450">
<rect width="36.3952" height="35.7692" fill="white" transform="translate(0.000244141)"/>
</clipPath>
<clipPath id="clip2_441_450">
<rect width="36.3952" height="35.7692" fill="white" transform="translate(0.000244141)"/>
</clipPath>
<clipPath id="clip3_441_450">
<rect width="67.0711" height="35.7692" fill="white" transform="translate(43.4042)"/>
</clipPath>
<clipPath id="clip4_441_450">
<rect width="67.0711" height="35.7692" fill="white" transform="translate(43.4042)"/>
</clipPath>
<clipPath id="clip5_441_450">
<rect width="67.0711" height="35.7692" fill="white" transform="translate(43.4042)"/>
</clipPath>
<clipPath id="clip6_441_450">
<rect width="67.0711" height="35.7692" fill="white" transform="translate(43.4042)"/>
</clipPath>
</defs>
</svg>
