<svg width="25" height="24" viewBox="0 0 25 24" fill="none" xmlns="http://www.w3.org/2000/svg">
<path d="M20.5 12.003C20.5 12.2788 20.3822 12.5139 20.1465 12.7083C19.9108 12.9028 19.6274 13 19.2965 13C18.9655 13 18.6833 12.9018 18.45 12.7054C18.2167 12.509 18.1 12.2729 18.1 11.997C18.1 11.7212 18.2178 11.4861 18.4535 11.2917C18.6892 11.0972 18.9726 11 19.3035 11C19.6345 11 19.9167 11.0982 20.15 11.2946C20.3833 11.491 20.5 11.7271 20.5 12.003ZM13.7 12.003C13.7 12.2788 13.5821 12.5139 13.3464 12.7083C13.1108 12.9028 12.8274 13 12.4964 13C12.1655 13 11.8833 12.9018 11.65 12.7054C11.4167 12.509 11.3 12.2729 11.3 11.997C11.3 11.7212 11.4179 11.4861 11.6536 11.2917C11.8892 11.0972 12.1726 11 12.5036 11C12.8345 11 13.1167 11.0982 13.35 11.2946C13.5833 11.491 13.7 11.7271 13.7 12.003ZM6.9 12.003C6.9 12.2788 6.78215 12.5139 6.54645 12.7083C6.31077 12.9028 6.02743 13 5.69645 13C5.36548 13 5.08333 12.9018 4.85 12.7054C4.61667 12.509 4.5 12.2729 4.5 11.997C4.5 11.7212 4.61785 11.4861 4.85355 11.2917C5.08923 11.0972 5.37257 11 5.70355 11C6.03452 11 6.31667 11.0982 6.55 11.2946C6.78333 11.491 6.9 11.7271 6.9 12.003Z" fill="#0B1644"/>
</svg>
