<svg width="25" height="24" viewBox="0 0 25 24" fill="none" xmlns="http://www.w3.org/2000/svg">
<g id="move_item icon">
<path id="Vector" d="M21.1 12.75H8.575V11.25H21.1L18.875 9.025L19.95 7.95L24 12L19.95 16.05L18.875 14.975L21.1 12.75ZM15 9.75V4.5H5V19.5H15V14.25H16.5V19.5C16.5 19.9125 16.3531 20.2656 16.0594 20.5594C15.7656 20.8531 15.4125 21 15 21H5C4.5875 21 4.23438 20.8531 3.94063 20.5594C3.64688 20.2656 3.5 19.9125 3.5 19.5V4.5C3.5 4.0875 3.64688 3.73438 3.94063 3.44063C4.23438 3.14688 4.5875 3 5 3H15C15.4125 3 15.7656 3.14688 16.0594 3.44063C16.3531 3.73438 16.5 4.0875 16.5 4.5V9.75H15Z" fill="#FD6D5D"/>
</g>
</svg>
