<svg width="240" height="180" viewBox="0 0 240 180" fill="none" xmlns="http://www.w3.org/2000/svg">
<path d="M191.947 33.414H55.2969V127.65H191.947V33.414Z" fill="#D7D2E6"/>
<path opacity="0.44" d="M191.947 53.034H55.2969V127.65H191.947V53.034Z" fill="#DBDCE3"/>
<path d="M66.3175 44.688C67.7689 44.688 68.9455 43.5114 68.9455 42.06C68.9455 40.6086 67.7689 39.432 66.3175 39.432C64.866 39.432 63.6895 40.6086 63.6895 42.06C63.6895 43.5114 64.866 44.688 66.3175 44.688Z" fill="#0B1644"/>
<path d="M74.1358 44.688C75.5872 44.688 76.7638 43.5114 76.7638 42.06C76.7638 40.6086 75.5872 39.432 74.1358 39.432C72.6844 39.432 71.5078 40.6086 71.5078 42.06C71.5078 43.5114 72.6844 44.688 74.1358 44.688Z" fill="#876FD1"/>
<path d="M81.5049 44.688C82.9564 44.688 84.1329 43.5114 84.1329 42.06C84.1329 40.6086 82.9564 39.432 81.5049 39.432C80.0535 39.432 78.877 40.6086 78.877 42.06C78.877 43.5114 80.0535 44.688 81.5049 44.688Z" fill="#FD6D5D"/>
<path d="M92.4836 82.2C92.344 82.0607 92.2331 81.8951 92.1575 81.7129C92.0819 81.5307 92.043 81.3353 92.043 81.138C92.043 80.9407 92.0819 80.7453 92.1575 80.5631C92.2331 80.3809 92.344 80.2154 92.4836 80.076L101.43 71.136C101.715 70.8806 102.088 70.7442 102.471 70.7549C102.854 70.7656 103.219 70.9226 103.49 71.1937C103.761 71.4647 103.918 71.8292 103.929 72.2124C103.939 72.5955 103.803 72.9682 103.548 73.254L94.6016 82.2C94.3205 82.4803 93.9397 82.6377 93.5426 82.6377C93.1456 82.6377 92.7648 82.4803 92.4836 82.2Z" fill="#FFF7F7"/>
<path d="M101.574 82.344L92.6282 73.398C92.4852 73.2594 92.3711 73.0938 92.2928 72.9107C92.2144 72.7275 92.1734 72.5307 92.1719 72.3315C92.1705 72.1323 92.2087 71.9349 92.2844 71.7506C92.3601 71.5664 92.4717 71.3991 92.6127 71.2585C92.7537 71.1178 92.9214 71.0067 93.1058 70.9315C93.2903 70.8564 93.4878 70.8187 93.687 70.8207C93.8861 70.8227 94.0829 70.8644 94.2658 70.9432C94.4487 71.0221 94.614 71.1366 94.7522 71.28L103.692 80.22C103.836 80.3582 103.95 80.5235 104.029 80.7064C104.108 80.8893 104.15 81.0861 104.152 81.2852C104.154 81.4844 104.116 81.682 104.041 81.8664C103.966 82.0509 103.854 82.2185 103.714 82.3595C103.573 82.5006 103.406 82.6122 103.222 82.6878C103.037 82.7635 102.84 82.8018 102.641 82.8003C102.442 82.7989 102.245 82.7578 102.062 82.6794C101.878 82.6011 101.713 82.4871 101.574 82.344Z" fill="#FFF7F7"/>
<path d="M142.091 82.2C141.951 82.0607 141.841 81.8951 141.765 81.7129C141.689 81.5307 141.65 81.3353 141.65 81.138C141.65 80.9407 141.689 80.7453 141.765 80.5631C141.841 80.3809 141.951 80.2153 142.091 80.076L151.037 71.136C151.173 70.9839 151.339 70.8611 151.524 70.7752C151.709 70.6892 151.909 70.642 152.113 70.6363C152.317 70.6306 152.52 70.6665 152.71 70.742C152.9 70.8174 153.072 70.9307 153.216 71.075C153.36 71.2193 153.474 71.3915 153.549 71.5811C153.625 71.7707 153.661 71.9737 153.655 72.1776C153.649 72.3816 153.602 72.5823 153.516 72.7673C153.43 72.9524 153.307 73.118 153.155 73.254L144.215 82.2C143.932 82.4792 143.551 82.6358 143.153 82.6358C142.756 82.6358 142.374 82.4792 142.091 82.2Z" fill="#FFF7F7"/>
<path d="M151.199 82.344L142.253 73.398C142.11 73.2594 141.996 73.0938 141.918 72.9107C141.839 72.7275 141.798 72.5307 141.797 72.3315C141.795 72.1323 141.834 71.9349 141.909 71.7506C141.985 71.5664 142.097 71.3991 142.238 71.2585C142.379 71.1178 142.546 71.0067 142.731 70.9315C142.915 70.8564 143.113 70.8187 143.312 70.8207C143.511 70.8227 143.708 70.8644 143.891 70.9432C144.074 71.0221 144.239 71.1366 144.377 71.28L153.317 80.22C153.461 80.3582 153.575 80.5235 153.654 80.7064C153.733 80.8893 153.775 81.0861 153.777 81.2852C153.779 81.4844 153.741 81.682 153.666 81.8664C153.591 82.0509 153.479 82.2185 153.339 82.3595C153.198 82.5006 153.031 82.6122 152.847 82.6878C152.662 82.7635 152.465 82.8018 152.266 82.8003C152.067 82.7989 151.87 82.7578 151.687 82.6794C151.503 82.6011 151.338 82.4871 151.199 82.344Z" fill="#FFF7F7"/>
<path d="M110.964 107.814C110.588 107.814 110.226 107.671 109.95 107.415C109.674 107.16 109.505 106.809 109.476 106.434C109.056 101.328 110.994 91.278 121.308 89.814C124.53 89.364 127.224 90.102 129.312 92.022C134.214 96.528 133.728 106.002 133.71 106.422C133.699 106.619 133.65 106.812 133.564 106.99C133.478 107.167 133.359 107.327 133.212 107.458C133.064 107.59 132.893 107.691 132.707 107.756C132.52 107.821 132.323 107.849 132.126 107.838C131.929 107.827 131.736 107.777 131.559 107.692C131.381 107.606 131.222 107.486 131.09 107.339C130.959 107.192 130.858 107.021 130.792 106.834C130.727 106.648 130.699 106.451 130.71 106.254C130.71 106.17 131.136 97.794 127.278 94.254C125.862 92.958 124.05 92.49 121.728 92.814C111.6 94.2 112.422 105.702 112.464 106.2C112.496 106.596 112.369 106.989 112.111 107.291C111.854 107.594 111.486 107.782 111.09 107.814H110.964Z" fill="#FFF7F7"/>
</svg>