<svg width="25" height="24" viewBox="0 0 25 24" fill="none" xmlns="http://www.w3.org/2000/svg">
<path d="M4.5 19V17.5H6.5V9.9C6.5 8.5 6.9125 7.24583 7.7375 6.1375C8.5625 5.02917 9.65 4.33333 11 4.05V3.5C11 3.08333 11.1458 2.72917 11.4375 2.4375C11.7292 2.14583 12.0833 2 12.5 2C12.9167 2 13.2708 2.14583 13.5625 2.4375C13.8542 2.72917 14 3.08333 14 3.5V4.05C15.35 4.33333 16.4375 5.02917 17.2625 6.1375C18.0875 7.24583 18.5 8.5 18.5 9.9V17.5H20.5V19H4.5ZM12.5 22C11.95 22 11.4792 21.8042 11.0875 21.4125C10.6958 21.0208 10.5 20.55 10.5 20H14.5C14.5 20.55 14.3042 21.0208 13.9125 21.4125C13.5208 21.8042 13.05 22 12.5 22ZM8 17.5H17V9.9C17 8.65 16.5625 7.5875 15.6875 6.7125C14.8125 5.8375 13.75 5.4 12.5 5.4C11.25 5.4 10.1875 5.8375 9.3125 6.7125C8.4375 7.5875 8 8.65 8 9.9V17.5Z" fill="#0B1644"/>
</svg>
