<svg width="370" height="300" viewBox="0 0 370 300" fill="none" xmlns="http://www.w3.org/2000/svg">
<path opacity="0.24" d="M341.491 111.182C336.798 139.38 335.091 167.994 336.399 196.549C337.348 217.763 338.746 242.295 323.039 256.62C305.894 272.273 279.181 266.292 255.989 267.356C225.11 268.771 196.113 284.401 165.217 284.982C145.01 285.379 125.276 279.266 106.491 271.847C82.6373 262.416 59.0021 250.266 42.4092 230.714C34.5212 221.444 30.0278 212.34 27.6113 203.042C24.5102 191.017 24.8669 178.619 25.799 164.869C25.9946 161.994 26.219 158.981 26.4376 155.95C28.5664 127.387 18.4173 98.8069 33.2152 71.8367C47.7484 45.384 80.2669 34.4579 110.346 31.9219C140.425 29.3859 171.286 32.7615 200.393 24.774C211.325 21.7434 221.922 17.1372 233.188 15.6076C243.648 14.1929 254.28 15.4753 264.711 17.1372C281.212 19.771 297.851 23.3766 312.464 31.4849C327.078 39.5932 339.575 52.762 343.533 68.9671C346.853 82.7513 343.821 97.191 341.491 111.182Z" fill="#876FD1"/>
<path d="M336.307 162.391C336.177 162.961 335.912 163.491 335.536 163.938C335.32 164.192 335.046 164.39 334.736 164.513C333.649 164.933 332.475 164.243 331.503 163.581C329.357 162.189 327.294 160.674 325.323 159.044C324.173 158.044 322.688 156.744 322.642 155.232C322.605 154.666 322.761 154.104 323.085 153.639C323.462 153.098 323.966 152.657 324.553 152.356C325.14 152.056 325.792 151.904 326.451 151.913C327.764 151.928 329.056 152.253 330.22 152.862C332.103 153.678 333.742 154.968 334.978 156.606C335.597 157.421 336.036 158.358 336.265 159.356C336.494 160.353 336.508 161.388 336.307 162.391Z" fill="#876FD1"/>
<path d="M335.536 163.938C335.321 164.192 335.046 164.39 334.736 164.513C333.649 164.933 332.475 164.243 331.503 163.581C329.357 162.189 327.294 160.674 325.324 159.044C324.173 158.044 322.689 156.744 322.643 155.232C323.433 154.468 324.489 154.041 325.588 154.041C326.907 154.059 328.203 154.384 329.374 154.99C331.254 155.814 332.893 157.102 334.138 158.734C335.244 160.23 335.743 162.089 335.536 163.938Z" fill="url(#paint0_linear_386_2697)"/>
<path d="M27.3709 165.979C27.1297 166.421 27.3709 165.491 27.3709 165.979V165.979Z" fill="#FFD9D7"/>
<path d="M145.165 115.058C143.796 117.651 139.694 117.358 137.904 119.624C137.128 120.596 136.926 121.924 136.754 123.166C135.96 128.963 135.137 134.742 134.32 140.522C136.558 141.896 138.882 143.397 140.033 145.772C141.184 148.147 140.453 151.522 137.973 152.391C135.292 153.253 132.836 150.815 130.442 149.331C127.652 147.56 123.245 147.365 121.668 150.286C123.245 151.218 124.861 152.212 125.903 153.736C126.944 155.26 127.255 157.451 126.121 158.912C124.464 160.971 121.225 160.304 118.768 159.286C116.312 158.268 113.366 157.181 111.237 158.78C112.891 160.055 114.271 161.651 115.293 163.472C115.909 164.536 116.352 165.905 115.667 166.922C114.983 167.94 113.475 167.94 112.215 167.716C106.393 166.635 101.117 162.736 95.2714 162.471C94.9169 162.448 94.5614 162.448 94.207 162.471C88.1601 162.65 83.1776 166.922 77.9707 170.022C77.7656 170.152 77.5523 170.27 77.3321 170.373C73.3752 172.692 69.0875 174.395 64.617 175.422C62.2868 175.957 59.9625 175.577 57.6841 176.261C55.0893 177.038 52.9663 178.7 50.8605 180.402C42.495 187.233 33.9857 194.272 27.6108 203.042C24.5097 191.017 24.8664 178.619 25.7985 164.869C27.3232 164.208 28.5429 163.673 28.6752 163.587C34.6972 159.999 40.7364 156.426 46.7928 152.868C47.2375 152.564 47.7321 152.34 48.2542 152.207C49.94 151.919 51.223 153.512 52.109 155.019C55.0778 150.7 59.3296 147.29 63.6964 144.415C68.5236 141.183 73.5981 138.348 78.6554 135.49C83.3042 132.856 87.976 130.245 92.6305 127.606C97.8086 124.73 103.062 121.763 108.665 119.727C113.452 118.002 118.481 116.938 123.176 114.966C127.962 112.994 131.328 111.113 136.408 110.273C138.382 109.963 141.587 109.543 143.278 110.561C144.97 111.579 146.074 113.281 145.165 115.058Z" fill="#FFD9D7"/>
<path d="M99.7838 159.602C99.4271 160.971 97.632 161.482 96.1476 161.661C95.9598 161.72 95.7863 161.818 95.6378 161.948C95.4893 162.077 95.3691 162.236 95.2846 162.414C94.9301 162.391 94.5746 162.391 94.2202 162.414C88.1733 162.592 83.1908 166.865 77.984 169.964C77.7788 170.095 77.5655 170.212 77.3453 170.315C76.8793 168.814 76.9023 164.519 80.0667 154.645C80.642 152.92 81.2864 150.62 81.7927 148.952C82.088 147.848 82.521 146.785 83.0815 145.789C85.06 142.726 88.1074 140.508 91.6311 139.567C91.9494 139.44 92.2905 139.38 92.6331 139.391C92.9757 139.401 93.3123 139.483 93.6218 139.63C94.2892 140.027 94.3755 140.936 94.1569 141.649C93.9383 142.362 93.4665 142.994 93.2248 143.707C92.2295 146.381 94.3755 149.061 96.0383 151.43C97.4125 153.339 98.5504 155.407 99.4271 157.589C99.7523 158.207 99.877 158.91 99.7838 159.602Z" fill="url(#paint1_linear_386_2697)"/>
<path d="M150.838 127.361L132.714 105.718C131.676 104.478 129.829 104.315 128.588 105.352L83.1854 143.336C81.9451 144.374 81.7812 146.22 82.8193 147.46L100.944 169.102C101.982 170.342 103.829 170.506 105.069 169.468L150.472 131.484C151.712 130.446 151.876 128.6 150.838 127.361Z" fill="#876FD1"/>
<path d="M150.838 127.361L132.714 105.718C131.676 104.478 129.829 104.315 128.588 105.352L83.1854 143.336C81.9451 144.374 81.7812 146.22 82.8193 147.46L100.944 169.102C101.982 170.342 103.829 170.506 105.069 169.468L150.472 131.484C151.712 130.446 151.876 128.6 150.838 127.361Z" fill="url(#paint2_linear_386_2697)"/>
<path d="M147.255 128.888L130.338 108.687C129.41 107.579 127.759 107.432 126.651 108.36L87.6539 140.985C86.5452 141.912 86.3988 143.562 87.3267 144.671L104.244 164.871C105.172 165.98 106.823 166.126 107.931 165.198L146.928 132.574C148.037 131.646 148.183 129.996 147.255 128.888Z" fill="#FFF7F7"/>
<path d="M56.4262 138.94C58.7667 136.749 61.3009 134.774 63.9978 133.04C66.9164 131.342 69.9635 129.875 73.1112 128.652C79.0488 126.185 84.9921 123.707 91.1425 121.855C93.0124 121.28 94.8938 120.786 96.7751 120.285L113.04 115.926C113.552 117.554 112.672 119.279 111.688 120.67C108.618 125.013 104.318 128.338 99.3412 130.216C97.9316 130.746 96.4644 131.171 95.2677 132.108C94.3977 132.889 93.625 133.771 92.9664 134.736C89.3704 139.337 84.106 142.839 82.0348 148.296C81.3386 150.108 81.0164 152.086 79.9866 153.725C78.8359 155.525 76.9948 156.721 75.194 157.854C68.2898 162.218 61.1786 166.629 53.2388 168.653C52.301 168.973 51.2915 169.021 50.3276 168.791C49.3871 168.381 48.5787 167.718 47.9917 166.876C45.8744 164.386 43.5903 161.96 41.6168 159.355C39.7182 156.842 40.6273 155.266 42.5547 153.121C46.9206 148.149 51.5512 143.415 56.4262 138.94Z" fill="#FFD9D7"/>
<path d="M129.074 137.44L117.344 122.915L110.113 128.748L121.844 143.273L129.074 137.44Z" fill="#FFF7F7"/>
<path d="M336.53 205.342C330.017 195.491 320.76 187.832 311.652 180.321C309.57 178.596 307.447 176.957 304.835 176.181C302.574 175.497 300.232 175.876 297.896 175.341C293.344 174.291 288.982 172.545 284.962 170.166L284.565 169.924C279.387 166.825 274.376 162.552 268.329 162.374C267.169 162.339 266.009 162.451 264.877 162.707C259.963 163.702 255.378 166.733 250.349 167.641C249.13 167.866 247.645 167.866 246.897 166.848C246.149 165.83 246.673 164.478 247.271 163.397C248.297 161.572 249.685 159.975 251.351 158.705C249.222 157.106 246.253 158.216 243.819 159.211C241.386 160.206 238.1 160.896 236.466 158.837C235.316 157.394 235.598 155.203 236.662 153.662C237.726 152.12 239.343 151.16 240.897 150.211C239.343 147.29 234.913 147.486 232.123 149.257C229.752 150.74 227.295 153.179 224.614 152.316C222.135 151.471 221.421 148.043 222.532 145.697C223.642 143.351 225.984 141.821 228.245 140.447C227.428 134.667 226.628 128.888 225.811 123.092C225.656 121.849 225.431 120.521 224.66 119.549C222.871 117.249 218.769 117.577 217.422 114.983C216.513 113.212 217.578 111.533 219.281 110.492C220.984 109.451 224.177 109.917 226.127 110.205C231.242 111.044 234.585 112.925 239.395 114.897C244.067 116.869 249.118 117.933 253.882 119.658C259.486 121.694 264.733 124.638 269.94 127.537C274.594 130.176 279.243 132.787 283.915 135.421C288.99 138.296 294.041 141.114 298.874 144.346C303.241 147.221 307.504 150.631 310.484 154.95C311.348 153.443 312.631 151.85 314.334 152.138C314.851 152.27 315.34 152.494 315.778 152.799C321.826 156.364 327.873 159.937 333.918 163.518C334.338 163.76 335.84 164.795 336.064 165.215C335.593 178.412 335.178 192.277 336.53 205.342Z" fill="#FFD9D7"/>
<path d="M323.735 156.945L321.026 155.519C320.899 155.433 320.746 155.394 320.594 155.41C320.458 155.459 320.345 155.557 320.278 155.686C319.809 156.522 319.501 157.439 319.369 158.389C318.487 162.355 316.677 166.056 314.087 169.188C312.637 170.942 310.882 172.639 310.376 174.841C309.87 177.043 310.704 179.298 312.067 181.034C313.431 182.771 315.33 184.065 317.177 185.215C319.023 186.365 320.98 187.515 322.562 189.079C326.871 186.262 329.242 181.316 331.042 176.491C331.134 176.238 331.319 175.916 331.618 175.974C331.742 176.012 331.849 176.091 331.923 176.198C333.338 177.854 334.161 180.034 335.95 181.31L336.617 165.951C336.663 165.629 336.619 165.3 336.491 165.002C336.29 164.716 336.01 164.494 335.685 164.363C332.008 162.442 328.503 160.208 325.208 157.687" fill="url(#paint3_linear_386_2697)"/>
<path d="M335.156 165.979C335.156 165.491 335.42 166.421 335.156 165.979V165.979Z" fill="#FFD9D7"/>
<path d="M294.181 166.135C294.235 166.92 294.105 167.708 293.801 168.435C293.047 169.872 291.143 170.206 289.526 170.275C288.005 170.331 286.482 170.3 284.964 170.183L284.567 169.941C279.389 166.842 274.377 162.569 268.331 162.391C267.17 162.356 266.01 162.468 264.878 162.724C263.72 161.92 262.658 160.984 261.714 159.935C260.347 158.361 259.345 156.505 258.778 154.499C258.211 152.493 258.094 150.387 258.435 148.331C259.631 141.47 269.366 132.856 274.935 140.982C276.64 143.58 278.649 145.966 280.919 148.089C284.44 151.367 289.756 152.184 292.46 156.525C294.135 159.337 294.181 162.788 294.181 166.135Z" fill="url(#paint4_linear_386_2697)"/>
<path d="M261.597 169.098L279.722 147.455C280.76 146.216 280.596 144.37 279.356 143.332L233.953 105.348C232.713 104.31 230.866 104.474 229.828 105.714L211.703 127.357C210.665 128.596 210.829 130.442 212.069 131.48L257.472 169.464C258.712 170.502 260.559 170.338 261.597 169.098Z" fill="#876FD1"/>
<path d="M261.597 169.098L279.722 147.455C280.76 146.216 280.596 144.37 279.356 143.332L233.953 105.348C232.713 104.31 230.866 104.474 229.828 105.714L211.703 127.357C210.665 128.596 210.829 130.442 212.069 131.48L257.472 169.464C258.712 170.502 260.559 170.338 261.597 169.098Z" fill="url(#paint5_linear_386_2697)"/>
<path d="M258.293 164.857L275.21 144.656C276.138 143.548 275.992 141.898 274.883 140.97L235.886 108.346C234.778 107.418 233.127 107.564 232.199 108.673L215.282 128.873C214.354 129.982 214.5 131.632 215.609 132.559L254.606 165.184C255.714 166.112 257.365 165.965 258.293 164.857Z" fill="#FFF7F7"/>
<path d="M306.126 138.94C303.786 136.75 301.254 134.776 298.56 133.04C295.639 131.342 292.59 129.875 289.441 128.652C283.509 126.185 277.56 123.707 271.409 121.855C269.545 121.28 267.658 120.786 265.777 120.285L249.512 115.926C249 117.554 249.88 119.279 250.864 120.67C253.934 125.013 258.234 128.338 263.211 130.216C264.62 130.746 266.087 131.171 267.29 132.108C268.159 132.89 268.931 133.772 269.591 134.736C273.187 139.337 278.452 142.839 280.552 148.296C281.248 150.108 281.57 152.086 282.606 153.725C283.756 155.525 285.592 156.721 287.393 157.854C294.325 162.218 301.408 166.629 309.348 168.653C310.286 168.973 311.295 169.021 312.259 168.791C313.2 168.379 314.01 167.717 314.601 166.876C316.712 164.386 319.002 161.96 320.97 159.355C322.868 156.842 321.959 155.266 320.032 153.121C315.655 148.148 311.013 143.414 306.126 138.94Z" fill="#FFD9D7"/>
<path d="M240.703 143.261L252.434 128.736L245.203 122.903L233.473 137.428L240.703 143.261Z" fill="#FFF7F7"/>
<path d="M152.124 117.864L150.91 116.168C153.291 114.587 155.819 113.239 158.459 112.142L159.281 114.057C156.781 115.098 154.384 116.372 152.124 117.864ZM207.093 114.356C204.576 113.283 201.995 112.365 199.366 111.608L199.941 109.606C202.653 110.387 205.314 111.334 207.91 112.441L207.093 114.356ZM167.008 111.343L166.433 109.33C169.161 108.582 171.937 108.021 174.741 107.651L175.011 109.721C172.309 110.077 169.635 110.619 167.008 111.343ZM191.363 109.882C188.661 109.484 185.935 109.271 183.204 109.244V107.157C186.032 107.187 188.853 107.41 191.65 107.824L191.363 109.882Z" fill="#876FD1"/>
<path d="M324.168 156.399C324.168 156.399 312.454 176.014 311.654 180.321C310.855 184.628 319.387 191.311 321.257 191.311C323.127 191.311 333.874 163.587 333.874 163.587C333.874 163.587 331.44 158.481 324.168 156.399Z" fill="#876FD1"/>
<path d="M324.462 156.497C324.462 156.497 312.92 176.302 312.126 180.649C311.332 184.996 319.853 191.633 321.723 191.633C323.593 191.633 333.966 163.737 333.966 163.737C333.966 163.737 331.734 158.573 324.462 156.497Z" fill="url(#paint6_linear_386_2697)"/>
<path opacity="0.24" d="M117.569 147.923C123.654 147.923 128.586 142.992 128.586 136.91C128.586 130.828 123.654 125.898 117.569 125.898C111.484 125.898 106.551 130.828 106.551 136.91C106.551 142.992 111.484 147.923 117.569 147.923Z" fill="#876FD1"/>
<path opacity="0.24" d="M245.994 147.255C252.079 147.255 257.012 142.325 257.012 136.243C257.012 130.161 252.079 125.231 245.994 125.231C239.909 125.231 234.977 130.161 234.977 136.243C234.977 142.325 239.909 147.255 245.994 147.255Z" fill="#876FD1"/>
<defs>
<linearGradient id="paint0_linear_386_2697" x1="331.486" y1="155.266" x2="326.812" y2="163.687" gradientUnits="userSpaceOnUse">
<stop stop-color="#0B1644" stop-opacity="0"/>
<stop offset="0.95" stop-color="#0B1644"/>
</linearGradient>
<linearGradient id="paint1_linear_386_2697" x1="62.8524" y1="159.832" x2="258.857" y2="115.28" gradientUnits="userSpaceOnUse">
<stop stop-color="#0B1644" stop-opacity="0"/>
<stop offset="0.95" stop-color="#0B1644"/>
</linearGradient>
<linearGradient id="paint2_linear_386_2697" x1="143.738" y1="143.002" x2="-10.5112" y2="110.97" gradientUnits="userSpaceOnUse">
<stop stop-color="#0B1644" stop-opacity="0"/>
<stop offset="0.95" stop-color="#0B1644"/>
</linearGradient>
<linearGradient id="paint3_linear_386_2697" x1="289.497" y1="140.044" x2="383.32" y2="229.231" gradientUnits="userSpaceOnUse">
<stop stop-color="#0B1644" stop-opacity="0"/>
<stop offset="0.95" stop-color="#0B1644"/>
</linearGradient>
<linearGradient id="paint4_linear_386_2697" x1="247.169" y1="175.939" x2="452.393" y2="35.5182" gradientUnits="userSpaceOnUse">
<stop stop-color="#0B1644" stop-opacity="0"/>
<stop offset="0.95" stop-color="#0B1644"/>
</linearGradient>
<linearGradient id="paint5_linear_386_2697" x1="219.277" y1="151.525" x2="387.217" y2="61.6889" gradientUnits="userSpaceOnUse">
<stop stop-color="#0B1644" stop-opacity="0"/>
<stop offset="0.95" stop-color="#0B1644"/>
</linearGradient>
<linearGradient id="paint6_linear_386_2697" x1="322.086" y1="163.633" x2="328.109" y2="221.398" gradientUnits="userSpaceOnUse">
<stop stop-color="#0B1644" stop-opacity="0"/>
<stop offset="0.95" stop-color="#0B1644"/>
</linearGradient>
</defs>
</svg>
