<svg width="24" height="24" viewBox="0 0 24 24" fill="none" xmlns="http://www.w3.org/2000/svg">
<path d="M4.5 21C4.1 21 3.75 20.85 3.45 20.55C3.15 20.25 3 19.9 3 19.5V12.75H4.5V19.5H11.25V21H4.5ZM12.75 21V19.5H19.5V12.75H21V19.5C21 19.9 20.85 20.25 20.55 20.55C20.25 20.85 19.9 21 19.5 21H12.75ZM5.925 17.3L8.875 13.5L11.2 16.675L14.5 12.4L18.175 17.3H5.925ZM3 11.25V4.5C3 4.1 3.15 3.75 3.45 3.45C3.75 3.15 4.1 3 4.5 3H11.25V4.5H4.5V11.25H3ZM19.5 11.25V4.5H12.75V3H19.5C19.9 3 20.25 3.15 20.55 3.45C20.85 3.75 21 4.1 21 4.5V11.25H19.5ZM15.6 9.75C15.21 9.75 14.8875 9.6225 14.6325 9.3675C14.3775 9.1125 14.25 8.79 14.25 8.4C14.25 8.01 14.3775 7.6875 14.6325 7.4325C14.8875 7.1775 15.21 7.05 15.6 7.05C15.99 7.05 16.3125 7.1775 16.5675 7.4325C16.8225 7.6875 16.95 8.01 16.95 8.4C16.95 8.79 16.8225 9.1125 16.5675 9.3675C16.3125 9.6225 15.99 9.75 15.6 9.75Z" fill="#0B1644"/>
</svg>
