<svg width="326" height="246" viewBox="0 0 326 246" fill="none" xmlns="http://www.w3.org/2000/svg">
<g clip-path="url(#clip0_61_694)">
<path opacity="0.18" d="M81.4628 26.7331C71.4286 39.1068 65.1799 54.4911 56.5319 68.0071C50.1339 78.1068 42.3284 87.1495 35.8237 97.2064C22.8571 117.235 15.0302 141.651 16.4591 166.046C17.888 190.441 29.2551 214.527 48.2039 227.883C59.8376 236.093 73.6039 239.989 87.2956 242.52C133.393 251.061 183.01 244.484 222.4 217.249C229.161 212.573 235.633 207.299 242.97 203.754C261.812 194.637 286.252 196.751 299.912 180.011C308.133 169.932 309.946 155.52 309.669 142.078C309.338 125.936 306.182 108.982 296.361 96.8755C283.565 81 262.665 76.7509 245.369 66.9822C228.51 57.5125 214.914 42.6192 200.434 29.3167C165.596 -2.70105 115.479 -15.2135 81.4628 26.7331Z" fill="#876FD1"/>
<path d="M248.6 159.235C248.602 160.223 248.401 161.201 248.011 162.108C247.62 163.015 247.048 163.832 246.329 164.509C245.098 165.68 243.509 166.402 241.818 166.559C241.502 166.586 241.185 166.586 240.869 166.559L187.904 165.491C185.874 165.469 183.932 164.655 182.492 163.221C181.052 161.787 180.228 159.848 180.195 157.815C180.191 156.827 180.388 155.849 180.775 154.94C181.162 154.032 181.73 153.212 182.445 152.53C183.915 151.131 185.875 150.364 187.904 150.395H189.706C189.334 149.086 189.143 147.731 189.141 146.37C189.138 144.424 189.532 142.499 190.298 140.711C191.065 138.922 192.188 137.31 193.598 135.972C194.843 134.78 196.287 133.815 197.864 133.121C199.907 132.23 202.119 131.792 204.347 131.84L208.847 131.936C211.646 131.993 214.379 132.802 216.759 134.278C219.14 135.754 221.081 137.844 222.379 140.327C223.676 139.71 225.101 139.406 226.537 139.441H227.7C230.11 139.466 232.416 140.431 234.127 142.132C235.838 143.833 236.818 146.135 236.86 148.548V148.986C236.859 149.818 236.737 150.645 236.497 151.441L240.88 151.527C242.915 151.554 244.86 152.375 246.301 153.814C247.742 155.253 248.567 157.197 248.6 159.235Z" fill="#FFF7F7"/>
<path d="M193.588 151.975L189.738 150.513C189.366 149.203 189.175 147.849 189.173 146.488C189.17 144.542 189.564 142.616 190.33 140.828C191.097 139.04 192.22 137.427 193.63 136.089C194.875 134.897 196.319 133.932 197.896 133.239C187.243 142.377 193.588 151.975 193.588 151.975Z" fill="url(#paint0_linear_61_694)"/>
<path opacity="0.23" d="M129.33 233.776C166.75 233.776 197.085 206.344 197.085 172.505C197.085 138.667 166.75 111.235 129.33 111.235C91.9105 111.235 61.5757 138.667 61.5757 172.505C61.5757 206.344 91.9105 233.776 129.33 233.776Z" fill="#FFD9D7"/>
<path d="M212.953 162.352V162.353C212.971 176.469 208.382 190.204 199.885 201.468L199.885 201.468L199.879 201.476L199.744 201.663C190.433 213.948 177.064 222.519 162.024 225.846C146.982 229.173 131.249 227.039 117.634 219.825C104.019 212.61 93.409 200.785 87.6986 186.46C81.9881 172.136 81.5495 156.245 86.461 141.627C91.3726 127.009 101.314 114.615 114.511 106.658C127.707 98.7016 143.298 95.7008 158.5 98.1915C173.702 100.682 187.525 108.502 197.5 120.255C207.475 132.009 212.952 146.929 212.953 162.352Z" fill="#D7D2E6" stroke="#876FD1"/>
<path d="M126.952 130.121C123.359 131.605 119.392 131.957 115.703 133.174C112.013 134.391 108.313 136.847 107.364 140.648C106.873 142.559 107.129 144.683 106.191 146.413C104.943 148.74 102.022 149.616 100.252 151.537C96.8819 155.253 99.0999 161.626 103.216 164.498C107.332 167.37 112.589 167.808 117.515 168.651C118.864 168.759 120.149 169.268 121.205 170.114C124.073 172.858 120.896 177.822 122.111 181.601C122.794 183.737 124.809 185.199 125.726 187.249C127.486 191.156 124.82 195.47 123.06 199.377C119.887 206.506 119.6 214.589 122.261 221.925C122.138 222.102 122.003 222.27 121.855 222.427C114.838 219.344 108.411 215.059 102.864 209.765C97.4577 202.174 93.1817 193.9 93.6296 184.804C93.8748 179.872 95.517 175.11 95.8262 170.199C96.3381 162.224 93.459 153.566 97.3618 146.605C99.4944 142.751 103.653 138.523 101.329 134.786C97.2231 135.384 92.7978 135.48 89.0337 134.05C93.6526 124.416 100.554 116.059 109.137 109.706C117.719 103.353 127.723 99.1978 138.277 97.6013C142.329 109.196 139.109 124.996 126.952 130.121Z" fill="#876FD1"/>
<path d="M213.454 162.352C213.458 166.497 213.069 170.633 212.291 174.705C210.553 176.12 208.924 177.665 207.418 179.327C202.246 185.391 201.127 193.804 200.284 201.747C200.284 201.918 200.284 202.089 200.231 202.249C200.231 202.142 200.231 202.046 200.146 201.939C199.734 199.9 198.846 197.986 197.555 196.356C196.083 194.765 193.471 193.975 191.679 195.224C190.826 193.089 189.969 190.971 189.109 188.872C183.778 188.872 178.275 188.872 173.264 186.982C168.252 185.092 164.104 181.473 160.094 177.939C160.621 171.816 160.506 165.655 159.753 159.555C175.328 157.863 189.734 150.486 200.22 138.833C190.842 138.365 181.544 140.766 173.562 145.719C171.856 146.786 170.129 147.982 168.134 148.153C166.871 148.185 165.611 148.012 164.402 147.641L151.51 144.363C149.9 136.057 155.648 127.719 163.037 123.608C168.582 120.534 175.311 121.132 180.632 118.441C184.279 116.605 185.345 113.391 188.533 111.032H188.597C196.343 117.151 202.603 124.948 206.908 133.836C211.212 142.725 213.451 152.474 213.454 162.352Z" fill="#876FD1"/>
<path d="M168.262 149.082C167.879 150.342 167.516 151.815 168.262 152.872C168.629 153.324 169.112 153.667 169.659 153.865C170.296 154.169 171.005 154.291 171.707 154.218C172.409 154.145 173.076 153.878 173.637 153.448C174.222 152.807 174.636 152.029 174.842 151.185C175.839 148.122 176.552 144.973 176.974 141.779C177.055 141.486 177.055 141.176 176.974 140.883C176.808 140.575 176.54 140.333 176.217 140.199C174.522 139.292 171.867 138.566 170.886 140.573C169.681 143.157 169.115 146.349 168.262 149.082Z" fill="#FBC4D6"/>
<path d="M173.391 150.545C173.75 150.495 174.114 150.528 174.458 150.641C174.692 150.77 174.895 150.949 175.055 151.164L178.734 155.295C179.448 156.096 180.195 157.196 179.693 158.146C179.517 158.41 179.284 158.632 179.01 158.794C178.737 158.957 178.432 159.056 178.115 159.085C176.333 159.249 174.542 158.897 172.954 158.071C171.824 157.58 170.704 157.004 169.606 156.47C168.79 156.099 168.076 155.535 167.527 154.826C166.684 153.545 166.46 150.47 167.932 149.488C168.689 149.007 169.35 149.349 170.064 149.68C171.086 150.237 172.228 150.534 173.391 150.545Z" fill="#68E1FD"/>
<path d="M188.651 163.153C188.679 163.391 188.654 163.632 188.576 163.858C188.449 164.077 188.265 164.258 188.043 164.381C187.343 164.863 186.524 165.14 185.676 165.182C185.252 165.198 184.83 165.115 184.444 164.941C184.057 164.767 183.716 164.506 183.447 164.178C183.054 163.557 182.817 162.85 182.754 162.118C182.441 160.543 182.288 158.94 182.295 157.335C182.277 157.24 182.279 157.143 182.301 157.05C182.324 156.956 182.367 156.869 182.427 156.794C182.487 156.718 182.562 156.657 182.648 156.614C182.734 156.571 182.828 156.547 182.924 156.545C184.247 156.267 186.881 155.573 187.552 157.196C188.237 159.109 188.608 161.121 188.651 163.153Z" fill="#FBC4D6"/>
<path d="M194.249 162.993C195.385 163.054 196.508 163.27 197.587 163.633C198.123 163.819 198.615 164.113 199.033 164.497C199.451 164.881 199.787 165.346 200.018 165.865C200.233 166.372 200.26 166.941 200.092 167.466C199.724 168.246 199.077 168.859 198.28 169.185C194.49 171.201 190.214 172.122 185.932 171.843C184.833 171.888 183.759 171.505 182.935 170.776C182.34 169.894 182.062 168.836 182.146 167.776L181.997 162.758C182.962 162.801 183.904 163.068 184.748 163.537C186.326 164.071 186.945 162.79 188.246 162.47C189.941 162.075 192.522 162.822 194.249 162.993Z" fill="#68E1FD"/>
<path d="M173.391 150.545C173.75 150.495 174.114 150.528 174.458 150.641C174.692 150.77 174.895 150.949 175.055 151.164L178.734 155.295C179.448 156.096 180.195 157.196 179.693 158.146C179.517 158.41 179.284 158.632 179.01 158.794C178.737 158.957 178.432 159.056 178.115 159.085C176.333 159.249 174.542 158.897 172.954 158.071C171.824 157.58 170.704 157.004 169.606 156.47C168.79 156.099 168.076 155.535 167.527 154.826C166.684 153.545 166.46 150.47 167.932 149.488C168.689 149.007 169.35 149.349 170.064 149.68C171.086 150.237 172.228 150.534 173.391 150.545Z" fill="#371E84"/>
<path d="M194.249 162.993C195.385 163.054 196.508 163.27 197.587 163.633C198.123 163.819 198.615 164.113 199.033 164.497C199.451 164.881 199.787 165.346 200.018 165.865C200.233 166.372 200.26 166.941 200.092 167.466C199.724 168.246 199.077 168.859 198.28 169.185C194.49 171.201 190.214 172.122 185.932 171.843C184.833 171.888 183.759 171.505 182.935 170.776C182.34 169.894 182.062 168.836 182.146 167.776L181.997 162.758C182.962 162.801 183.904 163.068 184.748 163.537C186.326 164.071 186.945 162.79 188.246 162.47C189.941 162.075 192.522 162.822 194.249 162.993Z" fill="#371E84"/>
<path d="M133.5 108.63C131.206 108.43 128.898 108.466 126.612 108.737C126.313 108.752 126.022 108.844 125.769 109.003C125.623 109.141 125.507 109.306 125.426 109.49C125.346 109.673 125.303 109.871 125.3 110.071C124.98 113.167 127.433 115.858 130.077 117.491C137.232 121.932 146.253 121.761 154.155 124.665C154.909 124.865 155.578 125.303 156.064 125.914C156.393 126.577 156.554 127.31 156.533 128.05C156.885 132.224 159.199 135.982 159.966 140.092C160.734 144.203 159.913 148.505 160.542 152.648C163.133 149.882 167.548 149.445 170.139 146.712C172.57 144.192 173.05 140.434 173.413 136.954L174.394 127.409C174.576 126.721 174.501 125.99 174.183 125.353C173.865 124.716 173.325 124.217 172.666 123.95C161.001 116.402 147.33 109.825 133.5 108.63Z" fill="url(#paint1_linear_61_694)"/>
<path d="M180.674 107.669C181.752 107.886 182.751 108.391 183.564 109.132C184.398 110.294 184.777 111.722 184.631 113.146C184.605 123.276 182.692 133.313 178.99 142.74C178.955 143.072 178.839 143.389 178.654 143.666C178.468 143.942 178.217 144.169 177.924 144.326C177.63 144.483 177.302 144.565 176.97 144.566C176.637 144.567 176.309 144.486 176.015 144.331C173.797 143.732 171.612 143.019 169.467 142.196L172.368 122.979C172.506 122.445 172.476 121.882 172.282 121.367C172.068 121.001 171.768 120.693 171.408 120.47C168.1 118.06 164.605 115.918 160.958 114.064C158.047 112.591 154.709 110.861 153.92 107.744C153.756 107.211 153.723 106.647 153.823 106.099C153.924 105.55 154.154 105.034 154.496 104.594C154.957 104.141 155.5 103.779 156.095 103.527C158.025 102.577 160.457 101.392 162.675 101.584C164.455 101.765 165.138 102.79 166.62 103.548C170.736 105.598 176.206 106.367 180.674 107.669Z" fill="#0B1644"/>
<path d="M160.862 77.1033C162.291 81.0428 162.995 85.2172 164.253 89.1994C164.528 90.2549 165.022 91.2406 165.703 92.0926C166.608 92.9613 167.703 93.6049 168.902 93.9716C170.573 94.6193 172.272 95.1851 173.999 95.6691C175.151 95.9787 176.526 96.5125 176.654 97.6869C176.681 98.0785 176.6 98.4701 176.42 98.8186C175.974 99.6139 175.332 100.282 174.556 100.758C173.779 101.235 172.894 101.504 171.984 101.541C170.167 101.59 168.358 101.293 166.652 100.666C165.099 100.351 163.674 99.5817 162.557 98.4556C161.923 97.519 161.477 96.4673 161.246 95.3595C159.496 89.1402 157.068 83.1325 154.005 77.4449C153.089 75.9429 152.372 74.3279 151.873 72.6406C151.169 69.694 151.158 62.7118 154.197 65.2741C156.65 67.3453 159.785 74.178 160.862 77.1033Z" fill="#FFD9D7"/>
<path d="M149.228 107.295C151.026 106.598 152.775 105.781 154.464 104.85C160.862 101.306 155.626 99.5658 153.494 95.306C151.969 92.2847 152.587 88.6655 153.376 85.3879C154.773 79.6227 156.639 73.6441 155.296 67.8897C155.128 66.9557 154.764 66.068 154.229 65.2847C153.838 64.7987 153.387 64.3646 152.886 63.9929C151.535 62.8247 149.981 61.9163 148.3 61.3131C145.101 60.2455 141.476 61.0249 138.437 62.5516C126.494 68.5516 123.945 83.701 124.425 95.8185C124.553 99.1815 125.076 102.737 127.24 105.31C129.405 107.883 132.465 108.865 135.6 109.249C140.234 109.723 144.914 109.052 149.228 107.295Z" fill="#FFF7F7"/>
<path d="M131.421 100.441C131.517 101.579 131.882 102.676 132.487 103.644C133.553 105.149 135.515 105.705 137.317 106.142L145.432 108.149C146.421 108.45 147.448 108.604 148.482 108.609C150.7 108.502 152.609 107.082 154.368 105.715C154.818 105.407 155.208 105.02 155.52 104.573C151.041 104.146 146.573 103.698 142.116 103.046C139.493 102.662 136.72 102.128 134.79 100.324C133.793 99.3377 133.034 98.1362 132.572 96.8114C132.252 95.9894 132.103 93.8968 131.175 93.7153C130.942 95.9577 131.024 98.2219 131.421 100.441Z" fill="url(#paint2_linear_61_694)"/>
<path d="M147.437 70.6975C147.436 71.0342 147.302 71.3567 147.064 71.5943C146.842 71.725 146.583 71.7777 146.328 71.7438C145.492 71.7046 144.675 71.4865 143.93 71.1043C143.186 70.7221 142.532 70.1846 142.013 69.528C141.493 68.8714 141.121 68.111 140.919 67.298C140.718 66.485 140.694 65.6383 140.847 64.815C141.039 63.7474 141.497 62.8292 141.785 61.8257C142.35 59.8185 142.254 57.5552 143.523 55.9004C144.622 58.4171 145.876 60.8631 147.277 63.2242C147.635 63.6938 147.884 64.2374 148.006 64.8154C148.128 65.3935 148.119 65.9915 147.981 66.5659L147.437 70.6975Z" fill="#FFD9D7"/>
<path d="M148.066 65.5302L147.586 68.7331C147.586 68.7331 142.095 66.0107 142.809 60.9609C143.523 55.911 148.066 65.5302 148.066 65.5302Z" fill="url(#paint3_linear_61_694)"/>
<path d="M154.485 62.4127C154.204 63.4388 153.607 64.3501 152.779 65.0177C152.384 65.2856 151.943 65.4775 151.478 65.5836C149.845 65.9008 148.154 65.6925 146.647 64.9887C145.139 64.2849 143.893 63.1216 143.086 61.6654C142.326 60.1903 141.892 58.5683 141.815 56.9101C141.737 55.2519 142.018 53.5965 142.638 52.0569C143.146 50.3683 144.294 48.9462 145.837 48.096C146.681 47.7629 147.594 47.6442 148.494 47.7504C149.395 47.8566 150.255 48.1844 150.998 48.7046C153.018 50.1165 154.579 52.0916 155.488 54.3843C156.266 56.7223 155.285 60.1814 154.485 62.4127Z" fill="#FFD9D7"/>
<path d="M178.595 121.089C179.962 122.831 181.042 124.781 181.794 126.865C185.988 136.99 188.713 147.664 189.887 158.562C186.464 158.989 183 158.989 179.576 158.562C179.308 150.869 178.123 143.234 176.046 135.822C175.68 134.227 175.049 132.704 174.18 131.317C172.656 129.107 170.15 127.826 167.782 126.63C162.243 123.935 156.454 121.79 150.497 120.224C147.981 119.53 145.443 118.89 142.969 118.089C140.889 117.384 135.057 114.801 133.372 113.402C132.489 112.732 131.75 111.89 131.201 110.927C130.651 109.964 130.301 108.899 130.173 107.797C130.173 108.352 146.424 109.463 147.586 109.335C151.5 108.918 156.117 106.676 159.977 108.267C162.995 109.505 165.756 112.089 168.508 113.872C171.845 115.964 175.919 117.993 178.595 121.089Z" fill="#0B1644"/>
<path d="M160.787 120.267L140.954 110.562L164.21 100.687L184.055 109.366L160.787 120.267Z" fill="#371E84"/>
<path d="M130.578 74.7011C130.578 75.0747 130.482 75.4377 130.44 75.7687C129.853 81.2349 130.386 86.5943 130.589 92.0285C130.717 95.3915 131.154 101.797 134.726 103.516C141.401 106.719 154.283 105.502 154.283 105.502C155.776 105.262 157.303 105.324 158.772 105.683C159.572 105.929 160.308 106.345 161.086 106.644C163.901 107.712 167.047 107.178 170.011 106.644C170.522 106.583 171.015 106.42 171.461 106.164C171.979 105.704 172.294 105.058 172.34 104.367C172.386 103.676 172.159 102.994 171.707 102.47C170.744 101.457 169.493 100.768 168.124 100.495C164.38 99.2712 160.37 99.1159 156.543 100.046C156.054 100.211 155.556 100.347 155.051 100.452C154.458 100.548 153.859 100.591 153.259 100.58H148.717C143.492 100.58 138.565 100.644 137.776 94.5267C137.485 92.261 137.427 89.9714 137.605 87.694C137.915 83.5836 138.992 79.5053 138.768 75.395C138.754 74.0914 138.429 72.8101 137.819 71.6584C137.509 71.0865 137.059 70.6036 136.51 70.256C135.961 69.9083 135.332 69.7074 134.684 69.6726C134.012 69.7228 133.365 69.9457 132.804 70.3198C132.244 70.6939 131.789 71.2064 131.485 71.8078C131.013 72.7104 130.706 73.6903 130.578 74.7011Z" fill="#FFD9D7"/>
<path d="M192.223 89.7864L164.498 103.911L160.787 120.267L184.055 109.366L192.223 89.7864Z" fill="#371E84"/>
<path d="M155.85 56.5195C155.82 55.5031 155.444 54.5275 154.784 53.7544C154.449 53.3652 154.053 53.0334 153.611 52.7722C152.992 52.4092 152.843 52.3771 152.438 52.9643C151.915 53.7223 151.745 54.6084 151.265 55.3985C150.74 56.2747 150.008 57.008 149.132 57.5337C148.149 58.1448 147.005 58.446 145.848 58.3985C145.389 58.329 144.921 58.329 144.462 58.3985C144.307 58.4277 144.162 58.4907 144.034 58.583C143.907 58.6753 143.802 58.7946 143.726 58.9323C143.616 59.3316 143.576 59.7471 143.609 60.1601C143.513 61.2277 142.457 61.9857 141.871 62.9145C141.284 63.8433 141.114 65.2206 140.41 66.2134C140.279 66.4126 140.099 66.5745 139.887 66.6832C139.386 66.8967 138.821 66.6191 138.298 66.523C136.752 66.2561 135.505 67.6974 134.182 68.5729C131.527 70.3238 128.051 69.8754 124.916 69.3522C123.956 69.236 123.021 68.9694 122.143 68.5622C121.196 68.0025 120.355 67.2796 119.659 66.427C118.497 65.1458 117.345 63.8433 116.204 62.5408C115.78 62.1238 115.443 61.6267 115.212 61.0782C115.09 60.6957 115.057 60.2903 115.116 59.8931C115.22 59.1517 115.44 58.4313 115.767 57.7579C116.599 55.8896 117.569 53.8611 119.446 53.0177C121.322 52.1743 123.54 52.8042 125.609 52.5907C125.861 52.5901 126.107 52.5118 126.313 52.3665C126.478 52.1802 126.595 51.9567 126.654 51.7152C127.518 48.8433 128.595 45.7259 131.175 44.2419C133.164 43.2856 135.405 42.9901 137.573 43.3985C139.72 43.8046 141.91 43.9302 144.089 43.7721C145.155 43.6013 146.221 43.249 147.288 43.0355C149.781 42.4807 152.391 42.8606 154.624 44.1031C155.726 44.7596 156.648 45.6798 157.306 46.7811C157.965 47.8824 158.341 49.1303 158.399 50.4127C158.356 50.9136 158.356 51.4172 158.399 51.9181C158.473 52.3878 158.676 52.8469 158.751 53.3166C158.794 53.7227 158.752 54.1333 158.625 54.5217C158.499 54.91 158.292 55.2672 158.018 55.5697C157.744 55.8723 157.41 56.1133 157.036 56.277C156.662 56.4407 156.258 56.5233 155.85 56.5195Z" fill="#371E84"/>
<path d="M129.608 77.7332C129.279 80.7547 129.243 83.8009 129.501 86.8293C129.488 87.0921 129.555 87.3526 129.693 87.5766C129.92 87.825 130.232 87.9777 130.568 88.0037C132.295 88.3255 134.047 88.4934 135.803 88.5054C136.05 88.5843 136.311 88.6078 136.567 88.5742C136.824 88.5406 137.07 88.4508 137.288 88.3111C137.505 88.1714 137.69 87.9853 137.828 87.7661C137.966 87.5469 138.054 87.2999 138.085 87.0428C139.045 83.0286 139.994 79.0143 140.719 74.9467C141.007 73.3133 141.21 71.477 140.229 70.1531C138.81 68.2314 134.982 68.0179 133.137 69.4165C130.909 71.1353 129.96 75.1496 129.608 77.7332Z" fill="#FFF7F7"/>
<path d="M159.785 72.6086L162.803 79.847C162.952 80.1284 163.011 80.4489 162.973 80.7652C162.896 81.0248 162.749 81.2578 162.547 81.4378C161.073 82.9984 159.323 84.2726 157.386 85.1958C155.6 83.5981 154.15 81.66 153.12 79.4947C152.118 76.9218 152.342 74.0606 152.64 71.3168C152.822 69.5766 152.758 63.9823 155.712 66.1495C157.77 67.6335 158.857 70.3773 159.785 72.6086Z" fill="#FFF7F7"/>
<path d="M105.199 140.509C105.2 141.496 105 142.472 104.612 143.379C104.223 144.286 103.654 145.104 102.939 145.783C101.706 146.952 100.118 147.674 98.4282 147.833C98.1121 147.849 97.7953 147.849 97.4792 147.833L44.5144 146.765C42.4811 146.743 40.5365 145.928 39.0947 144.492C37.6528 143.056 36.8274 141.114 36.7942 139.078C36.7932 138.092 36.9932 137.115 37.3819 136.208C37.7706 135.301 38.3398 134.483 39.0548 133.804C39.7798 133.106 40.6353 132.559 41.5721 132.192C42.509 131.826 43.5089 131.648 44.5144 131.669H46.3165C45.9388 130.357 45.7485 128.999 45.7514 127.634C45.7478 125.688 46.1413 123.762 46.9078 121.974C47.6742 120.185 48.7975 118.573 50.2087 117.235C51.452 116.044 52.896 115.082 54.474 114.395C56.5168 113.503 58.729 113.066 60.9573 113.114L65.4572 113.21C68.2393 113.262 70.9574 114.055 73.3319 115.507C75.7064 116.959 77.6517 119.019 78.9677 121.473C80.2686 120.866 81.6909 120.562 83.1264 120.587H84.2887C86.6984 120.617 89.0017 121.586 90.7098 123.289C92.4179 124.991 93.3964 127.292 93.4378 129.705V130.142C93.4421 130.97 93.3235 131.794 93.0859 132.587L97.4685 132.683C99.5276 132.703 101.495 133.537 102.943 135.002C104.391 136.468 105.202 138.447 105.199 140.509Z" fill="#FFF7F7"/>
<path d="M244.91 78.4592C244.911 79.4469 244.71 80.4244 244.319 81.3314C243.929 82.2384 243.357 83.0558 242.639 83.7332C241.402 84.9022 239.811 85.6237 238.118 85.783C237.802 85.8101 237.484 85.8101 237.169 85.783L184.215 84.7154C182.199 84.6884 180.271 83.8804 178.838 82.461C177.404 81.0416 176.576 79.1213 176.526 77.1033C176.515 76.1065 176.709 75.1182 177.096 74.1998C177.483 73.2814 178.055 72.4527 178.776 71.7652C180.251 70.3659 182.215 69.5996 184.247 69.63H186.038C185.665 68.3208 185.475 66.9664 185.473 65.6051C185.47 63.6593 185.864 61.7335 186.63 59.9454C187.397 58.1574 188.519 56.5448 189.93 55.2065C191.174 54.013 192.618 53.0481 194.195 52.356C196.238 51.4625 198.45 51.0254 200.679 51.0748L205.179 51.1709C207.961 51.2223 210.679 52.0163 213.052 53.4708C215.425 54.9253 217.367 56.9877 218.678 59.4449C219.976 58.8282 221.401 58.5247 222.837 58.5588H223.999C226.41 58.5835 228.716 59.5489 230.427 61.2496C232.137 62.9504 233.118 65.2522 233.159 67.6656V68.1033C233.158 68.9351 233.036 69.7623 232.797 70.5588L237.179 70.6442C239.235 70.6694 241.198 71.5033 242.644 72.9655C244.091 74.4278 244.905 76.4011 244.91 78.4592Z" fill="#FFF7F7"/>
<path d="M144.536 58.4199C144.382 58.4491 144.236 58.5121 144.109 58.6044C143.982 58.6967 143.876 58.816 143.801 58.9537C143.691 59.353 143.651 59.7685 143.683 60.1815C143.587 61.2491 142.532 62.0071 141.945 62.9359C141.359 63.8648 141.188 65.242 140.484 66.2349C140.354 66.4341 140.174 66.5959 139.962 66.7046C139.461 66.9181 138.896 66.6406 138.373 66.5445C136.827 66.2776 135.579 67.7188 134.257 68.5943C131.602 70.3452 128.126 69.8968 124.991 69.3737C124.004 69.2584 123.043 68.9844 122.143 68.5623C121.196 68.0025 120.355 67.2797 119.659 66.427C118.497 65.1459 117.345 63.8434 116.204 62.5409C115.78 62.1239 115.443 61.6267 115.212 61.0783C115.09 60.6958 115.057 60.2904 115.116 59.8932C115.614 59.5926 116.13 59.3251 116.663 59.0925C118.297 58.2142 120.208 58.0037 121.994 58.5053C123.423 59.0605 124.436 60.3309 125.662 61.2384C127.373 62.4372 129.453 62.9881 131.531 62.7925C133.61 62.5969 135.551 61.6677 137.008 60.1708C137.546 59.462 138.177 58.8298 138.885 58.2918C140.154 57.5978 142.734 57.7046 144.536 58.4199Z" fill="#0B1644"/>
</g>
<defs>
<linearGradient id="paint0_linear_61_694" x1="165.202" y1="156.822" x2="219.747" y2="131.474" gradientUnits="userSpaceOnUse">
<stop offset="0.01"/>
<stop offset="0.13" stop-opacity="0.69"/>
<stop offset="0.25" stop-opacity="0.32"/>
<stop offset="1" stop-opacity="0"/>
</linearGradient>
<linearGradient id="paint1_linear_61_694" x1="176.495" y1="88.281" x2="100.847" y2="193.003" gradientUnits="userSpaceOnUse">
<stop offset="0.01"/>
<stop offset="0.13" stop-opacity="0.69"/>
<stop offset="0.25" stop-opacity="0.32"/>
<stop offset="1" stop-opacity="0"/>
</linearGradient>
<linearGradient id="paint2_linear_61_694" x1="158.132" y1="77.5516" x2="111.724" y2="145.069" gradientUnits="userSpaceOnUse">
<stop offset="0.01"/>
<stop offset="0.13" stop-opacity="0.69"/>
<stop offset="0.25" stop-opacity="0.32"/>
<stop offset="1" stop-opacity="0"/>
</linearGradient>
<linearGradient id="paint3_linear_61_694" x1="149.036" y1="56.2527" x2="139.228" y2="77.6601" gradientUnits="userSpaceOnUse">
<stop offset="0.01"/>
<stop offset="0.13" stop-opacity="0.69"/>
<stop offset="0.25" stop-opacity="0.32"/>
<stop offset="1" stop-opacity="0"/>
</linearGradient>
<clipPath id="clip0_61_694">
<rect width="326" height="246" fill="white"/>
</clipPath>
</defs>
</svg>
